<?xml version="1.0" encoding="utf-8"?>
<!-- Generator: Adobe Illustrator 26.0.1, SVG Export Plug-In . SVG Version: 6.00 Build 0)  -->
<svg version="1.1" id="Capa_1" xmlns="http://www.w3.org/2000/svg" xmlns:xlink="http://www.w3.org/1999/xlink" x="0px" y="0px"
	 viewBox="0 0 535 323.3" style="enable-background:new 0 0 535 323.3;" xml:space="preserve">
<style type="text/css">
	.st0{fill:#2F4859;}
	.st1{fill:#E56353;}
	.st2{fill:#EBF0F3;}
</style>
<path class="st0" d="M502.7,0H32.3C14.4,0,0,12.6,0,28.2v266.9c0,15.6,14.4,28.2,32.3,28.2h470.4c17.8,0,32.3-12.6,32.3-28.2V28.2
	C535,12.6,520.6,0,502.7,0z"/>
<path class="st1" d="M389.1,59.2v46c0,7.2,5.9,13.1,13.1,13.1h72.1c7.2,0,13.1-5.9,13.1-13.1v-46c0-7.2-5.9-13.1-13.1-13.1h-72.1
	C395,46.1,389.1,52,389.1,59.2z"/>
<path class="st2" d="M46.4,45.8h20.3c4,0,7,0.2,9,0.5s3.7,1,5.3,2.1s2.9,2.5,3.9,4.2s1.6,3.8,1.6,5.9c0,2.4-0.6,4.6-1.9,6.6
	s-3,3.5-5.2,4.5c3.1,0.9,5.5,2.4,7.1,4.6c1.7,2.2,2.5,4.7,2.5,7.7c0,2.3-0.5,4.6-1.6,6.7s-2.5,3.9-4.4,5.2c-1.9,1.3-4.2,2.1-6.9,2.4
	c-1.7,0.2-5.8,0.3-12.4,0.3H46.4V45.8z M56.6,54.3V66h6.7c4,0,6.5-0.1,7.5-0.2C72.6,65.6,74,65,75,64s1.5-2.3,1.5-4
	c0-1.6-0.4-2.8-1.3-3.8s-2.2-1.6-3.9-1.8c-1-0.1-3.9-0.2-8.8-0.2C62.5,54.2,56.6,54.3,56.6,54.3z M56.6,74.5v13.6h9.5
	c3.7,0,6-0.1,7-0.3c1.5-0.3,2.8-1,3.7-2s1.4-2.5,1.4-4.3c0-1.5-0.4-2.8-1.1-3.9s-1.8-1.8-3.2-2.3s-4.4-0.7-9.1-0.7
	C64.8,74.6,56.6,74.5,56.6,74.5z M143.5,96.6h-11.2l-4.4-11.5h-20.3l-4.2,11.5H92.5l19.8-50.8h10.9L143.5,96.6z M124.6,76.5l-7-18.9
	l-6.9,18.9H124.6z M149,96.6V45.8h10l20.8,33.9V45.8h9.5v50.8H179l-20.5-33.1v33.1H149z M200.3,96.6V45.8h10.3v22.6l20.7-22.6h13.8
	L226,65.6l20.2,31h-13.3l-14-23.9l-8.3,8.5v15.4H200.3L200.3,96.6z M47.4,252.1h39.8v24.8H47.4V252.1z M119.5,252.1h62.7v24.8h-62.7
	V252.1z M201.1,252.1h70.8v24.8h-70.8L201.1,252.1z M295.3,252.1h82.5v24.8h-82.5V252.1z M404.9,252.1h59.7v24.8h-59.7V252.1z"/>
</svg>
