<?xml version="1.0" encoding="utf-8"?>
<!-- Generator: Adobe Illustrator 22.1.0, SVG Export Plug-In . SVG Version: 6.00 Build 0)  -->
<svg version="1.1" id="Capa_1" xmlns="http://www.w3.org/2000/svg" xmlns:xlink="http://www.w3.org/1999/xlink" x="0px" y="0px"
	 viewBox="0 0 511.9 323.3" style="enable-background:new 0 0 511.9 323.3;" xml:space="preserve">
<style type="text/css">
	.st0{fill:#2F4859;}
	.st1{fill:#E56353;}
	.st2{fill:#EBF0F3;}
</style>
<path class="st0" d="M481,0H30.9C13.8,0,0,12.6,0,28.2v266.9c0,15.6,13.8,28.2,30.9,28.2H481c17,0,30.9-12.6,30.9-28.2V28.2
	C511.9,12.6,498.1,0,481,0z"/>
<path class="st1" d="M366.3,58.9v46c0,7.2,5.9,13.1,13.1,13.1h72.1c7.2,0,13.1-5.9,13.1-13.1v-46c0-7.2-5.9-13.1-13.1-13.1h-72.1
	C372.2,45.8,366.3,51.7,366.3,58.9z"/>
<path class="st2" d="M46.4,45.8h20.3c4,0,7,0.2,9,0.5c2,0.3,3.7,1,5.3,2.1s2.9,2.5,3.9,4.2s1.6,3.8,1.6,5.9c0,2.4-0.6,4.6-1.9,6.6
	c-1.3,2-3,3.5-5.2,4.5c3.1,0.9,5.5,2.4,7.1,4.6c1.7,2.2,2.5,4.7,2.5,7.7c0,2.3-0.5,4.6-1.6,6.7s-2.5,3.9-4.4,5.2
	c-1.9,1.3-4.2,2.1-6.9,2.4c-1.7,0.2-5.8,0.3-12.4,0.3H46.4V45.8z M56.6,54.3V66h6.7c4,0,6.5-0.1,7.5-0.2C72.6,65.6,74,65,75,64
	s1.5-2.3,1.5-4c0-1.6-0.4-2.8-1.3-3.8s-2.2-1.6-3.9-1.8c-1-0.1-3.9-0.2-8.8-0.2L56.6,54.3L56.6,54.3z M56.6,74.5v13.6h9.5
	c3.7,0,6-0.1,7-0.3c1.5-0.3,2.8-1,3.7-2s1.4-2.5,1.4-4.3c0-1.5-0.4-2.8-1.1-3.9s-1.8-1.8-3.2-2.3s-4.4-0.7-9.1-0.7L56.6,74.5
	L56.6,74.5z"/>
<path class="st2" d="M143.5,96.6h-11.2l-4.4-11.5h-20.3l-4.2,11.5H92.5l19.8-50.8h10.9L143.5,96.6z M124.6,76.5l-7-18.9l-6.9,18.9
	H124.6z"/>
<path class="st2" d="M149,96.6V45.8h10l20.8,33.9V45.8h9.5v50.8H179l-20.5-33.1v33.1L149,96.6L149,96.6z"/>
<path class="st2" d="M200.3,96.6V45.8h10.3v22.6l20.7-22.6h13.8L226,65.6l20.2,31h-13.3l-14-23.9l-8.3,8.5v15.4L200.3,96.6
	L200.3,96.6z"/>
<rect x="47.4" y="252.1" class="st2" width="39.8" height="24.8"/>
<rect x="119.5" y="252.1" class="st2" width="62.7" height="24.8"/>
<rect x="201.1" y="252.1" class="st2" width="70.8" height="24.8"/>
<rect x="295.3" y="252.1" class="st2" width="82.5" height="24.8"/>
<rect x="404.9" y="252.1" class="st2" width="59.7" height="24.8"/>
</svg>
