<svg version="1.1" id="Capa_1" xmlns="http://www.w3.org/2000/svg" x="0" y="0" viewBox="0 0 511.9 323.3" style="enable-background:new 0 0 511.9 323.3" xml:space="preserve"><style>.st2{fill:#ebf0f3}</style><path d="M481 0H30.9C13.8 0 0 12.6 0 28.2v266.9c0 15.6 13.8 28.2 30.9 28.2H481c17 0 30.9-12.6 30.9-28.2V28.2C511.9 12.6 498.1 0 481 0z" style="fill:#2f4859"/><path d="M366.3 58.9v46c0 7.2 5.9 13.1 13.1 13.1h72.1c7.2 0 13.1-5.9 13.1-13.1v-46c0-7.2-5.9-13.1-13.1-13.1h-72.1c-7.2 0-13.1 5.9-13.1 13.1z" style="fill:#e56353"/><path class="st2" d="M46.4 45.8h20.3c4 0 7 .2 9 .5s3.7 1 5.3 2.1 2.9 2.5 3.9 4.2 1.6 3.8 1.6 5.9c0 2.4-.6 4.6-1.9 6.6-1.3 2-3 3.5-5.2 4.5 3.1.9 5.5 2.4 7.1 4.6 1.7 2.2 2.5 4.7 2.5 7.7 0 2.3-.5 4.6-1.6 6.7s-2.5 3.9-4.4 5.2c-1.9 1.3-4.2 2.1-6.9 2.4-1.7.2-5.8.3-12.4.3H46.4V45.8zm10.2 8.5V66h6.7c4 0 6.5-.1 7.5-.2 1.8-.2 3.2-.8 4.2-1.8s1.5-2.3 1.5-4c0-1.6-.4-2.8-1.3-3.8s-2.2-1.6-3.9-1.8c-1-.1-3.9-.2-8.8-.2l-5.9.1zm0 20.2v13.6h9.5c3.7 0 6-.1 7-.3 1.5-.3 2.8-1 3.7-2s1.4-2.5 1.4-4.3c0-1.5-.4-2.8-1.1-3.9s-1.8-1.8-3.2-2.3-4.4-.7-9.1-.7l-8.2-.1zM143.5 96.6h-11.2l-4.4-11.5h-20.3l-4.2 11.5H92.5l19.8-50.8h10.9l20.3 50.8zm-18.9-20.1l-7-18.9-6.9 18.9h13.9zM149 96.6V45.8h10l20.8 33.9V45.8h9.5v50.8H179l-20.5-33.1v33.1H149zM200.3 96.6V45.8h10.3v22.6l20.7-22.6h13.8L226 65.6l20.2 31h-13.3l-14-23.9-8.3 8.5v15.4h-10.3zM47.4 252.1h39.8v24.8H47.4zM119.5 252.1h62.7v24.8h-62.7zM201.1 252.1h70.8v24.8h-70.8zM295.3 252.1h82.5v24.8h-82.5zM404.9 252.1h59.7v24.8h-59.7z"/></svg>