<svg xmlns="http://www.w3.org/2000/svg" xmlns:xlink="http://www.w3.org/1999/xlink" viewBox="0 0 198 93"><defs><style>.a,.c,.f{fill:none;}.b{fill:#fff;}.c{stroke:#d5d5d5;}.c,.f{stroke-width:0.5px;}.d{font-size:5.5px;fill:#2b2b2b;font-family:ArialMT, Arial;}.e{clip-path:url(#a);}.f{stroke:#2b2b2b;}.g{clip-path:url(#b);}.h{clip-path:url(#c);}.i,.o{fill:#d2d2d2;}.j,.k{fill:#0e2431;}.k,.n,.o{font-size:5px;font-family:Arial-BoldMT, Arial;font-weight:700;}.l{font-size:11.5px;fill:#333;font-family:SegoeUISymbol, SegoeUISymbol;}.m,.n{fill:#c18f8c;}</style><clipPath id="a"><rect class="a" x="7" y="60" width="144.5" height="1"/></clipPath><clipPath id="b"><rect class="a" x="37" y="44.5" width="153" height="1"/></clipPath><clipPath id="c"><rect class="a" x="135.5" y="12.5" width="54.5" height="1"/></clipPath></defs><title>Asset 3</title><path class="b" d="M.25,92V1A.71.71,0,0,1,.47.47.71.71,0,0,1,1,.25H197a.71.71,0,0,1,.53.22.71.71,0,0,1,.22.53V92a.75.75,0,0,1-.75.75H1a.71.71,0,0,1-.53-.22A.71.71,0,0,1,.25,92Z"/><path class="c" d="M.25,92V1A.71.71,0,0,1,.47.47.71.71,0,0,1,1,.25H197a.71.71,0,0,1,.53.22.71.71,0,0,1,.22.53V92a.75.75,0,0,1-.75.75H1a.71.71,0,0,1-.53-.22A.71.71,0,0,1,.25,92Z"/><text class="d" transform="translate(153.05 59)">/100 DOLLARS</text><g class="e"><line class="f" x1="7" y1="60.25" x2="151" y2="60.25"/></g><g class="g"><line class="f" x1="37" y1="44.75" x2="189.5" y2="44.75"/></g><text class="d" transform="translate(7 37)">P</text><text class="d" transform="translate(10.26 37)">A</text><text class="d" transform="translate(13.52 37)">Y</text><text class="d" transform="translate(17.09 37)"> </text><text class="d" transform="translate(18.52 37)">T</text><text class="d" transform="translate(21.78 37)">O </text><text class="d" transform="translate(27.49 37)">THE</text><text class="d" transform="translate(7 43)">ORDER OF</text><g class="h"><line class="f" x1="135.5" y1="12.75" x2="189.5" y2="12.75"/></g><text class="d" transform="translate(119.12 12)">DA</text><text class="d" transform="translate(126.35 12)">TE</text><rect class="i" x="7" y="7" width="53.5" height="5.5"/><rect class="i" x="7" y="14" width="50.5" height="4.5"/><rect class="i" x="7" y="20" width="45" height="4.5"/><path class="j" d="M22.5,77.5v-8a1.56,1.56,0,0,1,.11-.57,1.54,1.54,0,0,1,.82-.82A1.56,1.56,0,0,1,24,68H69.5a1.56,1.56,0,0,1,.57.11,1.54,1.54,0,0,1,.82.82,1.56,1.56,0,0,1,.11.57v8a1.56,1.56,0,0,1-.11.57,1.54,1.54,0,0,1-.82.82,1.56,1.56,0,0,1-.57.11H24a1.56,1.56,0,0,1-.57-.11,1.54,1.54,0,0,1-.82-.82A1.56,1.56,0,0,1,22.5,77.5Z"/><text class="k" transform="translate(23.55 85.5)">ROUTING NUMBER</text><text class="l" transform="translate(72.76 78)">⑆</text><text class="l" transform="translate(15.26 78)">⑆</text><path class="m" d="M133.5,78V70a1.56,1.56,0,0,1,.11-.57,1.54,1.54,0,0,1,.82-.82,1.56,1.56,0,0,1,.57-.11h45.5a1.56,1.56,0,0,1,.57.11,1.54,1.54,0,0,1,.82.82A1.56,1.56,0,0,1,182,70v8a1.56,1.56,0,0,1-.11.57,1.54,1.54,0,0,1-.82.82,1.56,1.56,0,0,1-.57.11H135a1.56,1.56,0,0,1-.57-.11,1.54,1.54,0,0,1-.82-.82A1.56,1.56,0,0,1,133.5,78Z"/><text class="n" transform="translate(133.59 86)">ACCOUNT NUMBER</text><path class="i" d="M83,77.5V70a1.56,1.56,0,0,1,.11-.57,1.54,1.54,0,0,1,.82-.82,1.56,1.56,0,0,1,.57-.11h34a1.56,1.56,0,0,1,.57.11,1.54,1.54,0,0,1,.82.82A1.56,1.56,0,0,1,120,70v7.5a1.56,1.56,0,0,1-.11.57,1.54,1.54,0,0,1-.82.82,1.56,1.56,0,0,1-.57.11h-34a1.56,1.56,0,0,1-.57-.11,1.54,1.54,0,0,1-.82-.82A1.56,1.56,0,0,1,83,77.5Z"/><text class="o" transform="translate(79.39 85.5)">CHEQUE NUMBER</text><text class="l" transform="translate(122.26 79)">⑈</text></svg>