<svg xmlns="http://www.w3.org/2000/svg" xmlns:xlink="http://www.w3.org/1999/xlink" viewBox="0 0 198 93"><defs><style>.a,.c,.p{fill:none;}.b{clip-path:url(#a);}.c{stroke:#2b2b2b;}.c,.p{stroke-width:0.5px;}.d{clip-path:url(#b);}.e{font-size:5.5px;fill:#2b2b2b;font-family:ArialMT, Arial;}.f{clip-path:url(#c);}.g,.h{fill:#d2d2d2;}.h,.k,.m,.o{font-size:5px;font-family:Arial-BoldMT, Arial;font-weight:700;}.i{font-size:11.5px;fill:#333;font-family:SegoeUISymbol, SegoeUISymbol;}.j,.k{fill:#0e2431;}.l,.m{fill:#8fa9c1;}.n,.o{fill:#c18f8c;}.p{stroke:#d5d5d5;}</style><clipPath id="a"><rect class="a" x="7.82" y="60" width="144.5" height="1"/></clipPath><clipPath id="b"><rect class="a" x="37.82" y="44.5" width="153" height="1"/></clipPath><clipPath id="c"><rect class="a" x="136.32" y="12.5" width="54.5" height="1"/></clipPath></defs><title>Asset 4</title><g class="b"><line class="c" x1="7.82" y1="60.25" x2="151.82" y2="60.25"/></g><g class="d"><line class="c" x1="37.82" y1="44.75" x2="190.32" y2="44.75"/></g><text class="e" transform="translate(7.82 37)">P</text><text class="e" transform="translate(11.08 37)">A</text><text class="e" transform="translate(14.34 37)">Y</text><text class="e" transform="translate(17.91 37)"> </text><text class="e" transform="translate(19.34 37)">T</text><text class="e" transform="translate(22.6 37)">O </text><text class="e" transform="translate(28.31 37)">THE</text><text class="e" transform="translate(7.82 43)">ORDER OF</text><g class="f"><line class="c" x1="136.32" y1="12.75" x2="190.32" y2="12.75"/></g><text class="e" transform="translate(119.94 12)">DA</text><text class="e" transform="translate(127.17 12)">TE</text><rect class="g" x="7.82" y="7" width="53.5" height="5.5"/><rect class="g" x="7.82" y="14" width="50.5" height="4.5"/><rect class="g" x="7.82" y="20" width="45" height="4.5"/><path class="g" d="M19.82,77V69a1.39,1.39,0,0,1,.12-.57,1.34,1.34,0,0,1,.32-.49,1.63,1.63,0,0,1,.49-.33,1.56,1.56,0,0,1,.57-.11h23.5a1.66,1.66,0,0,1,.58.11,1.58,1.58,0,0,1,.48.33,1.51,1.51,0,0,1,.33.49,1.38,1.38,0,0,1,.11.57v8a1.38,1.38,0,0,1-.11.57,1.51,1.51,0,0,1-.33.49,1.58,1.58,0,0,1-.48.33,1.66,1.66,0,0,1-.58.11H21.32a1.56,1.56,0,0,1-.57-.11,1.63,1.63,0,0,1-.49-.33,1.34,1.34,0,0,1-.32-.49A1.39,1.39,0,0,1,19.82,77Z"/><text class="h" transform="translate(20.29 85)">CHEQUE #</text><text class="i" transform="translate(11.58 78.5)">⑈</text><text class="i" transform="translate(48.58 78.5)">⑈</text><path class="j" d="M65.32,77V69a1.39,1.39,0,0,1,.12-.57,1.34,1.34,0,0,1,.32-.49,1.63,1.63,0,0,1,.49-.33,1.56,1.56,0,0,1,.57-.11h23.5a1.66,1.66,0,0,1,.58.11,1.58,1.58,0,0,1,.48.33,1.51,1.51,0,0,1,.33.49,1.38,1.38,0,0,1,.11.57v8a1.38,1.38,0,0,1-.11.57,1.51,1.51,0,0,1-.33.49,1.58,1.58,0,0,1-.48.33,1.66,1.66,0,0,1-.58.11H66.82a1.56,1.56,0,0,1-.57-.11,1.63,1.63,0,0,1-.49-.33,1.34,1.34,0,0,1-.32-.49A1.39,1.39,0,0,1,65.32,77Z"/><text class="k" transform="translate(65.66 85)">BRANCH #</text><text class="i" transform="translate(57.08 77)">⑆</text><text class="i" transform="translate(94.08 77)">⑉</text><path class="l" d="M102.82,77V69a1.39,1.39,0,0,1,.12-.57,1.34,1.34,0,0,1,.32-.49,1.63,1.63,0,0,1,.49-.33,1.56,1.56,0,0,1,.57-.11h34.5a1.66,1.66,0,0,1,.58.11,1.58,1.58,0,0,1,.48.33,1.51,1.51,0,0,1,.33.49,1.38,1.38,0,0,1,.11.57v8a1.38,1.38,0,0,1-.11.57,1.51,1.51,0,0,1-.33.49,1.58,1.58,0,0,1-.48.33,1.66,1.66,0,0,1-.58.11h-34.5a1.56,1.56,0,0,1-.57-.11,1.63,1.63,0,0,1-.49-.33,1.34,1.34,0,0,1-.32-.49A1.39,1.39,0,0,1,102.82,77Z"/><text class="m" transform="translate(103.79 85)">INSTITUTION #</text><text class="i" transform="translate(142.58 77)">⑆</text><path class="n" d="M151.32,77V69a1.39,1.39,0,0,1,.12-.57,1.34,1.34,0,0,1,.32-.49,1.63,1.63,0,0,1,.49-.33,1.56,1.56,0,0,1,.57-.11h25.5a1.66,1.66,0,0,1,.58.11,1.58,1.58,0,0,1,.48.33,1.51,1.51,0,0,1,.33.49,1.38,1.38,0,0,1,.11.57v8a1.38,1.38,0,0,1-.11.57,1.51,1.51,0,0,1-.33.49,1.58,1.58,0,0,1-.48.33,1.66,1.66,0,0,1-.58.11h-25.5a1.56,1.56,0,0,1-.57-.11,1.63,1.63,0,0,1-.49-.33,1.34,1.34,0,0,1-.32-.49A1.39,1.39,0,0,1,151.32,77Z"/><text class="o" transform="translate(151.12 85)">ACCOUNT</text><text class="o" transform="translate(176.6 85)">#</text><text class="i" transform="translate(182.58 78.5)">⑈</text><path class="p" d="M.25,92V1A.71.71,0,0,1,.47.47.71.71,0,0,1,1,.25H197a.71.71,0,0,1,.53.22.71.71,0,0,1,.22.53V92a.75.75,0,0,1-.75.75H1a.71.71,0,0,1-.53-.22A.71.71,0,0,1,.25,92Z"/></svg>