<svg xmlns="http://www.w3.org/2000/svg" viewBox="0 0 198 93"><defs><clipPath id="a"><path class="a" d="M7.82 60h144.5v1H7.82z"/></clipPath><clipPath id="b"><path class="a" d="M37.82 44.5h153v1h-153z"/></clipPath><clipPath id="c"><path class="a" d="M136.32 12.5h54.5v1h-54.5z"/></clipPath><style>.a,.c{fill:none}.c{stroke:#2b2b2b;stroke-width:.5px}.e{font-size:5.5px;fill:#2b2b2b;font-family:ArialMT,Arial}.g{fill:#d2d2d2}.o{font-size:5px;font-family:Arial-BoldMT,Arial;font-weight:700}.i{font-size:11.5px;fill:#333;font-family:SegoeUISymbol,SegoeUISymbol}.o{fill:#c18f8c}</style></defs><path class="c" d="M7.82 60.25h144M37.82 44.75h152.5"/><text class="e" transform="translate(7.82 37)">P</text><text class="e" transform="translate(11.08 37)">A</text><text class="e" transform="translate(14.34 37)">Y</text><text class="e" transform="translate(17.91 37)"> </text><text class="e" transform="translate(19.34 37)">T</text><text class="e" transform="translate(22.6 37)">O </text><text class="e" transform="translate(28.31 37)">THE</text><text class="e" transform="translate(7.82 43)">ORDER OF</text><path class="c" d="M136.32 12.75h54"/><text class="e" transform="translate(119.94 12)">DA</text><text class="e" transform="translate(127.17 12)">TE</text><path class="g" d="M7.82 7h53.5v5.5H7.82zM7.82 14h50.5v4.5H7.82zM7.82 20h45v4.5h-45zM19.82 77v-8a1.39 1.39 0 0 1 .12-.57 1.34 1.34 0 0 1 .32-.49 1.63 1.63 0 0 1 .49-.33 1.56 1.56 0 0 1 .57-.11h23.5a1.66 1.66 0 0 1 .58.11 1.58 1.58 0 0 1 .48.33 1.51 1.51 0 0 1 .33.49 1.38 1.38 0 0 1 .11.57v8a1.38 1.38 0 0 1-.11.57 1.51 1.51 0 0 1-.33.49 1.58 1.58 0 0 1-.48.33 1.66 1.66 0 0 1-.58.11h-23.5a1.56 1.56 0 0 1-.57-.11 1.63 1.63 0 0 1-.49-.33 1.34 1.34 0 0 1-.32-.49 1.39 1.39 0 0 1-.12-.57z"/><text transform="translate(20.29 85)" style="font-size:5px;font-family:Arial-BoldMT,Arial;font-weight:700;fill:#d2d2d2">CHEQUE #</text><text class="i" transform="translate(11.58 78.5)">⑈</text><text class="i" transform="translate(48.58 78.5)">⑈</text><path d="M65.32 77v-8a1.39 1.39 0 0 1 .12-.57 1.34 1.34 0 0 1 .32-.49 1.63 1.63 0 0 1 .49-.33 1.56 1.56 0 0 1 .57-.11h23.5a1.66 1.66 0 0 1 .58.11 1.58 1.58 0 0 1 .48.33 1.51 1.51 0 0 1 .33.49 1.38 1.38 0 0 1 .11.57v8a1.38 1.38 0 0 1-.11.57 1.51 1.51 0 0 1-.33.49 1.58 1.58 0 0 1-.48.33 1.66 1.66 0 0 1-.58.11h-23.5a1.56 1.56 0 0 1-.57-.11 1.63 1.63 0 0 1-.49-.33 1.34 1.34 0 0 1-.32-.49 1.39 1.39 0 0 1-.12-.57z" style="fill:#0e2431"/><text transform="translate(65.66 85)" style="fill:#0e2431;font-size:5px;font-family:Arial-BoldMT,Arial;font-weight:700">BRANCH #</text><text class="i" transform="translate(57.08 77)">⑆</text><text class="i" transform="translate(94.08 77)">⑉</text><path d="M102.82 77v-8a1.39 1.39 0 0 1 .12-.57 1.34 1.34 0 0 1 .32-.49 1.63 1.63 0 0 1 .49-.33 1.56 1.56 0 0 1 .57-.11h34.5a1.66 1.66 0 0 1 .58.11 1.58 1.58 0 0 1 .48.33 1.51 1.51 0 0 1 .33.49 1.38 1.38 0 0 1 .11.57v8a1.38 1.38 0 0 1-.11.57 1.51 1.51 0 0 1-.33.49 1.58 1.58 0 0 1-.48.33 1.66 1.66 0 0 1-.58.11h-34.5a1.56 1.56 0 0 1-.57-.11 1.63 1.63 0 0 1-.49-.33 1.34 1.34 0 0 1-.32-.49 1.39 1.39 0 0 1-.12-.57z" style="fill:#8fa9c1"/><text transform="translate(103.79 85)" style="fill:#8fa9c1;font-size:5px;font-family:Arial-BoldMT,Arial;font-weight:700">INSTITUTION #</text><text class="i" transform="translate(142.58 77)">⑆</text><path d="M151.32 77v-8a1.39 1.39 0 0 1 .12-.57 1.34 1.34 0 0 1 .32-.49 1.63 1.63 0 0 1 .49-.33 1.56 1.56 0 0 1 .57-.11h25.5a1.66 1.66 0 0 1 .58.11 1.58 1.58 0 0 1 .48.33 1.51 1.51 0 0 1 .33.49 1.38 1.38 0 0 1 .11.57v8a1.38 1.38 0 0 1-.11.57 1.51 1.51 0 0 1-.33.49 1.58 1.58 0 0 1-.48.33 1.66 1.66 0 0 1-.58.11h-25.5a1.56 1.56 0 0 1-.57-.11 1.63 1.63 0 0 1-.49-.33 1.34 1.34 0 0 1-.32-.49 1.39 1.39 0 0 1-.12-.57z" style="fill:#c18f8c"/><text class="o" transform="translate(151.12 85)">ACCOUNT</text><text class="o" transform="translate(176.6 85)">#</text><text class="i" transform="translate(182.58 78.5)">⑈</text><path d="M.25 92V1A.71.71 0 0 1 .47.47.71.71 0 0 1 1 .25h196a.71.71 0 0 1 .53.22.71.71 0 0 1 .22.53v91a.75.75 0 0 1-.75.75H1a.71.71 0 0 1-.53-.22.71.71 0 0 1-.22-.53z" style="stroke:#d5d5d5;stroke-width:.5px;fill:none"/></svg>