<svg xmlns="http://www.w3.org/2000/svg" viewBox="0 0 198 93"><defs><clipPath id="a"><path class="a" d="M7 60h144.5v1H7z"/></clipPath><clipPath id="b"><path class="a" d="M37 44.5h153v1H37z"/></clipPath><clipPath id="c"><path class="a" d="M135.5 12.5H190v1h-54.5z"/></clipPath><style>.a,.f{fill:none}.f{stroke-width:.5px}.d{font-size:5.5px;fill:#2b2b2b;font-family:ArialMT,Arial}.f{stroke:#2b2b2b}.i{fill:#d2d2d2}.l{font-size:11.5px;fill:#333;font-family:SegoeUISymbol,SegoeUISymbol}</style></defs><path d="M.25 92V1A.71.71 0 0 1 .47.47.71.71 0 0 1 1 .25h196a.71.71 0 0 1 .53.22.71.71 0 0 1 .22.53v91a.75.75 0 0 1-.75.75H1a.71.71 0 0 1-.53-.22.71.71 0 0 1-.22-.53z" style="fill:#fff"/><path d="M.25 92V1A.71.71 0 0 1 .47.47.71.71 0 0 1 1 .25h196a.71.71 0 0 1 .53.22.71.71 0 0 1 .22.53v91a.75.75 0 0 1-.75.75H1a.71.71 0 0 1-.53-.22.71.71 0 0 1-.22-.53z" style="stroke-width:.5px;stroke:#d5d5d5;fill:none"/><text class="d" transform="translate(153.05 59)">/100 DOLLARS</text><path class="f" d="M7 60.25h144M37 44.75h152.5"/><text class="d" transform="translate(7 37)">P</text><text class="d" transform="translate(10.26 37)">A</text><text class="d" transform="translate(13.52 37)">Y</text><text class="d" transform="translate(17.09 37)"> </text><text class="d" transform="translate(18.52 37)">T</text><text class="d" transform="translate(21.78 37)">O </text><text class="d" transform="translate(27.49 37)">THE</text><text class="d" transform="translate(7 43)">ORDER OF</text><path class="f" d="M135.5 12.75h54"/><text class="d" transform="translate(119.12 12)">DA</text><text class="d" transform="translate(126.35 12)">TE</text><path class="i" d="M7 7h53.5v5.5H7zM7 14h50.5v4.5H7zM7 20h45v4.5H7z"/><path d="M22.5 77.5v-8a1.56 1.56 0 0 1 .11-.57 1.54 1.54 0 0 1 .82-.82A1.56 1.56 0 0 1 24 68h45.5a1.56 1.56 0 0 1 .57.11 1.54 1.54 0 0 1 .82.82 1.56 1.56 0 0 1 .11.57v8a1.56 1.56 0 0 1-.11.57 1.54 1.54 0 0 1-.82.82 1.56 1.56 0 0 1-.57.11H24a1.56 1.56 0 0 1-.57-.11 1.54 1.54 0 0 1-.82-.82 1.56 1.56 0 0 1-.11-.57z" style="fill:#0e2431"/><text transform="translate(23.55 85.5)" style="font-size:5px;font-family:Arial-BoldMT,Arial;font-weight:700;fill:#0e2431">ROUTING NUMBER</text><text class="l" transform="translate(72.76 78)">⑆</text><text class="l" transform="translate(15.26 78)">⑆</text><path d="M133.5 78v-8a1.56 1.56 0 0 1 .11-.57 1.54 1.54 0 0 1 .82-.82 1.56 1.56 0 0 1 .57-.11h45.5a1.56 1.56 0 0 1 .57.11 1.54 1.54 0 0 1 .82.82 1.56 1.56 0 0 1 .11.57v8a1.56 1.56 0 0 1-.11.57 1.54 1.54 0 0 1-.82.82 1.56 1.56 0 0 1-.57.11H135a1.56 1.56 0 0 1-.57-.11 1.54 1.54 0 0 1-.82-.82 1.56 1.56 0 0 1-.11-.57z" style="fill:#c18f8c"/><text transform="translate(133.59 86)" style="fill:#c18f8c;font-size:5px;font-family:Arial-BoldMT,Arial;font-weight:700">ACCOUNT NUMBER</text><path class="i" d="M83 77.5V70a1.56 1.56 0 0 1 .11-.57 1.54 1.54 0 0 1 .82-.82 1.56 1.56 0 0 1 .57-.11h34a1.56 1.56 0 0 1 .57.11 1.54 1.54 0 0 1 .82.82 1.56 1.56 0 0 1 .11.57v7.5a1.56 1.56 0 0 1-.11.57 1.54 1.54 0 0 1-.82.82 1.56 1.56 0 0 1-.57.11h-34a1.56 1.56 0 0 1-.57-.11 1.54 1.54 0 0 1-.82-.82 1.56 1.56 0 0 1-.11-.57z"/><text transform="translate(79.39 85.5)" style="font-size:5px;font-family:Arial-BoldMT,Arial;font-weight:700;fill:#d2d2d2">CHEQUE NUMBER</text><text class="l" transform="translate(122.26 79)">⑈</text></svg>