<svg data-name="Layer 1" xmlns="http://www.w3.org/2000/svg" xmlns:xlink="http://www.w3.org/1999/xlink" viewBox="0 0 511.9 318.1"><defs><radialGradient id="a" cx="101.18" cy="751.98" r="512.08" gradientTransform="translate(0 -758.4)" gradientUnits="userSpaceOnUse"><stop offset="0" stop-color="#00b1e7"/><stop offset=".43" stop-color="#0098cd"/><stop offset=".52" stop-color="#008dbe"/><stop offset=".84" stop-color="#006c91"/><stop offset="1" stop-color="#005f80"/></radialGradient><radialGradient id="b" cx="101.2" cy="751.98" r="512.04" xlink:href="#a"/><radialGradient id="c" cx="101.2" cy="751.98" r="512.05" xlink:href="#a"/><radialGradient id="d" cx="101.17" cy="751.98" r="512.09" gradientTransform="translate(-.9 -760.4)" xlink:href="#a"/><radialGradient id="e" cx="101.19" cy="751.99" r="512.06" gradientTransform="translate(-.9 -760.4)" xlink:href="#a"/><radialGradient id="f" cx="101.19" cy="751.98" r="512.04" xlink:href="#a"/><radialGradient id="g" cx="101.2" cy="751.97" r="512.07" xlink:href="#a"/><radialGradient id="h" cx="101.2" cy="751.99" r="512.04" xlink:href="#a"/><radialGradient id="i" cx="101.19" cy="751.98" r="512.07" gradientTransform="translate(-.9 -760.4)" xlink:href="#a"/><radialGradient id="j" cx="101.2" cy="751.99" r="512.03" xlink:href="#a"/></defs><path d="M481.8 5a25.12 25.12 0 0 1 25.1 25.1V288a25.12 25.12 0 0 1-25.1 25.1H30.1A25.12 25.12 0 0 1 5 288V30.1A25.12 25.12 0 0 1 30.1 5h451.7m0-5H30.1A30.13 30.13 0 0 0 0 30.1V288a30.13 30.13 0 0 0 30.1 30.1h451.7a30.13 30.13 0 0 0 30.1-30.1V30.1A30.07 30.07 0 0 0 481.8 0z" style="fill:#0098d0"/><path d="M263.5 144.8v-10.1s-.5-7.9-8.8-7.9h-12.9v18h-13.2v-52h32s16.7-2 16.7 15.2a13.13 13.13 0 0 1-7.4 12.1s6.4 3 6.4 11.8v12.8l-12.8.1m-21.7-30.2h13.6c4 0 7.2-2.2 7.2-4.9s-3.3-4.9-7.2-4.9h-13.6v9.8" transform="translate(-.9 -2)" style="fill:url(#a)"/><path data-name="SVGID" d="M419.2 144.8L398.3 110v34.8h-25.9l-4.7-10.9h-24.1l-4.6 10.9h-20.6s-17.8-2.5-17.8-24.5c0-28.9 20.2-27.7 20.9-27.9l16.3.4v11.7l-13.4.2s-8.7 0-9.8 11.4c-.1 1.3-.2 2.5-.2 3.6 0 17.6 15.3 12.1 15.8 12l16.4-38.8H365l19.8 47.2V92.8h18.7l20.7 34.2V92.8h13.3v52h-18.3m-69.9-24.2h12.8l-6.3-15.5-6.5 15.5" transform="translate(-.9 -2)" style="fill:url(#b)"/><path data-name="SVGID" d="M159.9 144.8v-35.9l-16.5 35.9h-10.8L116 109.1v35.7H89.9l-4.6-10.9H61.2l-4.7 10.9H42.1l21.9-52h18.6l20.1 47.8V92.8h20.9l14.5 32.3 14.4-32.3h20.9v52h-13.5m-93.1-24.2h12.8l-6.4-15.5-6.4 15.5" transform="translate(-.9 -2)" style="fill:url(#c)"/><path data-name="SVGID" style="fill:url(#d)" d="M179.7 142.8v-52h41.2V103H193v8h27.2v11.8H193v8.8h27.9v11.2h-41.2"/><path data-name="SVGID" style="fill:url(#e)" d="M282 143V90.8h13.2V143H282"/><path data-name="SVGID" d="M314.4 233v-10.1s-.5-7.9-8.8-7.9h-12.8v18h-13.2v-52h32s16.7-2 16.7 15.2a13.13 13.13 0 0 1-7.4 12.1s6.3 3 6.3 11.8V233h-12.8m-21.6-30.3h13.6c4 0 7.2-2.2 7.2-4.9s-3.3-4.9-7.2-4.9h-13.6v9.8" transform="translate(-.9 -2)" style="fill:url(#f)"/><path data-name="SVGID" d="M226.4 232.9h-11.5l-14-15.4-14.1 15.4h-49.1v-52.1h48.1l15.1 16.5 15.2-16.5h10.1v-.1h32s16.7-1.9 16.7 15.3c0 15.3-5.5 20.1-22.6 20.1h-12.9v16.7l-13 .1m-16.5-25.6l16.4 18.1v-36.2l-16.4 18.1M151 221.7h27.8l13-14.3-13-14.3H151v8h27.1v11.8H151v8.8m88.5-19.1h13.6c4 0 7.2-2.2 7.2-4.9s-3.3-4.9-7.2-4.9h-13.6v9.8" transform="translate(-.9 -2)" style="fill:url(#g)"/><path data-name="SVGID" d="M404.4 232.8h-23.5v-12h20.6s7.4.9 7.4-4.1c0-4.7-11.2-4.3-11.2-4.3s-18.2 1.6-18.2-15.5 16.4-16 16.4-16h25.3V193h-20.4s-7-1.4-7 3.7c0 4.3 9.6 3.7 9.6 3.7s20.2-1.5 20.2 14.2c0 16.8-13 18.3-17.6 18.3a10.76 10.76 0 0 1-1.6-.1" transform="translate(-.9 -2)" style="fill:url(#h)"/><path data-name="SVGID" style="fill:url(#i)" d="M332.9 230.9V179h41.2v12h-27.9v8h27.2v11.8h-27.2v8.9h27.9v11.2h-41.2"/><path data-name="SVGID" d="M451 232.8h-23.5v-12H448s7.5.9 7.5-4.1c0-4.7-11.2-4.3-11.2-4.3s-18.2 1.6-18.2-15.5 16.4-16 16.4-16h25.3V193h-20.3s-7-1.4-7 3.7c0 4.3 9.6 3.7 9.6 3.7s20.1-1.5 20.1 14.2c0 16.8-13 18.3-17.6 18.3a10.76 10.76 0 0 1-1.6-.1" transform="translate(-.9 -2)" style="fill:url(#j)"/></svg>