<svg id="Layer_1" data-name="Layer 1" xmlns="http://www.w3.org/2000/svg" xmlns:xlink="http://www.w3.org/1999/xlink" viewBox="0 0 511.9 318.1"><defs><style>.cls-1{fill:#ef7d00;}.cls-2{fill:#e12723;}.cls-3{fill:url(#radial-gradient);}.cls-4{fill:#05171d;}.cls-5{fill:#1d1d1b;}</style><radialGradient id="radial-gradient" cx="265.63" cy="388.61" r="36.69" gradientTransform="translate(6.42 -270.31)" gradientUnits="userSpaceOnUse"><stop offset="0.01" stop-color="#fff2e8"/><stop offset="0.1" stop-color="#feeddf"/><stop offset="0.24" stop-color="#fde1c7"/><stop offset="0.43" stop-color="#facd9f"/><stop offset="0.65" stop-color="#f6b168"/><stop offset="0.89" stop-color="#f08e22"/><stop offset="1" stop-color="#ee7d00"/></radialGradient></defs><path class="cls-1" d="M481.6,7a25.12,25.12,0,0,1,25.1,25.1V290a25.12,25.12,0,0,1-25.1,25.1H29.9A25,25,0,0,1,4.8,290V32.1A25.12,25.12,0,0,1,29.9,7H481.6m0-5H29.9A30.13,30.13,0,0,0-.2,32.1V290a30.13,30.13,0,0,0,30.1,30.1H481.6A30.13,30.13,0,0,0,511.7,290V32.1A30,30,0,0,0,481.6,2Z" transform="translate(0.2 -2)"/><path class="cls-1" d="M508.3,300.9V179.2S371.7,275.6,121.4,318.8H481C496.3,318.3,505.3,313.3,508.3,300.9Z" transform="translate(0.2 -2)"/><path class="cls-2" d="M460.3,279.2" transform="translate(0.2 -2)"/><path class="cls-3" d="M272.1,82c-20.5,0-37.2,16-37.2,35.8,0,21,15.9,36.8,37.2,36.8,20.7,0,37.1-15.9,37.1-36.4C309.1,97.9,292.9,82,272.1,82Z" transform="translate(0.2 -2)"/><path class="cls-4" d="M61,83.3H41V153H60.9c10.6,0,18.2-2.5,24.9-8a35.24,35.24,0,0,0,12.7-26.8C98.4,97.6,83,83.3,61,83.3Zm15.9,52.4c-4.3,3.9-9.8,5.6-18.6,5.6H54.6V95.1h3.7c8.8,0,14.1,1.6,18.6,5.6A23.49,23.49,0,0,1,84.4,118,24.05,24.05,0,0,1,76.9,135.7Z" transform="translate(0.2 -2)"/><rect class="cls-4" x="104.9" y="81.3" width="13.6" height="69.7"/><path class="cls-4" d="M151.5,110c-8.2-3-10.6-5-10.6-8.8,0-4.4,4.3-7.7,10.1-7.7,4.1,0,7.4,1.7,11,5.6l7.1-9.3a30.76,30.76,0,0,0-20.5-7.7c-12.3,0-21.7,8.6-21.7,20,0,9.6,4.4,14.5,17.1,19.1,5.3,1.9,8,3.1,9.4,4a8.45,8.45,0,0,1,4.1,7.2c0,5.7-4.5,9.8-10.6,9.8-6.5,0-11.7-3.2-14.8-9.3l-8.8,8.5c6.3,9.2,13.8,13.3,24.1,13.3,14.1,0,24-9.4,24-22.9C171.6,120.7,167,115.7,151.5,110Z" transform="translate(0.2 -2)"/><path class="cls-4" d="M175.9,118.2c0,20.5,16.1,36.4,36.8,36.4a37.24,37.24,0,0,0,17-4.1v-16c-5.4,5.4-10.3,7.6-16.4,7.6-13.7,0-23.4-9.9-23.4-24.1,0-13.4,10-23.9,22.8-23.9,6.5,0,11.4,2.3,17,7.8V86c-6-3-10.9-4.3-16.7-4.3C192.4,81.7,175.9,97.9,175.9,118.2Z" transform="translate(0.2 -2)"/><polygon class="cls-4" points="340.1 128.1 321.5 81.3 306.7 81.3 336.3 152.8 343.6 152.8 373.7 81.3 358.9 81.3 340.1 128.1"/><polygon class="cls-4" points="379.9 151 418.4 151 418.4 139.2 393.5 139.2 393.5 120.4 417.5 120.4 417.5 108.6 393.5 108.6 393.5 93.1 418.4 93.1 418.4 81.3 379.9 81.3 379.9 151"/><path class="cls-4" d="M472.1,103.9c0-13.1-9-20.6-24.7-20.6H427.2V153h13.6V125h1.8l18.8,28h16.7l-22-29.4C466.4,121.5,472.1,114.5,472.1,103.9Zm-27.3,11.5h-4V94.3H445c8.5,0,13.1,3.6,13.1,10.3C458.1,111.6,453.5,115.4,444.8,115.4Z" transform="translate(0.2 -2)"/><path class="cls-5" d="M481.7,88.5c0-1.2-.8-1.9-2.3-1.9h-2v6.1h1.5V90.3l1.7,2.4h1.8l-2-2.5A1.71,1.71,0,0,0,481.7,88.5Zm-2.6.8h-.3V87.7h.3c.7,0,1.1.3,1.1.8S479.8,89.3,479.1,89.3Z" transform="translate(0.2 -2)"/><path class="cls-5" d="M479.6,84.3a5.4,5.4,0,1,0,5.3,5.4A5.29,5.29,0,0,0,479.6,84.3Zm0,9.8a4.35,4.35,0,0,1-4.3-4.4,4.29,4.29,0,0,1,4.3-4.4,4.34,4.34,0,0,1,4.2,4.4A4.27,4.27,0,0,1,479.6,94.1Z" transform="translate(0.2 -2)"/><path class="cls-5" d="M162.9,171.3l18.2,19.1V172.3h2.6v24.4l-18.2-19v18h-2.6Z" transform="translate(0.2 -2)"/><path class="cls-5" d="M162.6,171.3v24.6h3.1V178.3c.8.8,18.2,19,18.2,19V172.1h-3.1v17.7c-.8-.8-18.2-19.1-18.2-19.1v.6Zm.5.6c.8.8,18.2,19.1,18.2,19.1V172.6h2.1v23.5c-.8-.8-18.2-19-18.2-19v18.3h-2.1Z" transform="translate(0.2 -2)"/><path class="cls-5" d="M196.3,172.3h12.1v2.4h-9.5v6.9h9.2V184h-9.2v9.2h9.5v2.4H196.3Z" transform="translate(0.2 -2)"/><path class="cls-5" d="M208.4,172.1H196v23.8h12.6V193h-9.5v-8.7h9.2v-2.9h-9.2V175h9.5v-2.9Zm-.3.5v1.9h-9.5v7.4h9.2v1.9h-9.2v9.6h9.5v1.9H196.5V172.4C197,172.6,207.7,172.6,208.1,172.6Z" transform="translate(0.2 -2)"/><path class="cls-5" d="M226.7,195.7h-2.6V174.8h-5.6v-2.4h13.9v2.4h-5.7v20.9Z" transform="translate(0.2 -2)"/><path class="cls-5" d="M232.4,172.1H218.2V175h5.6v20.9h3.1V175h5.7v-2.9Zm-.2.5v1.9h-5.7v20.9h-2.1V174.5h-5.6v-1.9Z" transform="translate(0.2 -2)"/><path class="cls-5" d="M249.8,189.8l7.6-18.7,7.5,18.7,6.1-17.5h2.8l-9,24.5L257.3,178l-7.6,18.8-8.9-24.5h2.8Z" transform="translate(0.2 -2)"/><path class="cls-5" d="M257.1,171s-6.9,17-7.3,18.1c-.4-1.1-6-17-6-17h-3.3l9.3,25.5s7.1-17.8,7.6-18.8c.4,1.1,7.6,18.8,7.6,18.8l9.3-25.5H271s-5.6,15.9-6,17c-.5-1.1-7.5-18.6-7.5-18.6ZM250,189.9l7.3-18.1c.4,1,7.6,18.7,7.6,18.7s6.2-17.6,6.3-17.9h2.3c-.2.6-8.2,22.5-8.6,23.6-.4-1.1-7.5-18.8-7.5-18.8s-7.1,17.6-7.5,18.8c-.4-1.1-8.4-23-8.6-23.6h2.3c.1.3,6.3,17.9,6.3,17.9Z" transform="translate(0.2 -2)"/><path class="cls-5" d="M307.4,184a12.2,12.2,0,1,1-12.2-12.1A12.08,12.08,0,0,1,307.4,184Zm-21.7,0a9.6,9.6,0,1,0,9.6-9.7A9.6,9.6,0,0,0,285.7,184Z" transform="translate(0.2 -2)"/><path class="cls-5" d="M282.9,184a12.4,12.4,0,1,0,12.4-12.3A12.38,12.38,0,0,0,282.9,184Zm.4,0a11.9,11.9,0,1,1,11.9,11.8A11.84,11.84,0,0,1,283.3,184Z" transform="translate(0.2 -2)"/><path class="cls-5" d="M285.5,184a9.8,9.8,0,1,0,9.8-9.9A9.84,9.84,0,0,0,285.5,184Zm.4,0a9.3,9.3,0,1,1,9.3,9.4A9.37,9.37,0,0,1,285.9,184Z" transform="translate(0.2 -2)"/><path class="cls-5" d="M321.3,195.7h-2.6V172.4h3.4c4.4,0,8.5,1.2,8.5,6.4a6,6,0,0,1-5.8,6.4l7.4,10.5H329l-7-10.2h-.7v10.2Zm0-12.6h.8c2.9,0,5.9-.6,5.9-4.2,0-3.8-2.8-4.2-5.9-4.2h-.8v8.4Z" transform="translate(0.2 -2)"/><path class="cls-5" d="M318.7,172.1h-.2v23.8h3.1V185.7h.4c0,.2,6.9,10.1,6.9,10.1l3.4.1h.5s-7.1-10-7.5-10.6a6.37,6.37,0,0,0,5.7-6.6c0-4.5-2.9-6.7-8.8-6.7l-3.5.1Zm3.4.5c5.6,0,8.3,2,8.3,6.2a5.86,5.86,0,0,1-5.6,6.2h-.4l7.4,10.4h-2.7c0-.2-6.9-10.1-6.9-10.1l-.8-.1H321v10.2h-2.1V172.5C319.4,172.6,322.1,172.6,322.1,172.6Z" transform="translate(0.2 -2)"/><path class="cls-5" d="M321.3,174.5H321v8.9h1.1c2.9,0,6.2-.5,6.2-4.4,0-4.1-3.2-4.5-6.2-4.5Zm.8.5c3,0,5.7.3,5.7,4,0,3.5-2.9,3.9-5.7,3.9h-.6V175Z" transform="translate(0.2 -2)"/><path class="cls-5" d="M355.7,172.3h3.5l-11,10.9,11.3,12.5H356L346.4,185l-.7.6v10.1h-2.6V172.4h2.6v10Z" transform="translate(0.2 -2)"/><path class="cls-5" d="M359.2,172.1h-3.6l-9.6,9.7v-9.7h-3v23.8h3.1V185.6a1.87,1.87,0,0,1,.4-.3c.3.4,9.4,10.5,9.4,10.5l3.8.1h.6s-11.2-12.4-11.6-12.7l11.2-11.1Zm-.6.5-10.7,10.6s10.4,11.5,11.1,12.2h-3c0-.1-9.4-10.6-9.4-10.6l-.2-.2-.8.8s-.1,9.5-.1,10h-2.1V172.5h2.1v10.4l10.3-10.4A21,21,0,0,0,358.6,172.6Z" transform="translate(0.2 -2)"/></svg>