<?xml version="1.0" encoding="utf-8"?>
<!-- Generator: Adobe Illustrator 22.1.0, SVG Export Plug-In . SVG Version: 6.00 Build 0)  -->
<svg version="1.1" id="Layer_1" xmlns="http://www.w3.org/2000/svg" xmlns:xlink="http://www.w3.org/1999/xlink" x="0px" y="0px"
	 viewBox="0 0 512 322.7" style="enable-background:new 0 0 512 322.7;" xml:space="preserve">
<style type="text/css">
	.st0{fill:#EF7D00;}
	.st1{fill:#E12723;}
	.st2{fill:url(#SVGID_1_);}
	.st3{fill:#05171D;}
	.st4{fill:#1D1D1B;}
</style>
<g>
	<g>
		<path class="st0" d="M481.6,7c13.9,0,25.1,11.3,25.1,25.1V290c0,13.9-11.3,25.1-25.1,25.1H29.9C16,315.2,4.8,303.9,4.8,290V32.1
			C4.8,18.3,16,7,29.9,7L481.6,7 M481.6,2H29.9C13.3,2-0.2,15.5-0.2,32.1V290c0,16.6,13.5,30.1,30.1,30.1h451.7
			c16.6,0,30.1-13.5,30.1-30.1V32.1C511.8,15.5,498.3,2,481.6,2L481.6,2z"/>
	</g>
	<g>
		<path class="st0" d="M508.3,300.9V179.2c0,0-136.6,96.4-386.9,139.6H481C496.3,318.3,505.3,313.3,508.3,300.9z"/>
		<path class="st1" d="M460.3,279.2"/>
		
			<radialGradient id="SVGID_1_" cx="265.596" cy="691.407" r="36.7179" gradientTransform="matrix(1 0 0 -1 6.416 809.687)" gradientUnits="userSpaceOnUse">
			<stop  offset="5.600000e-03" style="stop-color:#FFF2E8"/>
			<stop  offset="9.610000e-02" style="stop-color:#FEEDDF"/>
			<stop  offset="0.2438" style="stop-color:#FDE1C7"/>
			<stop  offset="0.4303" style="stop-color:#FACD9F"/>
			<stop  offset="0.6484" style="stop-color:#F6B168"/>
			<stop  offset="0.8901" style="stop-color:#F08E22"/>
			<stop  offset="1" style="stop-color:#EE7D00"/>
		</radialGradient>
		<path class="st2" d="M272.1,82c-20.5,0-37.2,16-37.2,35.8c0,21,15.9,36.8,37.2,36.8c20.7,0,37.1-15.9,37.1-36.4
			C309.1,97.9,292.9,82,272.1,82z"/>
		<path class="st3" d="M61,83.3H41V153h19.9c10.6,0,18.2-2.5,24.9-8c7.9-6.6,12.7-16.5,12.7-26.8C98.4,97.6,83,83.3,61,83.3z
			 M76.9,135.7c-4.3,3.9-9.8,5.6-18.6,5.6h-3.7V95.1h3.7c8.8,0,14.1,1.6,18.6,5.6c4.7,4.2,7.5,10.7,7.5,17.3
			C84.4,124.8,81.6,131.5,76.9,135.7z"/>
		<rect x="104.7" y="83.3" class="st3" width="13.6" height="69.7"/>
		<path class="st3" d="M151.5,110c-8.2-3-10.6-5-10.6-8.8c0-4.4,4.3-7.7,10.1-7.7c4.1,0,7.4,1.7,11,5.6l7.1-9.3
			c-5.9-5.1-12.9-7.7-20.5-7.7c-12.3,0-21.7,8.6-21.7,20c0,9.6,4.4,14.5,17.1,19.1c5.3,1.9,8,3.1,9.4,4c2.7,1.8,4.1,4.3,4.1,7.2
			c0,5.7-4.5,9.8-10.6,9.8c-6.5,0-11.7-3.2-14.8-9.3l-8.8,8.5c6.3,9.2,13.8,13.3,24.1,13.3c14.1,0,24-9.4,24-22.9
			C171.6,120.7,167,115.7,151.5,110z"/>
		<path class="st3" d="M175.9,118.2c0,20.5,16.1,36.4,36.8,36.4c5.9,0,10.9-1.2,17-4.1v-16c-5.4,5.4-10.3,7.6-16.4,7.6
			c-13.7,0-23.4-9.9-23.4-24.1c0-13.4,10-23.9,22.8-23.9c6.5,0,11.4,2.3,17,7.8V86c-6-3-10.9-4.3-16.7-4.3
			C192.4,81.7,175.9,97.9,175.9,118.2z"/>
		<polygon class="st3" points="339.9,130.1 321.3,83.3 306.5,83.3 336.1,154.8 343.4,154.8 373.5,83.3 358.7,83.3 		"/>
		<polygon class="st3" points="379.7,153 418.2,153 418.2,141.2 393.3,141.2 393.3,122.4 417.3,122.4 417.3,110.6 393.3,110.6 
			393.3,95.1 418.2,95.1 418.2,83.3 379.7,83.3 		"/>
		<path class="st3" d="M472.1,103.9c0-13.1-9-20.6-24.7-20.6h-20.2V153h13.6v-28h1.8l18.8,28h16.7l-22-29.4
			C466.4,121.5,472.1,114.5,472.1,103.9z M444.8,115.4h-4V94.3h4.2c8.5,0,13.1,3.6,13.1,10.3C458.1,111.6,453.5,115.4,444.8,115.4z"
			/>
		<path class="st4" d="M481.7,88.5c0-1.2-0.8-1.9-2.3-1.9h-2v6.1h1.5v-2.4l1.7,2.4h1.8l-2-2.5C481.2,90,481.7,89.3,481.7,88.5z
			 M479.1,89.3h-0.3v-1.6h0.3c0.7,0,1.1,0.3,1.1,0.8C480.2,89,479.8,89.3,479.1,89.3z"/>
		<path class="st4" d="M479.6,84.3c-3,0-5.4,2.4-5.4,5.4c0,3,2.4,5.4,5.4,5.4c2.9,0,5.3-2.4,5.3-5.4
			C484.9,86.7,482.6,84.3,479.6,84.3z M479.6,94.1c-2.4,0-4.3-2-4.3-4.4c0-2.5,1.9-4.4,4.3-4.4c2.3,0,4.2,2,4.2,4.4
			C483.9,92.1,481.9,94.1,479.6,94.1z"/>
		<path class="st4" d="M162.9,171.3l18.2,19.1v-18.1h2.6v24.4l-18.2-19v18h-2.6V171.3z"/>
		<path class="st4" d="M162.6,171.3v24.6h3.1c0,0,0-16.5,0-17.6c0.8,0.8,18.2,19,18.2,19v-25.2h-3.1c0,0,0,16.6,0,17.7
			c-0.8-0.8-18.2-19.1-18.2-19.1L162.6,171.3L162.6,171.3z M163.1,171.9c0.8,0.8,18.2,19.1,18.2,19.1s0-18,0-18.4c0.3,0,1.7,0,2.1,0
			c0,0.5,0,22.4,0,23.5c-0.8-0.8-18.2-19-18.2-19s0,17.9,0,18.3c-0.4,0-1.8,0-2.1,0C163.1,194.9,163.1,173.1,163.1,171.9z"/>
		<path class="st4" d="M196.3,172.3h12.1v2.4h-9.5v6.9h9.2v2.4h-9.2v9.2h9.5v2.4h-12.1V172.3z"/>
		<path class="st4" d="M208.4,172.1H196v23.8h12.6V193c0,0-9,0-9.5,0c0-0.5,0-8.2,0-8.7c0.5,0,9.2,0,9.2,0v-2.9c0,0-8.8,0-9.2,0
			c0-0.5,0-6,0-6.4c0.5,0,9.5,0,9.5,0v-2.9L208.4,172.1L208.4,172.1z M208.1,172.6c0,0.3,0,1.6,0,1.9c-0.5,0-9.5,0-9.5,0v7.4
			c0,0,8.8,0,9.2,0c0,0.3,0,1.6,0,1.9c-0.5,0-9.2,0-9.2,0v9.6c0,0,9,0,9.5,0c0,0.4,0,1.6,0,1.9c-0.5,0-11.1,0-11.6,0
			c0-0.5,0-22.4,0-22.9C197,172.6,207.7,172.6,208.1,172.6z"/>
		<path class="st4" d="M226.7,195.7h-2.6v-20.9h-5.6v-2.4h13.9v2.4h-5.7L226.7,195.7L226.7,195.7z"/>
		<path class="st4" d="M232.4,172.1h-14.2v2.9c0,0,5.2,0,5.6,0c0,0.5,0,20.9,0,20.9h3.1c0,0,0-20.4,0-20.9c0.4,0,5.7,0,5.7,0v-2.9
			H232.4z M232.2,172.6c0,0.3,0,1.6,0,1.9c-0.4,0-5.7,0-5.7,0s0,20.4,0,20.9c-0.4,0-1.7,0-2.1,0c0-0.5,0-20.9,0-20.9s-5.2,0-5.6,0
			c0-0.3,0-1.6,0-1.9C219.2,172.6,231.7,172.6,232.2,172.6z"/>
		<path class="st4" d="M249.8,189.8l7.6-18.7l7.5,18.7l6.1-17.5h2.8l-9,24.5l-7.5-18.8l-7.6,18.8l-8.9-24.5h2.8L249.8,189.8z"/>
		<path class="st4" d="M257.1,171c0,0-6.9,17-7.3,18.1c-0.4-1.1-6-17-6-17h-3.3l9.3,25.5c0,0,7.1-17.8,7.6-18.8
			c0.4,1.1,7.6,18.8,7.6,18.8l9.3-25.5h-3.3c0,0-5.6,15.9-6,17c-0.5-1.1-7.5-18.6-7.5-18.6L257.1,171z M250,189.9
			c0,0,6.9-17.1,7.3-18.1c0.4,1,7.6,18.7,7.6,18.7s6.2-17.6,6.3-17.9c0.3,0,1.8,0,2.3,0c-0.2,0.6-8.2,22.5-8.6,23.6
			c-0.4-1.1-7.5-18.8-7.5-18.8s-7.1,17.6-7.5,18.8c-0.4-1.1-8.4-23-8.6-23.6c0.5,0,2,0,2.3,0c0.1,0.3,6.3,17.9,6.3,17.9L250,189.9z"
			/>
		<path class="st4" d="M307.4,184c0,6.7-5.5,12-12.2,12c-6.7,0-12.2-5.3-12.2-12c0-6.7,5.5-12.1,12.2-12.1
			C301.9,171.9,307.4,177.3,307.4,184z M285.7,184c0,5.3,4.3,9.6,9.6,9.6c5.3,0,9.6-4.4,9.6-9.6c0-5.3-4.2-9.7-9.6-9.7
			C289.9,174.3,285.7,178.7,285.7,184z"/>
		<path class="st4" d="M282.9,184c0,6.8,5.6,12.3,12.4,12.3c6.8,0,12.4-5.5,12.4-12.3c0-6.8-5.6-12.3-12.4-12.3
			C288.4,171.7,282.9,177.2,282.9,184z M283.3,184c0-6.5,5.3-11.8,11.9-11.8c6.6,0,11.9,5.3,11.9,11.8c0,6.5-5.4,11.8-11.9,11.8
			C288.7,195.8,283.3,190.5,283.3,184z"/>
		<path class="st4" d="M285.5,184c0,5.5,4.4,9.9,9.8,9.9c5.4,0,9.8-4.4,9.8-9.9c0-5.5-4.4-9.9-9.8-9.9
			C289.9,174.1,285.5,178.5,285.5,184z M285.9,184c0-5.2,4.2-9.4,9.3-9.4s9.3,4.2,9.3,9.4c0,5.2-4.2,9.4-9.3,9.4
			S285.9,189.2,285.9,184z"/>
		<path class="st4" d="M321.3,195.7h-2.6v-23.3h3.4c4.4,0,8.5,1.2,8.5,6.4c0,3.6-2.2,6.1-5.8,6.4l7.4,10.5H329l-7-10.2h-0.7
			L321.3,195.7L321.3,195.7z M321.3,183.1h0.8c2.9,0,5.9-0.6,5.9-4.2c0-3.8-2.8-4.2-5.9-4.2h-0.8L321.3,183.1L321.3,183.1z"/>
		<path class="st4" d="M318.7,172.1h-0.2v23.8h3.1c0,0,0-9.8,0-10.2c0.2,0,0.4,0,0.4,0l0,0c0,0.2,6.9,10.1,6.9,10.1l3.4,0.1h0.5
			c0,0-7.1-10-7.5-10.6c3.4-0.5,5.7-3,5.7-6.6c0-4.5-2.9-6.7-8.8-6.7L318.7,172.1L318.7,172.1z M322.1,172.6c5.6,0,8.3,2,8.3,6.2
			c0,3.5-2.2,5.9-5.6,6.2l-0.4,0c0,0,6.9,9.7,7.4,10.4c-0.7,0-2.7,0-2.7,0h0c0-0.2-6.9-10.1-6.9-10.1l-0.8-0.1H321c0,0,0,9.8,0,10.2
			c-0.4,0-1.8,0-2.1,0c0-0.5,0-22.4,0-22.9C319.4,172.6,322.1,172.6,322.1,172.6z"/>
		<path class="st4" d="M321.3,174.5H321v8.9h1.1c2.9,0,6.2-0.5,6.2-4.4c0-4.1-3.2-4.5-6.2-4.5H321.3z M322.1,175c3,0,5.7,0.3,5.7,4
			c0,3.5-2.9,3.9-5.7,3.9c0,0-0.3,0-0.6,0c0-0.4,0-7.4,0-7.9C321.8,175,322.1,175,322.1,175z"/>
		<path class="st4" d="M355.7,172.3h3.5l-11,10.9l11.3,12.5H356l-9.6-10.7l-0.7,0.6v10.1h-2.6v-23.3h2.6v10L355.7,172.3z"/>
		<path class="st4" d="M359.2,172.1h-3.6c0,0-8.8,8.9-9.6,9.7c0-1.1,0-9.7,0-9.7H343v23.8h3.1c0,0,0-10.2,0-10.3
			c0,0,0.2-0.2,0.4-0.3c0.3,0.4,9.4,10.5,9.4,10.5l3.8,0.1h0.6c0,0-11.2-12.4-11.6-12.7c0.3-0.3,11.2-11.1,11.2-11.1L359.2,172.1
			L359.2,172.1z M358.6,172.6c-0.8,0.8-10.7,10.6-10.7,10.6s10.4,11.5,11.1,12.2c-0.8,0-3,0-3,0l0,0c0-0.1-9.4-10.6-9.4-10.6
			l-0.2-0.2l-0.8,0.8c0,0-0.1,9.5-0.1,10c-0.4,0-1.8,0-2.1,0c0-0.5,0-22.4,0-22.9c0.3,0,1.7,0,2.1,0c0,0.5,0,10.4,0,10.4
			s10.1-10.2,10.3-10.4C356,172.6,357.8,172.6,358.6,172.6z"/>
	</g>
</g>
</svg>
