<?xml version="1.0" encoding="utf-8"?>
<!-- Generator: Adobe Illustrator 26.0.1, SVG Export Plug-In . SVG Version: 6.00 Build 0)  -->
<svg version="1.1" id="Capa_1" xmlns="http://www.w3.org/2000/svg" xmlns:xlink="http://www.w3.org/1999/xlink" x="0px" y="0px"
	 viewBox="0 0 535 323.3" style="enable-background:new 0 0 535 323.3;" xml:space="preserve">
<style type="text/css">
	.st0{fill:#2E9374;}
	.st1{fill:#FCD462;}
	.st2{fill:#EBF0F3;}
	.st3{enable-background:new    ;}
	.st4{fill:#FFFFFF;}
	.st5{fill:none;}
</style>
<path class="st0" d="M502.7,0H32.3C14.4,0,0,12.6,0,28.2v266.9c0,15.6,14.4,28.2,32.3,28.2h470.4c17.8,0,32.3-12.6,32.3-28.2V28.2
	C535,12.6,520.6,0,502.7,0z"/>
<path class="st1" d="M399.5,56.3v46c0,7.2,5.9,13.1,13.1,13.1h72.1c7.2,0,13.1-5.9,13.1-13.1v-46c0-7.2-5.9-13.1-13.1-13.1h-72.1
	C405.4,43.2,399.5,49.1,399.5,56.3z"/>
<path class="st2" d="M58.9,255h39.8v24.8H58.9V255z M131,255h62.7v24.8H131V255z M212.6,255h70.8v24.8h-70.8L212.6,255z M306.8,255
	h82.5v24.8h-82.5V255z M416.4,255h59.7v24.8h-59.7V255z"/>
<g class="st3">
	<path class="st4" d="M40.3,68c0-14.6,11.2-25,26.2-25c8.3,0,15.3,3,19.9,8.6l-7.2,6.6c-3.2-3.7-7.3-5.7-12.1-5.7
		c-9,0-15.5,6.3-15.5,15.5c0,9.1,6.4,15.5,15.5,15.5c4.8,0,8.9-1.9,12.1-5.7l7.2,6.6C81.8,90,74.9,93,66.5,93
		C51.5,93,40.3,82.6,40.3,68z"/>
	<path class="st4" d="M124.7,92.2l-9.3-13.5h-0.6h-9.7v13.5H93.9V43.9h20.9c12.9,0,21,6.7,21,17.5c0,7.2-3.7,12.6-9.9,15.2
		l10.8,15.5H124.7z M114.2,53h-9.1v16.8h9.1c6.8,0,10.3-3.2,10.3-8.4C124.5,56.1,121,53,114.2,53z"/>
	<path class="st4" d="M182,83.2v9h-37.4V43.9h36.5v9h-25.4v10.5h22.4V72h-22.4v11.2H182z"/>
	<path class="st4" d="M190.9,43.9h21.9c15.8,0,26.6,9.5,26.6,24.1s-10.8,24.2-26.6,24.2h-21.9V43.9z M212.3,83
		c9.6,0,15.9-5.7,15.9-15s-6.3-15-15.9-15h-10.2V83H212.3z"/>
	<path class="st4" d="M247.9,43.9h11.2v48.3h-11.2V43.9z"/>
	<path class="st4" d="M280.6,53h-15.5v-9.1h42.1V53h-15.5v39.2h-11.2V53z"/>
	<path class="st4" d="M40.3,133c0-14.6,11.2-25,26.2-25c8.3,0,15.3,3,19.9,8.6l-7.2,6.6c-3.2-3.7-7.3-5.7-12.1-5.7
		c-9,0-15.5,6.3-15.5,15.5c0,9.1,6.4,15.5,15.5,15.5c4.8,0,8.9-1.9,12.1-5.7l7.2,6.6c-4.6,5.6-11.5,8.6-19.9,8.6
		C51.5,158,40.3,147.6,40.3,133z"/>
	<path class="st4" d="M124.8,146.8h-22.4l-4.3,10.3H86.6l21.5-48.3h11l21.6,48.3H129L124.8,146.8z M121.2,138.3l-7.7-18.5l-7.7,18.5
		H121.2z"/>
	<path class="st4" d="M176.6,157.2l-9.3-13.5h-0.6H157v13.5h-11.2v-48.3h20.9c12.9,0,21,6.7,21,17.5c0,7.2-3.7,12.6-9.9,15.2
		l10.8,15.5H176.6z M166.1,118H157v16.8h9.1c6.8,0,10.3-3.2,10.3-8.4C176.4,121.1,172.9,118,166.1,118z"/>
	<path class="st4" d="M196.5,108.9h21.9c15.8,0,26.6,9.5,26.6,24.1s-10.8,24.2-26.6,24.2h-21.9V108.9z M217.9,148
		c9.6,0,15.9-5.7,15.9-15s-6.3-15-15.9-15h-10.2V148H217.9z"/>
</g>
<g>
	<rect x="1230" y="159" class="st5" width="9" height="1"/>
</g>
</svg>
