<svg id="Layer_1" data-name="Layer 1" xmlns="http://www.w3.org/2000/svg" viewBox="0 0 511.9 318.1"><defs><style>.cls-1{fill:#e20613}.cls-4{fill:#fff}</style></defs><path class="cls-1" d="M481.9 5A25.18 25.18 0 0 1 507 30.1V288a25.12 25.12 0 0 1-25.1 25.1H30.1A25.05 25.05 0 0 1 5 288V30.1A25.18 25.18 0 0 1 30.1 5h451.8m0-5H30.1A30.13 30.13 0 0 0 0 30.1V288a30.13 30.13 0 0 0 30.1 30.1h451.7a30.13 30.13 0 0 0 30.1-30.1V30.1a30 30 0 0 0-30-30.1z"/><path d="M389.8 176.7c.9 27.5 1.8 55.9.5 83.9-.9 11-7.8 21.6-17.9 28-7.8 5-17.4 5.5-27.5 6l-36.5-.5-.2-233.4a39.38 39.38 0 0 1 28-33c17.9-2.3 34.4-1.4 53.2-1.8l.9 11.9v132.5l-.5.5v5.9z" style="fill:#009540"/><path d="M125.7 168V57.9c2.3-12.4 12.4-23.8 24.3-28.4 17.9-5.5 38.5-2.3 56.9-2.8.9 17.9 0 40.4.5 55.9l.9 143.5c-2.3 22 6 51.8-21.6 64.2-17.4 8.7-40.8 3.2-60.5 5l-.5-3.2V168z" style="fill:#0069b3"/><path class="cls-4" d="M125.7 172.6c7.3 9.6 17.4 17 29.8 17.4 15.1 1.4 34.9 2.8 44.9-11.5 6.9-7.3 2.8-17.4 4.1-27.1L204 134c-8.7-1.8-16.5 0-26.6-.5-5 18.8 8.3 39.9-13.3 49.5a23.16 23.16 0 0 1-17.4-2.8c-8.3-1.8-3.7-15.1-14.7-11.5l-6.4-.9.1 4.8z"/><path class="cls-1" d="M298.6 41.9l.5 223.3c-3.2 10.6-11.5 22-22.9 26.1-17.4 6-39 3.2-58.2 3.2l-.9-235.3c.9-11 8.3-20.6 17.9-26.6 6.9-4.6 15.1-6 23.8-6.4h39z"/><path class="cls-4" d="M294.9 134c.9 2.8 0 5 .5 8.3-13.8-3.7-30.7-7.8-43.1 2.3-4.6 5.5-7.3 11-6.9 18.3 1.4 8.3 6.4 16 14.2 19.3 11.9 3.7 24.3.5 35.3-2.3.5 2.3.9 5.5 0 7.3h-52.7c-9.2-1.8-16.5-6.9-20.6-16.1-3.7-8.7-1.8-20.6 4.6-28a26.68 26.68 0 0 1 22-9.6zM389.8 176.7c-1.4 5.5-6 10.5-11.5 11.5h-64.2l-2.3-.9c0-18.3-.5-35.8.5-53.7h40.8c12.8 1.4 27.1-4.1 33 7.8 1.8 4.1 1.4 9.6-1.8 12.8-1.8 3.2-6 3.7-6.9 6 5 1.4 10.5 5.5 12.4 10.5zm-55-37.6c-1.4 5-1.4 11.9-.5 17.4 9.6-.5 22 3.2 28.4-4.1 2.3-2.8.9-7.3-.5-9.6-7.2-6.5-18.2-2.3-27.4-3.7zm24.8 25.2c-8.7-1.4-17.4-.9-25.7-.5a83.26 83.26 0 0 0 .9 18.8c9.2 0 19.3 1.4 27.5-2.8 2.3-2.3 3.7-6 2.8-9.2-.5-2.6-2.8-4.9-5.5-6.3z"/></svg>