<?xml version="1.0" encoding="utf-8"?>
<!-- Generator: Adobe Illustrator 22.1.0, SVG Export Plug-In . SVG Version: 6.00 Build 0)  -->
<svg version="1.1" id="Layer_1" xmlns="http://www.w3.org/2000/svg" xmlns:xlink="http://www.w3.org/1999/xlink" x="0px" y="0px"
	 viewBox="0 0 512 318.2" style="enable-background:new 0 0 512 318.2;" xml:space="preserve">
<style type="text/css">
	.st0{fill:#E20613;}
	.st1{fill:#009540;}
	.st2{fill:#0069B3;}
	.st3{fill:#FFFFFF;}
</style>
<g>
	<g>
		<path class="st0" d="M481.9,5C495.7,5,507,16.3,507,30.1V288c0,13.9-11.3,25.1-25.1,25.1H30.1C16.3,313.2,5,301.9,5,288V30.1
			C5,16.3,16.3,5,30.1,5H481.9 M481.9,0H30.1C13.5,0,0,13.5,0,30.1V288c0,16.6,13.5,30.1,30.1,30.1h451.7
			c16.6,0,30.1-13.5,30.1-30.1V30.1C512,13.5,498.5,0,481.9,0L481.9,0z"/>
	</g>
	<g>
		<path class="st1" d="M389.8,176.7c0.9,27.5,1.8,55.9,0.5,83.9c-0.9,11-7.8,21.6-17.9,28c-7.8,5-17.4,5.5-27.5,6l-36.5-0.5
			l-0.2-233.4c1.8-15.6,13.3-28.9,28-33c17.9-2.3,34.4-1.4,53.2-1.8l0.9,11.9v132.5l-0.5,0.5L389.8,176.7L389.8,176.7z"/>
		<path class="st2" d="M125.7,168V57.9c2.3-12.4,12.4-23.8,24.3-28.4c17.9-5.5,38.5-2.3,56.9-2.8c0.9,17.9,0,40.4,0.5,55.9
			l0.9,143.5c-2.3,22,6,51.8-21.6,64.2c-17.4,8.7-40.8,3.2-60.5,5l-0.5-3.2V172.6L125.7,168L125.7,168z"/>
		<path class="st3" d="M125.7,172.6c7.3,9.6,17.4,17,29.8,17.4c15.1,1.4,34.9,2.8,44.9-11.5c6.9-7.3,2.8-17.4,4.1-27.1l-0.5-17.4
			c-8.7-1.8-16.5,0-26.6-0.5c-5,18.8,8.3,39.9-13.3,49.5c-5,1.4-12.4,0.5-17.4-2.8c-8.3-1.8-3.7-15.1-14.7-11.5l-6.4-0.9
			L125.7,172.6L125.7,172.6z"/>
		<path class="st0" d="M298.6,41.9l0.5,223.3c-3.2,10.6-11.5,22-22.9,26.1c-17.4,6-39,3.2-58.2,3.2l-0.9-235.3
			c0.9-11,8.3-20.6,17.9-26.6c6.9-4.6,15.1-6,23.8-6.4h39L298.6,41.9z"/>
		<path class="st3" d="M294.9,134c0.9,2.8,0,5,0.5,8.3c-13.8-3.7-30.7-7.8-43.1,2.3c-4.6,5.5-7.3,11-6.9,18.3
			c1.4,8.3,6.4,16,14.2,19.3c11.9,3.7,24.3,0.5,35.3-2.3c0.5,2.3,0.9,5.5,0,7.3h-52.7c-9.2-1.8-16.5-6.9-20.6-16.1
			c-3.7-8.7-1.8-20.6,4.6-28c5.5-6.4,13.3-10.1,22-9.6L294.9,134z"/>
		<path class="st3" d="M389.8,176.7c-1.4,5.5-6,10.5-11.5,11.5h-64.2l-2.3-0.9c0-18.3-0.5-35.8,0.5-53.7h40.8
			c12.8,1.4,27.1-4.1,33,7.8c1.8,4.1,1.4,9.6-1.8,12.8c-1.8,3.2-6,3.7-6.9,6c5,1.4,10.5,5.5,12.4,10.5V176.7z M334.8,139.1
			c-1.4,5-1.4,11.9-0.5,17.4c9.6-0.5,22,3.2,28.4-4.1c2.3-2.8,0.9-7.3-0.5-9.6C355,136.3,344,140.5,334.8,139.1z M359.6,164.3
			c-8.7-1.4-17.4-0.9-25.7-0.5c-0.5,6.9,0,12.4,0.9,18.8c9.2,0,19.3,1.4,27.5-2.8c2.3-2.3,3.7-6,2.8-9.2
			C364.6,168,362.3,165.7,359.6,164.3z"/>
	</g>
</g>
</svg>
