<svg id="Layer_1" data-name="Layer 1" xmlns="http://www.w3.org/2000/svg" viewBox="0 0 511.9 318.1"><defs><style>.cls-1{fill:#0095db;}.cls-2{fill:#0097d9;}.cls-3{fill:#e40520;}.cls-4{fill:#06326e;}.cls-5{fill:#fff;}</style></defs><path class="cls-1" d="M481.9,5A25.18,25.18,0,0,1,507,30.1V288a25.12,25.12,0,0,1-25.1,25.1H30.1A25.05,25.05,0,0,1,5,288V30.1A25.18,25.18,0,0,1,30.1,5H481.9m0-5H30.1A30.13,30.13,0,0,0,0,30.1V288a30.13,30.13,0,0,0,30.1,30.1H481.8A30.13,30.13,0,0,0,511.9,288V30.1A30,30,0,0,0,481.9,0Z"/><path class="cls-2" d="M257.5,256.9a128.21,128.21,0,1,0-85.9,33.2,127.69,127.69,0,0,0,85.9-33.2Z"/><path class="cls-2" d="M257.5,256.9a128.26,128.26,0,0,0,0-190.2V256.9Z"/><path class="cls-3" d="M343.7,33.5a128.33,128.33,0,0,0-86.2,33.2,164.63,164.63,0,0,0-12.8,13.6h25.9a161.31,161.31,0,0,1,9.8,13.6H234.9a140.24,140.24,0,0,0-7.5,13.6h60.3a143.27,143.27,0,0,1,5.5,13.6H222.1a121.68,121.68,0,0,0-3.8,13.8H297a132.43,132.43,0,0,1,2.8,27.1,130.9,130.9,0,0,1-6.5,40.7H222.2c1.5,4.5,3.3,9,5.3,13.6h60.3a148.5,148.5,0,0,1-7.3,13.6H235a134.33,134.33,0,0,0,9.8,13.6h25.9a128.93,128.93,0,0,1-13.1,13.6,128.28,128.28,0,0,0,214.4-95c-.1-71-57.4-128.6-128.3-128.6Z"/><polygon class="cls-4" points="151.5 197.6 135.4 197.6 144.9 147.6 123.1 197.6 109.5 197.6 106.7 147.9 96.2 197.6 81.6 197.6 93.9 132.5 119.3 132.5 119.6 172.7 137.1 132.5 164 132.5 151.5 197.6"/><path class="cls-4" d="M329.9,196.9a39.11,39.11,0,0,1-11.6,1.8c-8,0-12.6-4-12.6-11.6a39.06,39.06,0,0,1,.5-4.8l1-5.3.8-4,7.3-40.5h15.8l-2.3,12.1h8l-2,12.8h-8.3l-4.3,22.1c0,1-.3,1.8-.3,2.3,0,2.8,1.8,3.8,5.5,3.8a10.55,10.55,0,0,0,4.3-.5l-1.8,11.8Z"/><path class="cls-4" d="M266.6,161.4c0,6.5,3.8,11.3,12.1,14.6,6.8,2.8,7.8,3.5,7.8,6,0,3.3-3,4.8-9.3,4.8a51,51,0,0,1-14.6-2.3l-2.3,12.3h.8l3,.5a14.77,14.77,0,0,0,4.3.5c3.8.3,6.8.5,8.8.5,17.1,0,24.9-5.5,24.9-17.6,0-7.3-3.3-11.6-11.3-14.8-6.8-2.5-7.5-3.3-7.5-5.8,0-2.8,2.8-4.3,7.8-4.3a107.75,107.75,0,0,1,11.8.8l2.3-12.1a92.6,92.6,0,0,0-14.3-1.3c-18.3.1-24.6,8.4-24.3,18.2Z"/><path class="cls-4" d="M203.2,197.6H189.9l.3-5.5c-4,4.3-9.6,6.3-16.8,6.3-8.5,0-14.6-5.8-14.6-14.3,0-12.8,10.3-20.4,28.1-20.4,1.8,0,4,0,6.5.2a10.23,10.23,0,0,0,.5-3.3c0-3.5-2.8-5-10.3-5a72.63,72.63,0,0,0-13.1,1.5l-2.3.8-1.5.3,2.3-11.8c8-2.3,13.3-3,19.1-3,13.8,0,21.1,5.5,21.1,15.6,0,2.8-.3,4.5-1.5,10.6l-3.3,18.6-.5,3.5-.5,2.8-.3,1.8.1,1.3ZM192.4,174a18.5,18.5,0,0,0-3.8-.3c-9,0-13.6,2.8-13.6,8,0,3.3,2.3,5.3,5.8,5.3,6.6.1,11.4-5.2,11.6-13Z"/><path class="cls-4" d="M255.5,196.4a58.89,58.89,0,0,1-16.3,2.3c-17.8,0-27.1-8.3-27.1-23.9,0-18.1,11.8-31.4,27.9-31.4,13.3,0,21.6,7.5,21.6,19.1a45.41,45.41,0,0,1-2,13.1H227.9a5,5,0,0,0-.3,1.8c0,6,4.8,9.3,14.1,9.3a39.66,39.66,0,0,0,16.6-3.5l-2.8,13.2ZM248,164.9v-2.8c0-4.3-2.8-6.8-7.5-6.8-5,0-8.8,3.3-10.3,9.5H248Z"/><path class="cls-4" d="M425.9,173.5c-2.3,17.6-14.6,25.4-30.9,25.4-18.1,0-25.4-10.8-25.4-24.4,0-18.6,12.3-31.4,31.4-31.4,16.6,0,25.4,10.6,25.4,23.9a27.66,27.66,0,0,1-.5,6.5Zm-16.1-6.3c0-5.5-2.3-10.8-8.8-10.8-8,0-13.3,9.8-13.3,18.1,0,7.3,3.5,12.1,9.3,12.1,3.5,0,10.8-4.8,12.3-13.1a39.26,39.26,0,0,0,.5-6.3Z"/><path class="cls-5" d="M427.6,189.6a4.15,4.15,0,0,1,4.3-4,4,4,0,0,1,4,4,4.28,4.28,0,0,1-4,4.3,4.55,4.55,0,0,1-4.3-4.3Zm4.3,3.2a3.08,3.08,0,0,0,3-3.3,2.89,2.89,0,0,0-3-3,3.15,3.15,0,0,0-3.3,3,3.47,3.47,0,0,0,3.3,3.3Zm-.5-1.5h-1v-3.5h1.5c.5,0,.8,0,1,.3s.5.5.5.8a.91.91,0,0,1-.8,1l.8,1.5h-1l-.5-1.3h-.5v1.2Zm0-2h1v-.8h-1.1l.1.8Z"/><polygon class="cls-5" points="155.5 193.8 139.4 193.8 149 143.8 127.1 193.8 112.5 193.8 110 144.1 100.5 193.8 85.9 193.8 98.2 128.8 123.3 128.8 124.6 169 142.2 128.8 168.1 128.8 155.5 193.8"/><path class="cls-5" d="M333.9,193.1a39.11,39.11,0,0,1-11.6,1.8c-8,0-12.6-4-12.6-11.6a46.17,46.17,0,0,1,.5-4.8l1-5.3.8-4,7.3-40.5h15.8l-2.3,12.1h8.3l-2.3,12.8h-8.3l-4,22.1a9.61,9.61,0,0,0-.5,2.3c0,2.8,1.8,4,5.5,4a15.8,15.8,0,0,0,4.3-.5l-1.9,11.6Z"/><path class="cls-4" d="M374.9,156.1l-.3-1.8,3-8.3c-.8,0-1,0-1.3-.3a2.71,2.71,0,0,1-1.3-.3h-1.5c-5.3,0-9,2.3-14.1,8.5l1.8-9.6H344.6l-9.8,53h15.8c2.3-12.3,3.3-19.1,4.5-24.9,2-9.5,9-13.8,14.3-12.8a4.46,4.46,0,0,1,1.8.3l1,.5,2.7-4.3Z"/><path class="cls-5" d="M380.4,141.3a4.44,4.44,0,0,0-1.8-.5c-.8-.3-1.3-.3-1.3-.5h-1.8c-5.3,0-9,2.3-13.8,8.5l1.5-8H348.6l-9.8,53H355c5.8-32.4,8-38.2,15.8-38.2.5,0,1.3.3,2,.3l1.8.5,5.8-15.1Z"/><path class="cls-5" d="M270.6,157.7c0,6.5,3.8,11.3,12.3,14.6,6.5,2.8,7.5,3.5,7.5,6,0,3.3-3,4.8-9.3,4.8a52.06,52.06,0,0,1-14.6-2.3l-2,12.3h.8l2.8.8c1,0,2.5.2,4.3.2a64.85,64.85,0,0,0,9,.5c16.8,0,24.9-5.5,24.9-17.6,0-7.3-3.3-11.6-11.6-14.8-6.8-2.5-7.5-3.3-7.5-5.8,0-2.8,2.8-4.3,8-4.3a106,106,0,0,1,11.6.8l2.3-12.1a89.79,89.79,0,0,0-14.1-1c-18.1,0-24.4,8.1-24.4,17.9Z"/><path class="cls-5" d="M207.3,193.8H194.2l.3-5.5c-4,4.3-9.6,6.3-16.8,6.3-8.5,0-14.6-5.8-14.6-14.3,0-12.8,10.3-20.4,28.1-20.4a52.47,52.47,0,0,1,6.5.3,10.23,10.23,0,0,0,.5-3.3c0-3.5-2.8-4.8-10.3-4.8a64.55,64.55,0,0,0-13.1,1.3l-2.3.8-1.5.3,2.3-11.8c8-2,13.1-2.8,19.1-2.8,13.8,0,20.9,5.3,20.9,15.3,0,2.8-.2,4.8-1.3,10.6l-3.3,18.9-.5,3.3-.5,2.8-.3,1.8-.1,1.2Zm-11.6-23.6a25.83,25.83,0,0,0-3.5-.2c-9,0-13.6,2.8-13.6,8,0,3.3,2,5.5,5.5,5.5,6.6,0,11.3-5.5,11.6-13.3Z"/><path class="cls-5" d="M259.8,192.6a61.09,61.09,0,0,1-16.3,2.3c-17.8,0-27.1-8.3-27.1-23.9,0-18.1,11.8-31.4,27.9-31.4,13.1,0,21.4,7.5,21.4,19.1a52.31,52.31,0,0,1-1.8,13.1H232v1.8c0,6,4.5,9.3,13.8,9.3a41.69,41.69,0,0,0,16.6-3.3l-2.6,13Zm-8.6-31.4v-2.8c0-4.3-2.8-6.8-7.5-6.8-5,0-8.5,3.5-10.1,9.6Z"/><path class="cls-5" d="M430.2,169.7c-2.5,17.6-14.8,25.4-31.2,25.4-17.8,0-25.1-10.8-25.1-24.4,0-18.6,12.3-31.4,31.4-31.4,16.6,0,25.4,10.6,25.4,23.9a27.24,27.24,0,0,1-.5,6.5Zm-16.6-6.8c0-5.5-2.3-10.6-8.8-10.6-8,0-13.1,9.5-13.1,18.1,0,7,3.5,11.8,9,11.8,3.5,0,11.1-4.8,12.3-12.8a22.48,22.48,0,0,0,.6-6.5Z"/></svg>