<svg id="Layer_1" data-name="Layer 1" xmlns="http://www.w3.org/2000/svg" viewBox="0 0 511.9 318.1"><defs><style>.cls-4{fill:#fff}.cls-5{fill:#06326e}</style></defs><path d="M482.7 5a25.12 25.12 0 0 1 25.1 25.1V288a25.12 25.12 0 0 1-25.1 25.1H31A25.12 25.12 0 0 1 5.9 288V30.1A25.12 25.12 0 0 1 31 5h451.7m0-5H31A30.13 30.13 0 0 0 .9 30.1V288A30.13 30.13 0 0 0 31 318.1h451.7a30.13 30.13 0 0 0 30.1-30.1V30.1A30.07 30.07 0 0 0 482.7 0z" transform="translate(-.9)" style="fill:#e30613"/><path d="M257.6 257a126.7 126.7 0 0 0 86.1 33.5c71 0 128.5-57.9 128.5-129.2 0-71.5-57.5-129.4-128.5-129.4a127 127 0 0 0-86.1 33.5 129.43 129.43 0 0 0 0 191.6z" transform="translate(-.9)" style="fill:#fab31e"/><path d="M299.1 147.5a131.92 131.92 0 0 0-2.2-13.8h-78.6c.9-4.7 2.2-9.1 3.5-13.5h71.3c-1.6-4.7-3.3-9.3-5.3-13.8h-60.4c2.2-4.7 4.7-9.3 7.3-13.8h45.5a108 108 0 0 0-9.8-13.5h-26a131.24 131.24 0 0 1 13.1-13.8 128.9 128.9 0 0 0-86.4-33.5c-70.8 0-128.5 57.9-128.5 129.4 0 71.3 57.7 129.2 128.5 129.2a127.94 127.94 0 0 0 86.4-33.5 126.41 126.41 0 0 0 12.9-13.5h-26a137.1 137.1 0 0 1-9.8-13.8h45.5a96.47 96.47 0 0 0 7.5-13.8h-60.4c-2-4.4-4-8.9-5.6-13.5h71.3a121.68 121.68 0 0 0 3.8-13.8 120.41 120.41 0 0 0 2.2-13.8c.4-4.4.7-8.9.7-13.5a104 104 0 0 0-.5-13.7z" transform="translate(-.9)" style="fill:#e40520"/><path class="cls-4" d="M455.1 191.3a4.06 4.06 0 0 1 4-4.2 4.1 4.1 0 0 1 4.2 4.2 4.1 4.1 0 1 1-8.2 0zm4 3.1a3.16 3.16 0 0 0 3.3-3.1 3.22 3.22 0 0 0-3.3-3.1 3.11 3.11 0 0 0-3.1 3.1 3.25 3.25 0 0 0 3.1 3.1zm-.4-1.4h-.9v-3.6h2.5c.4.2.4.7.4 1.1a1.13 1.13 0 0 1-.7.9l.9 1.6h-1.1l-.4-1.3h-.7v-.7h.4c.2 0 .4 0 .4-.2.2 0 .2-.2.2-.4a.2.2 0 0 0-.2-.2c0-.2-.2 0-.4 0h-.4v2.8z" transform="translate(-.9)"/><path class="cls-5" d="M213.8 198.6c-4.2 1.1-7.3 1.8-10.4 1.8-6.7 0-10.7-4.2-10.7-11.8a44 44 0 0 1 .4-4.9l.9-5.1.7-4.2 6-36.4H214l-1.6 8h8.4l-2 13.3h-8.4L207 181a11.3 11.3 0 0 0-.2 2.2c0 2.9 1.3 4 4.7 4a26.05 26.05 0 0 0 4.2-.4l-1.9 11.8zM256.9 198.1a53.49 53.49 0 0 1-14.2 2c-15.1 0-23.8-8-23.8-23.8 0-18.4 10.2-31.7 24.4-31.7 11.3 0 18.6 7.6 18.6 19.3a56 56 0 0 1-1.6 13.1h-27.8a6.89 6.89 0 0 0-.2 1.8c0 6.2 4.2 9.3 12.2 9.3a33.64 33.64 0 0 0 14.4-3.3l-2 13.3zm-8.2-31.7v-2.7c0-4.4-2.4-6.9-6.7-6.9s-7.5 3.3-8.9 9.5h15.6z" transform="translate(-.9)"/><path class="cls-5" d="M106.4 199.3H92.6l8-50.4-18 50.4h-9.5L72 149.1l-8.5 50.2H50l10.9-65.5h20.2l.4 40.4 13.6-40.4h22.2l-10.9 65.5z"/><path class="cls-5" d="M140.8 175.5a14.22 14.22 0 0 0-2.7-.2c-8 0-12 3.1-12 8 0 3.3 2 5.6 5.1 5.6 6.7-.1 9.4-5.6 9.6-13.4zm11.1 23.8h-12l.2-5.5c-3.1 4.2-7.3 6.4-14.7 6.4-6.7 0-12.4-6-12.4-14.7a22.65 22.65 0 0 1 1.1-6.9c2.2-8.2 10.4-13.3 23.1-13.5 1.6 0 4 0 6.2.2a13 13 0 0 0 .4-3.6c0-3.6-2.9-4.7-9.3-4.7a37 37 0 0 0-11.5 1.8l-2 .4-.9.2 2-12c6.4-2 11.1-2.9 16.2-2.9 12 0 18.4 5.6 18.4 15.8a49.63 49.63 0 0 1-.7 10.4l-3.1 19.1-.4 3.3-.2 2.7-.2 1.8-.2 1.7zM323.9 146.4c4 0 7.5 1.1 12.4 3.6l2.4-14.2a18.42 18.42 0 0 0-3.6-1.3l-5.6-1.6a29.81 29.81 0 0 0-6.4-.7c-6.9 0-10.9.2-15.1 2.7a45.63 45.63 0 0 0-8.2 7.1l-1.8-.4-14.2 10 .7-5.5H270l-8.7 53.3h14l5.1-28.6s2-4 2.9-5.3c2.7-3.3 4.9-3.3 7.8-3.3h1.1a77.85 77.85 0 0 0-.7 10.2c0 17.3 9.8 28.2 24.9 28.2a42.29 42.29 0 0 0 12.2-1.8l2.4-15.1c-4.4 2.4-8.4 3.6-11.8 3.6-8.2 0-13.1-6.2-13.1-16 .1-14.7 7.4-24.9 17.8-24.9zM441.8 133.8l-3.1 18.6c-3.3-5.1-7.3-7.5-12.7-7.5-7.3 0-14.2 4.2-18.4 12.2v-.2l-8.9-5.3.9-5.5h-14.9l-8.4 53.3h13.8l4.7-28.6s3.6-4 4.4-5.3a8.33 8.33 0 0 1 6.2-3.3A46.88 46.88 0 0 0 403 178c0 13.3 6.9 22.2 17.1 22.2 5.1 0 9.1-1.8 12.9-6l-.7 5.3h13.1l10.7-65.5-14.3-.2zm-17.1 52.8c-4.7 0-7.1-3.6-7.1-10.4 0-10.4 4.4-18 10.9-18 4.9 0 7.3 3.8 7.3 10.4 0 10.7-4.4 18-11.1 18zM360.6 175.5a14.22 14.22 0 0 0-2.7-.2c-8 0-12 3.1-12 8 0 3.3 2 5.6 5.1 5.6 6.7-.1 9.4-5.6 9.6-13.4zm11.1 23.8h-12.2l.4-5.5c-3.1 4.2-7.3 6.4-14.7 6.4-6.9 0-12.9-5.8-12.9-14.7 0-12.7 9.5-20.4 24.6-20.4 1.6 0 4 0 6 .2a15.88 15.88 0 0 0 .7-3.6c0-3.6-2.9-4.7-9.5-4.7a38 38 0 0 0-11.5 1.8l-1.8.4-.9.2 2-12c6.4-2 11.1-2.9 16.2-2.9 12 0 18.2 5.6 18.2 15.8a38.63 38.63 0 0 1-.7 10.4l-2.9 19.1-.4 3.3-.4 2.7-.2 1.8v1.7zM181 157.3a61.58 61.58 0 0 1 10.4.9l2-12.4c-4-.4-9.3-1.1-12.4-1.1-15.5 0-20.6 8.4-20.6 18.2 0 6.4 2.9 11.1 10.4 14.7 5.5 2.7 6.4 3.1 6.4 5.6 0 3.3-2.9 5.3-8.2 5.3a39 39 0 0 1-12.7-2.2l-1.6 12.2.2.2 2.7.4c.9.2 2 .4 3.6.7 3.3.2 6.2.4 8 .4 15.5 0 22-6 22-17.8 0-7.3-3.6-11.8-10.4-14.9-6-2.7-6.7-3.1-6.7-5.5s2.7-4.7 6.9-4.7z" transform="translate(-.9)"/><path class="cls-4" d="M342.6 131.5l-2.4 14.2c-4.9-2.4-8.4-3.6-12.4-3.6-10.4 0-17.8 10.2-17.8 24.6 0 10 4.9 16 13.1 16 3.3 0 7.3-1.1 11.8-3.3l-2.4 14.9c-5.1 1.3-8.4 2-12.2 2-15.1 0-24.4-10.9-24.4-28.4 0-23.3 12.9-39.7 31.3-39.7a24.08 24.08 0 0 1 6.4.7l5.5 1.3a32.46 32.46 0 0 0 3.5 1.3zM297.8 141.3h-1.3c-4.7 0-7.3 2.2-11.5 8.7l1.3-8.2h-12.7l-8.7 53.3h14c5.1-32.6 6.4-38.2 13.1-38.2h.9a55.56 55.56 0 0 1 5.3-15.3l-.4-.3zM217.4 194.4a29.87 29.87 0 0 1-10 1.8c-7.1 0-11.1-4-11.1-11.8a42.59 42.59 0 0 1 .4-4.7l.9-5.3.7-4.2 6-36.4h13.8l-1.6 8h7.1l-1.8 13.1h-7.1l-3.8 22.2a9.38 9.38 0 0 0-.2 2.2c0 2.7 1.3 3.8 4.7 3.8a10.25 10.25 0 0 0 3.8-.4l-1.8 11.7zM163.9 158.6c0 6.7 3.1 11.3 10.4 14.9 5.8 2.7 6.7 3.6 6.7 5.8 0 3.3-2.4 4.9-8 4.9a42.23 42.23 0 0 1-12.4-2l-2 12.2.7.2 2.4.4a16.17 16.17 0 0 0 3.8.4 56.78 56.78 0 0 0 7.5.4c14.7 0 21.5-5.6 21.5-17.8 0-7.3-2.9-11.5-9.8-14.9-6-2.7-6.7-3.3-6.7-5.8 0-2.9 2.4-4.2 6.9-4.2a76.55 76.55 0 0 1 10 .7l2-12.2a76.71 76.71 0 0 0-12.2-1.1c-15.5.1-21 8.4-20.8 18.1zM448.9 195h-13.1l.7-5.1c-3.8 4-7.8 5.8-12.9 5.8-10.2 0-16.9-8.7-16.9-22 0-17.8 10.4-32.9 22.6-32.9 5.5 0 9.5 2.4 13.3 7.3l3.1-18.7h13.8L448.9 195zm-20.4-12.4c6.4 0 10.9-7.6 10.9-18 0-6.9-2.4-10.4-7.3-10.4-6.2 0-10.9 7.3-10.9 17.8 0 7.1 2.4 10.6 7.3 10.6zM260 193.9a44.19 44.19 0 0 1-14.4 2.2c-15.5 0-23.5-8.2-23.5-24 0-18.2 10.2-31.7 24.2-31.7 11.5 0 18.9 7.5 18.9 19.3a50.4 50.4 0 0 1-1.8 13.3h-27.5a4.72 4.72 0 0 0-.2 1.5c0 6.2 4.2 9.3 12.2 9.3a31 31 0 0 0 14.4-3.3l-2.3 13.4zm-7.8-31.7v-2.7c0-4.4-2.4-6.9-6.7-6.9s-7.5 3.3-8.9 9.5h15.6z" transform="translate(-.9)"/><path class="cls-4" d="M109.9 195H96.2l8-50.4-18 50.4h-9.6l-1.1-49.9-8.4 49.9H54.2l10.9-65.5h20l.6 40.7L99 129.5h21.8L109.9 195z"/><path class="cls-4" d="M145.2 171.3c-1.3 0-2-.2-3.1-.2-7.8 0-11.8 2.9-11.8 8.2 0 3.3 1.8 5.3 4.9 5.3 5.8 0 9.8-5.3 10-13.3zm10.2 23.7h-11.5l.2-5.6c-3.6 4.4-8.2 6.4-14.7 6.4-7.5 0-12.7-5.8-12.7-14.4 0-13.1 8.9-20.6 24.4-20.6 1.6 0 3.6.2 5.8.4a12.24 12.24 0 0 0 .4-3.3c0-3.6-2.4-4.9-8.9-4.9a44.92 44.92 0 0 0-11.5 1.3l-2 .7-1.3.2 2-12c6.9-2 11.5-2.7 16.6-2.7 12 0 18.4 5.3 18.4 15.5 0 2.7-.2 4.7-1.1 10.7l-3.1 18.9-.4 3.3-.2 2.7-.2 2-.2 1.4zM365 171.3c-1.6 0-2.2-.2-3.1-.2-8 0-12 2.9-12 8.2 0 3.3 2 5.3 5.1 5.3 5.6 0 9.8-5.3 10-13.3zm10.2 23.7h-11.5l.2-5.6c-3.6 4.4-8.2 6.4-14.6 6.4-7.5 0-12.7-5.8-12.7-14.4 0-13.1 8.9-20.6 24.4-20.6 1.6 0 3.6.2 5.6.4a17.74 17.74 0 0 0 .7-3.3c0-3.6-2.4-4.9-8.9-4.9a47.37 47.37 0 0 0-11.8 1.3l-1.8.7-1.3.2 2-12c6.9-2 11.5-2.7 16.6-2.7 12 0 18.2 5.3 18.2 15.5a48.27 48.27 0 0 1-1.1 10.7l-2.9 18.9-.4 3.3-.4 2.7-.2 2-.1 1.4zM412.5 141.3h-1.3c-4.7 0-7.3 2.2-11.5 8.7l1.3-8.2h-12.7l-8.4 53.3h13.8c5.1-32.6 6.4-38.2 13.1-38.2h.9a55.56 55.56 0 0 1 5.3-15.3l-.5-.3z" transform="translate(-.9)"/></svg>