<?xml version="1.0" encoding="utf-8"?>
<!-- Generator: Adobe Illustrator 22.1.0, SVG Export Plug-In . SVG Version: 6.00 Build 0)  -->
<svg version="1.1" id="Layer_1" xmlns="http://www.w3.org/2000/svg" xmlns:xlink="http://www.w3.org/1999/xlink" x="0px" y="0px"
	 viewBox="0 0 512 318.2" style="enable-background:new 0 0 512 318.2;" xml:space="preserve">
<style type="text/css">
	.st0{fill:#E30613;}
	.st1{fill:#FAB31E;}
	.st2{fill:#E40520;}
	.st3{fill:#FFFFFF;}
	.st4{fill:#06326E;}
</style>
<g>
	<g>
		<path class="st0" d="M482.7,5c13.9,0,25.1,11.3,25.1,25.1V288c0,13.9-11.3,25.1-25.1,25.1H31c-13.9,0-25.1-11.3-25.1-25.1V30.1
			C5.9,16.3,17.1,5,31,5L482.7,5 M482.7,0H31C14.4,0,0.9,13.5,0.9,30.1V288c0,16.6,13.5,30.1,30.1,30.1h451.7
			c16.6,0,30.1-13.5,30.1-30.1V30.1C512.8,13.5,499.4,0,482.7,0L482.7,0z"/>
	</g>
	<g>
		<path class="st1" d="M257.6,257c22.6,20.9,53.1,33.5,86.1,33.5c71,0,128.5-57.9,128.5-129.2c0-71.5-57.5-129.4-128.5-129.4
			c-33.1,0-63.5,12.7-86.1,33.5c-26,23.8-42.4,57.9-42.4,95.9C215.2,199.3,231.6,233.4,257.6,257L257.6,257z"/>
		<path class="st2" d="M299.1,147.5c-0.4-4.7-1.3-9.1-2.2-13.8h-78.6c0.9-4.7,2.2-9.1,3.5-13.5h71.3c-1.6-4.7-3.3-9.3-5.3-13.8
			h-60.4c2.2-4.7,4.7-9.3,7.3-13.8h45.5c-2.9-4.7-6.2-9.3-9.8-13.5h-26c4-4.9,8.4-9.5,13.1-13.8c-22.9-20.6-53.1-33.5-86.4-33.5
			c-70.8,0-128.5,57.9-128.5,129.4c0,71.3,57.7,129.2,128.5,129.2c33.3,0,63.5-12.7,86.4-33.5l0,0l0,0c4.7-4.2,8.9-8.7,12.9-13.5
			h-26c-3.6-4.4-6.7-8.9-9.8-13.8h45.5c2.9-4.4,5.3-8.9,7.5-13.8h-60.4c-2-4.4-4-8.9-5.6-13.5h71.3c1.6-4.4,2.7-9.1,3.8-13.8
			c0.9-4.4,1.8-9.1,2.2-13.8c0.4-4.4,0.7-8.9,0.7-13.5C299.8,156.6,299.5,152,299.1,147.5L299.1,147.5z"/>
		<path class="st3" d="M455.1,191.3c0-2.4,1.8-4.2,4-4.2c2.4,0,4.2,1.8,4.2,4.2c0,2.2-1.8,4.2-4.2,4.2
			C456.9,195.5,455.1,193.5,455.1,191.3L455.1,191.3z M459.1,194.4c1.8,0,3.3-1.3,3.3-3.1c0-1.8-1.6-3.1-3.3-3.1
			c-1.6,0-3.1,1.3-3.1,3.1C456,193,457.6,194.4,459.1,194.4L459.1,194.4z M458.7,193h-0.9v-3.6h1.6c0.2,0,0.7,0,0.9,0
			c0.4,0.2,0.4,0.7,0.4,1.1c0,0.2-0.2,0.7-0.7,0.9l0.9,1.6h-1.1l-0.4-1.3h-0.7L458.7,193l0-2h0.4c0.2,0,0.4,0,0.4-0.2
			c0.2,0,0.2-0.2,0.2-0.4c0,0,0-0.2-0.2-0.2c0-0.2-0.2,0-0.4,0h-0.4v0.9L458.7,193L458.7,193z"/>
		<path class="st4" d="M213.8,198.6c-4.2,1.1-7.3,1.8-10.4,1.8c-6.7,0-10.7-4.2-10.7-11.8c0-1.6,0.2-3.1,0.4-4.9l0.9-5.1l0.7-4.2
			l6-36.4h13.3l-1.6,8h8.4l-2,13.3h-8.4L207,181c-0.2,1.1-0.2,1.8-0.2,2.2c0,2.9,1.3,4,4.7,4c1.6,0,2.9-0.2,4.2-0.4L213.8,198.6
			L213.8,198.6z"/>
		<path class="st4" d="M256.9,198.1c-4.9,1.3-9.3,2-14.2,2c-15.1,0-23.8-8-23.8-23.8c0-18.4,10.2-31.7,24.4-31.7
			c11.3,0,18.6,7.6,18.6,19.3c0,4-0.4,7.8-1.6,13.1h-27.8c-0.2,0.9-0.2,1.3-0.2,1.8c0,6.2,4.2,9.3,12.2,9.3c5.1,0,9.5-1.1,14.4-3.3
			L256.9,198.1L256.9,198.1z M248.7,166.4c0-1.1,0-2,0-2.7c0-4.4-2.4-6.9-6.7-6.9c-4.4,0-7.5,3.3-8.9,9.5H248.7L248.7,166.4z"/>
		<polygon class="st4" points="107.3,199.3 93.5,199.3 101.5,148.9 83.5,199.3 74,199.3 72.9,149.1 64.4,199.3 50.9,199.3 
			61.8,133.8 82,133.8 82.4,174.2 96,133.8 118.2,133.8 		"/>
		<path class="st4" d="M140.8,175.5c-1.3-0.2-1.8-0.2-2.7-0.2c-8,0-12,3.1-12,8c0,3.3,2,5.6,5.1,5.6
			C137.9,188.8,140.6,183.3,140.8,175.5L140.8,175.5z M151.9,199.3h-12l0.2-5.5c-3.1,4.2-7.3,6.4-14.7,6.4c-6.7,0-12.4-6-12.4-14.7
			c0-2.4,0.4-4.7,1.1-6.9c2.2-8.2,10.4-13.3,23.1-13.5c1.6,0,4,0,6.2,0.2c0.4-1.8,0.4-2.4,0.4-3.6c0-3.6-2.9-4.7-9.3-4.7
			c-4,0-8.4,0.7-11.5,1.8l-2,0.4l-0.9,0.2l2-12c6.4-2,11.1-2.9,16.2-2.9c12,0,18.4,5.6,18.4,15.8c0,2.7,0.2,4.7-0.7,10.4l-3.1,19.1
			l-0.4,3.3l-0.2,2.7l-0.2,1.8L151.9,199.3L151.9,199.3z"/>
		<path class="st4" d="M323.9,146.4c4,0,7.5,1.1,12.4,3.6l2.4-14.2c-1.3-0.7-1.8-0.7-3.6-1.3l-5.6-1.6c-1.8-0.4-4-0.7-6.4-0.7
			c-6.9,0-10.9,0.2-15.1,2.7c-2.2,1.6-5.1,3.6-8.2,7.1l-1.8-0.4l-14.2,10l0.7-5.5H270l-8.7,53.3h14l5.1-28.6c0,0,2-4,2.9-5.3
			c2.7-3.3,4.9-3.3,7.8-3.3c0.4,0,0.9,0,1.1,0c-0.4,3.1-0.7,6.4-0.7,10.2c0,17.3,9.8,28.2,24.9,28.2c3.8,0,7.1-0.4,12.2-1.8
			l2.4-15.1c-4.4,2.4-8.4,3.6-11.8,3.6c-8.2,0-13.1-6.2-13.1-16C306.2,156.6,313.5,146.4,323.9,146.4L323.9,146.4z"/>
		<path class="st4" d="M441.8,133.8l-3.1,18.6c-3.3-5.1-7.3-7.5-12.7-7.5c-7.3,0-14.2,4.2-18.4,12.2v-0.2l-8.9-5.3l0.9-5.5h-14.9
			l-8.4,53.3h13.8l4.7-28.6c0,0,3.6-4,4.4-5.3c2.2-2.7,4.4-3.1,6.2-3.3c-1.6,4.4-2.4,9.8-2.4,15.8c0,13.3,6.9,22.2,17.1,22.2
			c5.1,0,9.1-1.8,12.9-6l-0.7,5.3h13.1l10.7-65.5L441.8,133.8L441.8,133.8z M424.7,186.6c-4.7,0-7.1-3.6-7.1-10.4
			c0-10.4,4.4-18,10.9-18c4.9,0,7.3,3.8,7.3,10.4C435.8,179.3,431.4,186.6,424.7,186.6L424.7,186.6z"/>
		<path class="st4" d="M360.6,175.5c-1.3-0.2-1.8-0.2-2.7-0.2c-8,0-12,3.1-12,8c0,3.3,2,5.6,5.1,5.6
			C357.7,188.8,360.4,183.3,360.6,175.5L360.6,175.5z M371.7,199.3h-12.2l0.4-5.5c-3.1,4.2-7.3,6.4-14.7,6.4
			c-6.9,0-12.9-5.8-12.9-14.7c0-12.7,9.5-20.4,24.6-20.4c1.6,0,4,0,6,0.2c0.4-1.8,0.7-2.4,0.7-3.6c0-3.6-2.9-4.7-9.5-4.7
			c-3.8,0-8.4,0.7-11.5,1.8l-1.8,0.4l-0.9,0.2l2-12c6.4-2,11.1-2.9,16.2-2.9c12,0,18.2,5.6,18.2,15.8c0,2.7,0.4,4.7-0.7,10.4
			l-2.9,19.1l-0.4,3.3l-0.4,2.7l-0.2,1.8V199.3L371.7,199.3z"/>
		<path class="st4" d="M181,157.3c2.7,0,6.4,0.2,10.4,0.9l2-12.4c-4-0.4-9.3-1.1-12.4-1.1c-15.5,0-20.6,8.4-20.6,18.2
			c0,6.4,2.9,11.1,10.4,14.7c5.5,2.7,6.4,3.1,6.4,5.6c0,3.3-2.9,5.3-8.2,5.3c-4.2,0-8.2-0.7-12.7-2.2l-1.6,12.2l0.2,0.2l2.7,0.4
			c0.9,0.2,2,0.4,3.6,0.7c3.3,0.2,6.2,0.4,8,0.4c15.5,0,22-6,22-17.8c0-7.3-3.6-11.8-10.4-14.9c-6-2.7-6.7-3.1-6.7-5.5
			C174.1,159.5,176.8,157.3,181,157.3L181,157.3z"/>
		<path class="st3" d="M342.6,131.5l-2.4,14.2c-4.9-2.4-8.4-3.6-12.4-3.6c-10.4,0-17.8,10.2-17.8,24.6c0,10,4.9,16,13.1,16
			c3.3,0,7.3-1.1,11.8-3.3l-2.4,14.9c-5.1,1.3-8.4,2-12.2,2c-15.1,0-24.4-10.9-24.4-28.4c0-23.3,12.9-39.7,31.3-39.7
			c2.4,0,4.7,0.2,6.4,0.7l5.5,1.3C340.8,130.9,341.3,131.1,342.6,131.5L342.6,131.5z"/>
		<path class="st3" d="M297.8,141.3c-0.4,0-0.9,0-1.3,0c-4.7,0-7.3,2.2-11.5,8.7l1.3-8.2h-12.7l-8.7,53.3h14
			c5.1-32.6,6.4-38.2,13.1-38.2c0.4,0,0.4,0,0.9,0c1.3-6.4,3.1-11.1,5.3-15.3L297.8,141.3L297.8,141.3z"/>
		<path class="st3" d="M217.4,194.4c-3.8,1.3-6.9,1.8-10,1.8c-7.1,0-11.1-4-11.1-11.8c0-1.3,0.2-3.1,0.4-4.7l0.9-5.3l0.7-4.2l6-36.4
			h13.8l-1.6,8h7.1l-1.8,13.1h-7.1l-3.8,22.2c-0.2,0.9-0.2,1.6-0.2,2.2c0,2.7,1.3,3.8,4.7,3.8c1.6,0,2.9,0,3.8-0.4L217.4,194.4
			L217.4,194.4z"/>
		<path class="st3" d="M163.9,158.6c0,6.7,3.1,11.3,10.4,14.9c5.8,2.7,6.7,3.6,6.7,5.8c0,3.3-2.4,4.9-8,4.9c-4.2,0-8-0.7-12.4-2
			l-2,12.2l0.7,0.2l2.4,0.4c0.9,0.2,2,0.4,3.8,0.4c3.1,0.4,5.8,0.4,7.5,0.4c14.7,0,21.5-5.6,21.5-17.8c0-7.3-2.9-11.5-9.8-14.9
			c-6-2.7-6.7-3.3-6.7-5.8c0-2.9,2.4-4.2,6.9-4.2c2.7,0,6.4,0.2,10,0.7l2-12.2c-3.6-0.7-9.1-1.1-12.2-1.1
			C169.2,140.6,163.7,148.9,163.9,158.6L163.9,158.6z"/>
		<path class="st3" d="M448.9,195h-13.1l0.7-5.1c-3.8,4-7.8,5.8-12.9,5.8c-10.2,0-16.9-8.7-16.9-22c0-17.8,10.4-32.9,22.6-32.9
			c5.5,0,9.5,2.4,13.3,7.3l3.1-18.7h13.8L448.9,195L448.9,195z M428.5,182.6c6.4,0,10.9-7.6,10.9-18c0-6.9-2.4-10.4-7.3-10.4
			c-6.2,0-10.9,7.3-10.9,17.8C421.2,179.1,423.6,182.6,428.5,182.6L428.5,182.6z"/>
		<path class="st3" d="M260,193.9c-4.9,1.6-9.3,2.2-14.4,2.2c-15.5,0-23.5-8.2-23.5-24c0-18.2,10.2-31.7,24.2-31.7
			c11.5,0,18.9,7.5,18.9,19.3c0,4-0.4,7.8-1.8,13.3h-27.5c-0.2,0.7-0.2,1.1-0.2,1.5c0,6.2,4.2,9.3,12.2,9.3c5.1,0,9.5-0.9,14.4-3.3
			L260,193.9L260,193.9z M252.2,162.2c0-1.1,0-2,0-2.7c0-4.4-2.4-6.9-6.7-6.9c-4.4,0-7.5,3.3-8.9,9.5H252.2L252.2,162.2z"/>
		<polygon class="st3" points="110.8,195 97.1,195 105.1,144.6 87.1,195 77.5,195 76.4,145.1 68,195 55.1,195 66,129.5 86,129.5 
			86.6,170.2 99.9,129.5 121.7,129.5 		"/>
		<path class="st3" d="M145.2,171.3c-1.3,0-2-0.2-3.1-0.2c-7.8,0-11.8,2.9-11.8,8.2c0,3.3,1.8,5.3,4.9,5.3
			C141,184.6,145,179.3,145.2,171.3L145.2,171.3z M155.4,195h-11.5l0.2-5.6c-3.6,4.4-8.2,6.4-14.7,6.4c-7.5,0-12.7-5.8-12.7-14.4
			c0-13.1,8.9-20.6,24.4-20.6c1.6,0,3.6,0.2,5.8,0.4c0.4-1.8,0.4-2.4,0.4-3.3c0-3.6-2.4-4.9-8.9-4.9c-4,0-8.4,0.4-11.5,1.3l-2,0.7
			l-1.3,0.2l2-12c6.9-2,11.5-2.7,16.6-2.7c12,0,18.4,5.3,18.4,15.5c0,2.7-0.2,4.7-1.1,10.7l-3.1,18.9l-0.4,3.3l-0.2,2.7l-0.2,2
			L155.4,195L155.4,195z"/>
		<path class="st3" d="M365,171.3c-1.6,0-2.2-0.2-3.1-0.2c-8,0-12,2.9-12,8.2c0,3.3,2,5.3,5.1,5.3
			C360.6,184.6,364.8,179.3,365,171.3L365,171.3z M375.2,195h-11.5l0.2-5.6c-3.6,4.4-8.2,6.4-14.6,6.4c-7.5,0-12.7-5.8-12.7-14.4
			c0-13.1,8.9-20.6,24.4-20.6c1.6,0,3.6,0.2,5.6,0.4c0.4-1.8,0.7-2.4,0.7-3.3c0-3.6-2.4-4.9-8.9-4.9c-4,0-8.7,0.4-11.8,1.3l-1.8,0.7
			l-1.3,0.2l2-12c6.9-2,11.5-2.7,16.6-2.7c12,0,18.2,5.3,18.2,15.5c0,2.7,0,4.7-1.1,10.7l-2.9,18.9l-0.4,3.3l-0.4,2.7l-0.2,2
			L375.2,195L375.2,195z"/>
		<path class="st3" d="M412.5,141.3c-0.4,0-0.9,0-1.3,0c-4.7,0-7.3,2.2-11.5,8.7l1.3-8.2h-12.7l-8.4,53.3h13.8
			c5.1-32.6,6.4-38.2,13.1-38.2c0.4,0,0.4,0,0.9,0c1.3-6.4,3.1-11.1,5.3-15.3L412.5,141.3L412.5,141.3z"/>
	</g>
</g>
</svg>
