<?xml version="1.0" encoding="utf-8"?>
<!-- Generator: Adobe Illustrator 22.1.0, SVG Export Plug-In . SVG Version: 6.00 Build 0)  -->
<svg version="1.1" id="Layer_1" xmlns="http://www.w3.org/2000/svg" xmlns:xlink="http://www.w3.org/1999/xlink" x="0px" y="0px"
	 viewBox="0 0 512 319.2" style="enable-background:new 0 0 512 319.2;" xml:space="preserve">
<style type="text/css">
	.st0{fill:#005098;}
	.st1{fill:#F6A500;}
</style>
<g>
	<g>
		<path class="st0" d="M482.7,6c13.9,0,25.1,11.3,25.1,25.1V289c0,13.9-11.3,25.1-25.1,25.1H31c-13.9,0-25.1-11.3-25.1-25.1V31.1
			C5.9,17.3,17.1,6,31,6L482.7,6 M482.7,1H31C14.4,1,0.9,14.5,0.9,31.1V289c0,16.6,13.5,30.1,30.1,30.1h451.7
			c16.6,0,30.1-13.5,30.1-30.1V31.1C512.8,14.5,499.4,1,482.7,1L482.7,1z"/>
	</g>
	<g>
		<polygon class="st0" points="190.9,223.9 212.5,96.8 247.2,96.8 225.5,223.9 		"/>
		<path class="st0" d="M351.1,100c-6.9-2.6-17.6-5.3-31-5.3c-34.2,0-58.3,17.2-58.5,41.9c-0.2,18.3,17.2,28.5,30.4,34.5
			c13.5,6.2,18,10.2,18,15.8c-0.1,8.5-10.8,12.4-20.7,12.4c-13.9,0-21.2-1.9-32.6-6.7l-4.5-2l-4.9,28.5c8.1,3.5,23,6.6,38.6,6.8
			c36.4,0,60-17,60.3-43.4c0.1-14.4-9.1-25.4-29.1-34.5c-12.1-5.9-19.5-9.8-19.5-15.8c0-5.3,6.3-10.9,19.8-10.9
			c11.3-0.2,19.5,2.3,25.9,4.9l3.1,1.5L351.1,100L351.1,100z"/>
		<path class="st0" d="M440,96.9h-26.8c-8.3,0-14.5,2.3-18.1,10.5L343.6,224H380c0,0,5.9-15.7,7.3-19.1c4,0,39.3,0.1,44.4,0.1
			c1,4.4,4.2,19,4.2,19H468L440,96.9L440,96.9z M397.2,178.9c2.9-7.3,13.8-35.5,13.8-35.5c-0.2,0.3,2.8-7.4,4.6-12.1l2.3,11
			c0,0,6.6,30.3,8,36.7H397.2L397.2,178.9z"/>
		<path class="st0" d="M161.8,96.9l-33.9,86.7l-3.6-17.6c-6.3-20.3-26-42.3-48-53.3l31,111.1l36.6,0l54.5-126.8L161.8,96.9
			L161.8,96.9z"/>
		<path class="st1" d="M96.5,96.8H40.6l-0.4,2.6c43.5,10.5,72.2,35.9,84.1,66.5l-12.1-58.4C110.1,99.5,104,97.1,96.5,96.8L96.5,96.8
			z"/>
	</g>
</g>
</svg>
