<svg id="Layer_1" data-name="Layer 1" xmlns="http://www.w3.org/2000/svg" viewBox="0 0 511.9 318.1"><defs><style>.cls-1{fill:#005098;}.cls-2{fill:#f6a500;}</style></defs><path class="cls-1" d="M482.7,6a25.12,25.12,0,0,1,25.1,25.1V289a25.12,25.12,0,0,1-25.1,25.1H31A25.12,25.12,0,0,1,5.9,289V31.1A25.12,25.12,0,0,1,31,6H482.7m0-5H31A30.13,30.13,0,0,0,.9,31.1V289A30.13,30.13,0,0,0,31,319.1H482.7A30.13,30.13,0,0,0,512.8,289V31.1A30.07,30.07,0,0,0,482.7,1Z" transform="translate(-0.9 -1)"/><polygon class="cls-1" points="190 222.9 211.6 95.8 246.3 95.8 224.6 222.9 190 222.9"/><path class="cls-1" d="M351.1,100a89,89,0,0,0-31-5.3c-34.2,0-58.3,17.2-58.5,41.9-.2,18.3,17.2,28.5,30.4,34.5,13.5,6.2,18,10.2,18,15.8-.1,8.5-10.8,12.4-20.7,12.4-13.9,0-21.2-1.9-32.6-6.7l-4.5-2-4.9,28.5c8.1,3.5,23,6.6,38.6,6.8,36.4,0,60-17,60.3-43.4.1-14.4-9.1-25.4-29.1-34.5-12.1-5.9-19.5-9.8-19.5-15.8,0-5.3,6.3-10.9,19.8-10.9a63,63,0,0,1,25.9,4.9l3.1,1.5,4.7-27.7Z" transform="translate(-0.9 -1)"/><path class="cls-1" d="M440,96.9H413.2c-8.3,0-14.5,2.3-18.1,10.5L343.6,224H380s5.9-15.7,7.3-19.1c4,0,39.3.1,44.4.1,1,4.4,4.2,19,4.2,19H468L440,96.9Zm-42.8,82c2.9-7.3,13.8-35.5,13.8-35.5-.2.3,2.8-7.4,4.6-12.1l2.3,11s6.6,30.3,8,36.7H397.2Z" transform="translate(-0.9 -1)"/><path class="cls-1" d="M161.8,96.9l-33.9,86.7L124.3,166c-6.3-20.3-26-42.3-48-53.3l31,111.1h36.6L198.4,97l-36.6-.1Z" transform="translate(-0.9 -1)"/><path class="cls-2" d="M96.5,96.8H40.6l-.4,2.6c43.5,10.5,72.2,35.9,84.1,66.5l-12.1-58.4c-2.1-8-8.2-10.4-15.7-10.7Z" transform="translate(-0.9 -1)"/></svg>