<?xml version="1.0" encoding="utf-8"?>
<!-- Generator: Adobe Illustrator 22.1.0, SVG Export Plug-In . SVG Version: 6.00 Build 0)  -->
<svg version="1.1" id="Layer_1" xmlns="http://www.w3.org/2000/svg" xmlns:xlink="http://www.w3.org/1999/xlink" x="0px" y="0px"
	 viewBox="0 0 199.1 94.2" style="enable-background:new 0 0 199.1 94.2;" xml:space="preserve">
<style type="text/css">
	.st0{fill:#FFFFFF;}
	.st1{fill:none;stroke:#D5D5D5;stroke-width:0.5;}
	.st2{fill:#2B2B2B;}
	.st3{clip-path:url(#SVGID_2_);fill:none;stroke:#2B2B2B;stroke-width:0.5;}
	.st4{clip-path:url(#SVGID_4_);fill:none;stroke:#2B2B2B;stroke-width:0.5;}
	.st5{clip-path:url(#SVGID_6_);fill:none;stroke:#2B2B2B;stroke-width:0.5;}
	.st6{fill:#D2D2D2;}
	.st7{fill:#0E2431;}
	.st8{fill:#333333;}
	.st9{fill:#C18F8C;}
	.st10{clip-path:url(#SVGID_8_);fill:none;stroke:#2B2B2B;stroke-width:0.5;}
	.st11{clip-path:url(#SVGID_10_);fill:none;stroke:#2B2B2B;stroke-width:0.5;}
	.st12{clip-path:url(#SVGID_12_);fill:none;stroke:#2B2B2B;stroke-width:0.5;}
	.st13{fill:#8FA9C1;}
</style>
<g>
	<path class="st0" d="M234.9,86.8v-91c0-0.2,0.1-0.4,0.2-0.5s0.3-0.2,0.5-0.2h196c0.2,0,0.4,0.1,0.5,0.2s0.2,0.3,0.2,0.5v91
		c0,0.2-0.1,0.4-0.2,0.5c-0.1,0.1-0.3,0.2-0.5,0.2h-196c-0.2,0-0.4-0.1-0.5-0.2C235,87.1,234.9,87,234.9,86.8z"/>
	<path class="st1" d="M234.9,86.8v-91c0-0.2,0.1-0.4,0.2-0.5s0.3-0.2,0.5-0.2h196c0.2,0,0.4,0.1,0.5,0.2s0.2,0.3,0.2,0.5v91
		c0,0.2-0.1,0.4-0.2,0.5c-0.1,0.1-0.3,0.2-0.5,0.2h-196c-0.2,0-0.4-0.1-0.5-0.2C235,87.1,234.9,87,234.9,86.8z"/>
	<g>
		<path class="st2" d="M387.7,53.8l1.1-4.1h0.4l-1.1,4.1H387.7z"/>
		<path class="st2" d="M391.3,53.8h-0.5v-3.1c-0.1,0.1-0.3,0.2-0.5,0.3c-0.2,0.1-0.4,0.2-0.5,0.2v-0.5c0.3-0.1,0.5-0.3,0.7-0.5
			s0.3-0.4,0.4-0.5h0.3V53.8z"/>
		<path class="st2" d="M392.5,51.8c0-0.5,0-0.8,0.1-1.1s0.2-0.5,0.4-0.7c0.2-0.2,0.4-0.2,0.7-0.2c0.2,0,0.4,0,0.6,0.1
			c0.2,0.1,0.3,0.2,0.4,0.4c0.1,0.2,0.2,0.4,0.2,0.6c0.1,0.2,0.1,0.5,0.1,0.9c0,0.5,0,0.8-0.1,1.1s-0.2,0.5-0.4,0.7
			c-0.2,0.2-0.4,0.2-0.7,0.2c-0.4,0-0.7-0.1-0.9-0.4C392.7,53.1,392.5,52.5,392.5,51.8z M393,51.8c0,0.6,0.1,1.1,0.2,1.3
			s0.3,0.3,0.6,0.3c0.2,0,0.4-0.1,0.6-0.3s0.2-0.6,0.2-1.3c0-0.6-0.1-1.1-0.2-1.3s-0.3-0.3-0.6-0.3c-0.2,0-0.4,0.1-0.5,0.3
			C393.1,50.7,393,51.2,393,51.8z"/>
		<path class="st2" d="M395.6,51.8c0-0.5,0-0.8,0.1-1.1s0.2-0.5,0.4-0.7c0.2-0.2,0.4-0.2,0.7-0.2c0.2,0,0.4,0,0.6,0.1
			c0.2,0.1,0.3,0.2,0.4,0.4c0.1,0.2,0.2,0.4,0.2,0.6c0.1,0.2,0.1,0.5,0.1,0.9c0,0.5,0,0.8-0.1,1.1s-0.2,0.5-0.4,0.7
			c-0.2,0.2-0.4,0.2-0.7,0.2c-0.4,0-0.7-0.1-0.9-0.4C395.7,53.1,395.6,52.5,395.6,51.8z M396.1,51.8c0,0.6,0.1,1.1,0.2,1.3
			s0.3,0.3,0.6,0.3c0.2,0,0.4-0.1,0.6-0.3s0.2-0.6,0.2-1.3c0-0.6-0.1-1.1-0.2-1.3s-0.3-0.3-0.6-0.3c-0.2,0-0.4,0.1-0.5,0.3
			C396.2,50.7,396.1,51.2,396.1,51.8z"/>
		<path class="st2" d="M400.4,53.8v-3.9h1.4c0.3,0,0.5,0,0.7,0.1c0.2,0.1,0.4,0.1,0.6,0.3c0.2,0.2,0.4,0.4,0.5,0.7
			c0.1,0.3,0.2,0.6,0.2,0.9c0,0.3,0,0.6-0.1,0.8c-0.1,0.2-0.2,0.4-0.3,0.6s-0.2,0.3-0.4,0.4s-0.3,0.2-0.5,0.2
			c-0.2,0-0.4,0.1-0.6,0.1H400.4z M400.9,53.3h0.8c0.3,0,0.5,0,0.6-0.1c0.1,0,0.3-0.1,0.4-0.2c0.1-0.1,0.2-0.3,0.3-0.5
			c0.1-0.2,0.1-0.5,0.1-0.8c0-0.4-0.1-0.7-0.2-0.9c-0.1-0.2-0.3-0.4-0.5-0.4c-0.1-0.1-0.4-0.1-0.7-0.1h-0.8V53.3z"/>
		<path class="st2" d="M404.2,51.8c0-0.7,0.2-1.2,0.5-1.5c0.4-0.4,0.8-0.6,1.4-0.6c0.4,0,0.7,0.1,1,0.3c0.3,0.2,0.5,0.4,0.7,0.7
			c0.2,0.3,0.2,0.7,0.2,1.1c0,0.4-0.1,0.8-0.2,1.1s-0.4,0.6-0.7,0.7c-0.3,0.2-0.6,0.2-1,0.2c-0.4,0-0.7-0.1-1-0.3
			c-0.3-0.2-0.5-0.4-0.7-0.7S404.2,52.2,404.2,51.8z M404.7,51.8c0,0.5,0.1,0.8,0.4,1.1s0.6,0.4,1,0.4c0.4,0,0.7-0.1,1-0.4
			c0.3-0.3,0.4-0.7,0.4-1.2c0-0.3-0.1-0.6-0.2-0.8c-0.1-0.2-0.3-0.4-0.5-0.6c-0.2-0.1-0.4-0.2-0.7-0.2c-0.4,0-0.7,0.1-1,0.4
			C404.9,50.8,404.7,51.2,404.7,51.8z"/>
		<path class="st2" d="M408.6,53.8v-3.9h0.5v3.5h1.9v0.5H408.6z"/>
		<path class="st2" d="M411.7,53.8v-3.9h0.5v3.5h1.9v0.5H411.7z"/>
		<path class="st2" d="M414.3,53.8l1.5-3.9h0.6l1.6,3.9h-0.6l-0.5-1.2h-1.6l-0.4,1.2H414.3z M415.5,52.1h1.3l-0.4-1.1
			c-0.1-0.3-0.2-0.6-0.3-0.8c0,0.3-0.1,0.5-0.2,0.8L415.5,52.1z"/>
		<path class="st2" d="M418.4,53.8v-3.9h1.7c0.4,0,0.6,0,0.8,0.1s0.3,0.2,0.4,0.4c0.1,0.2,0.2,0.4,0.2,0.6c0,0.3-0.1,0.5-0.3,0.7
			c-0.2,0.2-0.5,0.3-0.8,0.4c0.1,0.1,0.2,0.1,0.3,0.2c0.2,0.1,0.3,0.3,0.4,0.5l0.7,1.1h-0.7l-0.5-0.8c-0.2-0.2-0.3-0.4-0.4-0.5
			c-0.1-0.1-0.2-0.2-0.3-0.3c-0.1-0.1-0.2-0.1-0.2-0.1c-0.1,0-0.2,0-0.3,0h-0.6v1.7H418.4z M418.9,51.6h1.1c0.2,0,0.4,0,0.6-0.1
			c0.1,0,0.2-0.1,0.3-0.2c0.1-0.1,0.1-0.2,0.1-0.4c0-0.2-0.1-0.3-0.2-0.5c-0.1-0.1-0.3-0.2-0.6-0.2h-1.2V51.6z"/>
		<path class="st2" d="M422.2,52.5l0.5,0c0,0.2,0.1,0.4,0.2,0.5c0.1,0.1,0.2,0.2,0.4,0.3c0.2,0.1,0.4,0.1,0.6,0.1
			c0.2,0,0.4,0,0.5-0.1s0.3-0.1,0.3-0.2s0.1-0.2,0.1-0.3c0-0.1,0-0.2-0.1-0.3s-0.2-0.2-0.4-0.2c-0.1,0-0.3-0.1-0.7-0.2
			c-0.4-0.1-0.6-0.2-0.8-0.2c-0.2-0.1-0.3-0.2-0.4-0.4c-0.1-0.1-0.1-0.3-0.1-0.5c0-0.2,0.1-0.4,0.2-0.6c0.1-0.2,0.3-0.3,0.5-0.4
			c0.2-0.1,0.5-0.1,0.7-0.1c0.3,0,0.5,0,0.8,0.1c0.2,0.1,0.4,0.2,0.5,0.4s0.2,0.4,0.2,0.6l-0.5,0c0-0.2-0.1-0.4-0.3-0.6
			c-0.2-0.1-0.4-0.2-0.7-0.2c-0.3,0-0.5,0.1-0.7,0.2c-0.1,0.1-0.2,0.3-0.2,0.4c0,0.1,0.1,0.3,0.2,0.3c0.1,0.1,0.4,0.2,0.8,0.3
			c0.4,0.1,0.7,0.2,0.9,0.3c0.2,0.1,0.4,0.2,0.5,0.4c0.1,0.2,0.2,0.3,0.2,0.6c0,0.2-0.1,0.4-0.2,0.6c-0.1,0.2-0.3,0.3-0.5,0.4
			s-0.5,0.2-0.8,0.2c-0.4,0-0.7-0.1-0.9-0.2c-0.2-0.1-0.4-0.3-0.6-0.5C422.3,53,422.2,52.7,422.2,52.5z"/>
	</g>
</g>
<g>
	<defs>
		<rect id="SVGID_1_" x="241.7" y="54.8" width="144.5" height="1"/>
	</defs>
	<clipPath id="SVGID_2_">
		<use xlink:href="#SVGID_1_"  style="overflow:visible;"/>
	</clipPath>
	<line class="st3" x1="241.7" y1="55" x2="385.7" y2="55"/>
</g>
<g>
	<defs>
		<rect id="SVGID_3_" x="271.7" y="39.3" width="153" height="1"/>
	</defs>
	<clipPath id="SVGID_4_">
		<use xlink:href="#SVGID_3_"  style="overflow:visible;"/>
	</clipPath>
	<line class="st4" x1="271.7" y1="39.5" x2="424.2" y2="39.5"/>
</g>
<g>
	<g>
		<path class="st2" d="M242.1,31.8v-3.9h1.5c0.3,0,0.5,0,0.6,0c0.2,0,0.4,0.1,0.5,0.2s0.2,0.2,0.3,0.4c0.1,0.2,0.1,0.3,0.1,0.5
			c0,0.3-0.1,0.6-0.3,0.9c-0.2,0.2-0.6,0.3-1.2,0.3h-1v1.6H242.1z M242.6,29.7h1c0.3,0,0.6-0.1,0.7-0.2c0.1-0.1,0.2-0.3,0.2-0.5
			c0-0.2,0-0.3-0.1-0.4s-0.2-0.2-0.3-0.2c-0.1,0-0.3,0-0.5,0h-1V29.7z"/>
	</g>
	<g>
		<path class="st2" d="M244.9,31.8l1.5-3.9h0.6l1.6,3.9H248l-0.5-1.2h-1.6l-0.4,1.2H244.9z M246.1,30.1h1.3L247,29
			c-0.1-0.3-0.2-0.6-0.3-0.8c0,0.3-0.1,0.5-0.2,0.8L246.1,30.1z"/>
	</g>
	<g>
		<path class="st2" d="M249.7,31.8v-1.7l-1.5-2.3h0.6l0.8,1.2c0.1,0.2,0.3,0.4,0.4,0.7c0.1-0.2,0.3-0.4,0.4-0.7l0.8-1.2h0.6
			l-1.6,2.3v1.7H249.7z"/>
	</g>
	<g>
	</g>
	<g>
		<path class="st2" d="M254.6,31.8v-3.5h-1.3v-0.5h3.1v0.5h-1.3v3.5H254.6z"/>
	</g>
	<g>
		<path class="st2" d="M256.7,29.8c0-0.7,0.2-1.2,0.5-1.5c0.4-0.4,0.8-0.6,1.4-0.6c0.4,0,0.7,0.1,1,0.3c0.3,0.2,0.5,0.4,0.7,0.7
			c0.2,0.3,0.2,0.7,0.2,1.1c0,0.4-0.1,0.8-0.2,1.1s-0.4,0.6-0.7,0.7c-0.3,0.2-0.6,0.2-1,0.2c-0.4,0-0.7-0.1-1-0.3
			c-0.3-0.2-0.5-0.4-0.7-0.7S256.7,30.2,256.7,29.8z M257.3,29.8c0,0.5,0.1,0.8,0.4,1.1s0.6,0.4,1,0.4c0.4,0,0.7-0.1,1-0.4
			c0.3-0.3,0.4-0.7,0.4-1.2c0-0.3-0.1-0.6-0.2-0.8c-0.1-0.2-0.3-0.4-0.5-0.6c-0.2-0.1-0.4-0.2-0.7-0.2c-0.4,0-0.7,0.1-1,0.4
			C257.4,28.8,257.3,29.2,257.3,29.8z"/>
	</g>
	<g>
		<path class="st2" d="M263.6,31.8v-3.5h-1.3v-0.5h3.1v0.5h-1.3v3.5H263.6z"/>
		<path class="st2" d="M266,31.8v-3.9h0.5v1.6h2v-1.6h0.5v3.9h-0.5v-1.9h-2v1.9H266z"/>
		<path class="st2" d="M269.9,31.8v-3.9h2.8v0.5h-2.3v1.2h2.2v0.5h-2.2v1.3h2.4v0.5H269.9z"/>
	</g>
	<g>
		<path class="st2" d="M241.9,35.8c0-0.7,0.2-1.2,0.5-1.5c0.4-0.4,0.8-0.6,1.4-0.6c0.4,0,0.7,0.1,1,0.3c0.3,0.2,0.5,0.4,0.7,0.7
			c0.2,0.3,0.2,0.7,0.2,1.1c0,0.4-0.1,0.8-0.2,1.1s-0.4,0.6-0.7,0.7c-0.3,0.2-0.6,0.2-1,0.2c-0.4,0-0.7-0.1-1-0.3
			c-0.3-0.2-0.5-0.4-0.7-0.7S241.9,36.2,241.9,35.8z M242.5,35.8c0,0.5,0.1,0.8,0.4,1.1s0.6,0.4,1,0.4c0.4,0,0.7-0.1,1-0.4
			c0.3-0.3,0.4-0.7,0.4-1.2c0-0.3-0.1-0.6-0.2-0.8c-0.1-0.2-0.3-0.4-0.5-0.6c-0.2-0.1-0.4-0.2-0.7-0.2c-0.4,0-0.7,0.1-1,0.4
			C242.6,34.8,242.5,35.2,242.5,35.8z"/>
		<path class="st2" d="M246.4,37.8v-3.9h1.7c0.4,0,0.6,0,0.8,0.1s0.3,0.2,0.4,0.4c0.1,0.2,0.2,0.4,0.2,0.6c0,0.3-0.1,0.5-0.3,0.7
			c-0.2,0.2-0.5,0.3-0.8,0.4c0.1,0.1,0.2,0.1,0.3,0.2c0.2,0.1,0.3,0.3,0.4,0.5l0.7,1.1h-0.7l-0.5-0.8c-0.2-0.2-0.3-0.4-0.4-0.5
			c-0.1-0.1-0.2-0.2-0.3-0.3c-0.1-0.1-0.2-0.1-0.2-0.1c-0.1,0-0.2,0-0.3,0h-0.6v1.7H246.4z M246.9,35.6h1.1c0.2,0,0.4,0,0.6-0.1
			c0.1,0,0.2-0.1,0.3-0.2c0.1-0.1,0.1-0.2,0.1-0.4c0-0.2-0.1-0.3-0.2-0.5c-0.1-0.1-0.3-0.2-0.6-0.2h-1.2V35.6z"/>
		<path class="st2" d="M250.4,37.8v-3.9h1.4c0.3,0,0.5,0,0.7,0.1c0.2,0.1,0.4,0.1,0.6,0.3c0.2,0.2,0.4,0.4,0.5,0.7
			c0.1,0.3,0.2,0.6,0.2,0.9c0,0.3,0,0.6-0.1,0.8c-0.1,0.2-0.2,0.4-0.3,0.6s-0.2,0.3-0.4,0.4s-0.3,0.2-0.5,0.2
			c-0.2,0-0.4,0.1-0.6,0.1H250.4z M250.9,37.3h0.8c0.3,0,0.5,0,0.6-0.1c0.1,0,0.3-0.1,0.4-0.2c0.1-0.1,0.2-0.3,0.3-0.5
			c0.1-0.2,0.1-0.5,0.1-0.8c0-0.4-0.1-0.7-0.2-0.9c-0.1-0.2-0.3-0.4-0.5-0.4c-0.1-0.1-0.4-0.1-0.7-0.1h-0.8V37.3z"/>
		<path class="st2" d="M254.3,37.8v-3.9h2.8v0.5h-2.3v1.2h2.2v0.5h-2.2v1.3h2.4v0.5H254.3z"/>
		<path class="st2" d="M258,37.8v-3.9h1.7c0.4,0,0.6,0,0.8,0.1s0.3,0.2,0.4,0.4c0.1,0.2,0.2,0.4,0.2,0.6c0,0.3-0.1,0.5-0.3,0.7
			c-0.2,0.2-0.5,0.3-0.8,0.4c0.1,0.1,0.2,0.1,0.3,0.2c0.2,0.1,0.3,0.3,0.4,0.5l0.7,1.1h-0.7l-0.5-0.8c-0.2-0.2-0.3-0.4-0.4-0.5
			c-0.1-0.1-0.2-0.2-0.3-0.3c-0.1-0.1-0.2-0.1-0.2-0.1c-0.1,0-0.2,0-0.3,0h-0.6v1.7H258z M258.5,35.6h1.1c0.2,0,0.4,0,0.6-0.1
			c0.1,0,0.2-0.1,0.3-0.2c0.1-0.1,0.1-0.2,0.1-0.4c0-0.2-0.1-0.3-0.2-0.5c-0.1-0.1-0.3-0.2-0.6-0.2h-1.2V35.6z"/>
		<path class="st2" d="M263.3,35.8c0-0.7,0.2-1.2,0.5-1.5c0.4-0.4,0.8-0.6,1.4-0.6c0.4,0,0.7,0.1,1,0.3c0.3,0.2,0.5,0.4,0.7,0.7
			c0.2,0.3,0.2,0.7,0.2,1.1c0,0.4-0.1,0.8-0.2,1.1s-0.4,0.6-0.7,0.7c-0.3,0.2-0.6,0.2-1,0.2c-0.4,0-0.7-0.1-1-0.3
			c-0.3-0.2-0.5-0.4-0.7-0.7S263.3,36.2,263.3,35.8z M263.9,35.8c0,0.5,0.1,0.8,0.4,1.1s0.6,0.4,1,0.4c0.4,0,0.7-0.1,1-0.4
			c0.3-0.3,0.4-0.7,0.4-1.2c0-0.3-0.1-0.6-0.2-0.8c-0.1-0.2-0.3-0.4-0.5-0.6c-0.2-0.1-0.4-0.2-0.7-0.2c-0.4,0-0.7,0.1-1,0.4
			C264,34.8,263.9,35.2,263.9,35.8z"/>
		<path class="st2" d="M267.8,37.8v-3.9h2.7v0.5h-2.1v1.2h1.8V36h-1.8v1.8H267.8z"/>
	</g>
</g>
<g>
	<defs>
		<rect id="SVGID_5_" x="370.2" y="7.3" width="54.5" height="1"/>
	</defs>
	<clipPath id="SVGID_6_">
		<use xlink:href="#SVGID_5_"  style="overflow:visible;"/>
	</clipPath>
	<line class="st5" x1="370.2" y1="7.5" x2="424.2" y2="7.5"/>
</g>
<g>
	<g>
		<path class="st2" d="M354.2,6.8V2.8h1.4c0.3,0,0.5,0,0.7,0.1c0.2,0.1,0.4,0.1,0.6,0.3c0.2,0.2,0.4,0.4,0.5,0.7
			c0.1,0.3,0.2,0.6,0.2,0.9c0,0.3,0,0.6-0.1,0.8c-0.1,0.2-0.2,0.4-0.3,0.6s-0.2,0.3-0.4,0.4s-0.3,0.2-0.5,0.2
			c-0.2,0-0.4,0.1-0.6,0.1H354.2z M354.7,6.3h0.8c0.3,0,0.5,0,0.6-0.1c0.1,0,0.3-0.1,0.4-0.2c0.1-0.1,0.2-0.3,0.3-0.5
			c0.1-0.2,0.1-0.5,0.1-0.8c0-0.4-0.1-0.7-0.2-0.9c-0.1-0.2-0.3-0.4-0.5-0.4c-0.1-0.1-0.4-0.1-0.7-0.1h-0.8V6.3z"/>
		<path class="st2" d="M357.8,6.8l1.5-3.9h0.6l1.6,3.9h-0.6l-0.5-1.2h-1.6l-0.4,1.2H357.8z M358.9,5.1h1.3L359.8,4
			c-0.1-0.3-0.2-0.6-0.3-0.8c0,0.3-0.1,0.5-0.2,0.8L358.9,5.1z"/>
	</g>
	<g>
		<path class="st2" d="M362.5,6.8V3.3h-1.3V2.8h3.1v0.5H363v3.5H362.5z"/>
		<path class="st2" d="M364.8,6.8V2.8h2.8v0.5h-2.3v1.2h2.2v0.5h-2.2v1.3h2.4v0.5H364.8z"/>
	</g>
	<rect x="241.7" y="1.8" class="st6" width="53.5" height="5.5"/>
	<rect x="241.7" y="8.8" class="st6" width="50.5" height="4.5"/>
	<rect x="241.7" y="14.8" class="st6" width="45" height="4.5"/>
	<path class="st7" d="M257.2,72.3v-8c0-0.2,0-0.4,0.1-0.6c0.1-0.2,0.2-0.3,0.3-0.5c0.1-0.1,0.3-0.2,0.5-0.3c0.2-0.1,0.4-0.1,0.6-0.1
		h45.5c0.2,0,0.4,0,0.6,0.1c0.2,0.1,0.3,0.2,0.5,0.3c0.1,0.1,0.2,0.3,0.3,0.5c0.1,0.2,0.1,0.4,0.1,0.6v8c0,0.2,0,0.4-0.1,0.6
		c-0.1,0.2-0.2,0.3-0.3,0.5c-0.1,0.1-0.3,0.2-0.5,0.3c-0.2,0.1-0.4,0.1-0.6,0.1h-45.5c-0.2,0-0.4,0-0.6-0.1
		c-0.2-0.1-0.3-0.2-0.5-0.3c-0.1-0.1-0.2-0.3-0.3-0.5C257.2,72.6,257.2,72.4,257.2,72.3z"/>
	<g>
		<path class="st7" d="M258.6,80.3v-3.6h1.5c0.4,0,0.7,0,0.8,0.1c0.2,0.1,0.3,0.2,0.4,0.3c0.1,0.2,0.2,0.4,0.2,0.6
			c0,0.3-0.1,0.5-0.2,0.7c-0.2,0.2-0.4,0.3-0.7,0.3c0.2,0.1,0.3,0.2,0.4,0.3s0.2,0.3,0.4,0.6l0.4,0.7H261l-0.5-0.8
			c-0.2-0.3-0.3-0.5-0.4-0.5c-0.1-0.1-0.1-0.1-0.2-0.1c-0.1,0-0.2,0-0.4,0h-0.1v1.5H258.6z M259.3,78.2h0.5c0.3,0,0.6,0,0.6,0
			c0.1,0,0.2-0.1,0.2-0.2s0.1-0.2,0.1-0.3c0-0.1,0-0.2-0.1-0.3c-0.1-0.1-0.2-0.1-0.3-0.1c-0.1,0-0.2,0-0.5,0h-0.6V78.2z"/>
		<path class="st7" d="M262.1,78.5c0-0.4,0.1-0.7,0.2-0.9c0.1-0.2,0.2-0.3,0.3-0.5s0.3-0.3,0.5-0.3c0.2-0.1,0.5-0.1,0.8-0.1
			c0.5,0,0.9,0.2,1.3,0.5s0.5,0.8,0.5,1.4c0,0.6-0.2,1-0.5,1.4c-0.3,0.3-0.7,0.5-1.3,0.5c-0.5,0-1-0.2-1.3-0.5
			S262.1,79.1,262.1,78.5z M262.8,78.5c0,0.4,0.1,0.7,0.3,0.9c0.2,0.2,0.4,0.3,0.7,0.3s0.5-0.1,0.7-0.3s0.3-0.5,0.3-0.9
			c0-0.4-0.1-0.7-0.3-0.9s-0.4-0.3-0.7-0.3s-0.5,0.1-0.7,0.3C262.9,77.7,262.8,78,262.8,78.5z"/>
		<path class="st7" d="M266.1,76.7h0.7v1.9c0,0.3,0,0.5,0,0.6c0,0.1,0.1,0.3,0.2,0.4c0.1,0.1,0.3,0.1,0.5,0.1c0.2,0,0.4,0,0.5-0.1
			c0.1-0.1,0.2-0.2,0.2-0.3c0-0.1,0-0.3,0-0.6v-2h0.7v1.9c0,0.4,0,0.7-0.1,0.9s-0.1,0.3-0.2,0.4c-0.1,0.1-0.2,0.2-0.4,0.3
			c-0.2,0.1-0.4,0.1-0.7,0.1c-0.3,0-0.6,0-0.8-0.1c-0.2-0.1-0.3-0.2-0.4-0.3c-0.1-0.1-0.2-0.3-0.2-0.4c0-0.2-0.1-0.5-0.1-0.9V76.7z"
			/>
		<path class="st7" d="M270.5,80.3v-3h-1.1v-0.6h2.8v0.6h-1.1v3H270.5z"/>
		<path class="st7" d="M272.7,80.3v-3.6h0.7v3.6H272.7z"/>
		<path class="st7" d="M274.2,80.3v-3.6h0.7l1.5,2.4v-2.4h0.7v3.6h-0.7l-1.4-2.3v2.3H274.2z"/>
		<path class="st7" d="M279.4,78.9v-0.6h1.6v1.4c-0.2,0.1-0.4,0.3-0.7,0.4c-0.3,0.1-0.6,0.2-0.9,0.2c-0.4,0-0.7-0.1-1-0.2
			c-0.3-0.2-0.5-0.4-0.6-0.7c-0.1-0.3-0.2-0.6-0.2-1c0-0.4,0.1-0.7,0.2-1s0.4-0.5,0.7-0.7c0.2-0.1,0.5-0.2,0.9-0.2
			c0.4,0,0.8,0.1,1,0.3c0.3,0.2,0.4,0.4,0.5,0.8l-0.7,0.1c-0.1-0.2-0.1-0.3-0.3-0.4c-0.1-0.1-0.3-0.2-0.5-0.2
			c-0.3,0-0.6,0.1-0.8,0.3s-0.3,0.5-0.3,0.9c0,0.4,0.1,0.7,0.3,1c0.2,0.2,0.4,0.3,0.7,0.3c0.2,0,0.3,0,0.5-0.1
			c0.2-0.1,0.3-0.1,0.4-0.2v-0.5H279.4z"/>
		<path class="st7" d="M283,80.3v-3.6h0.7l1.5,2.4v-2.4h0.7v3.6h-0.7l-1.4-2.3v2.3H283z"/>
		<path class="st7" d="M286.6,76.7h0.7v1.9c0,0.3,0,0.5,0,0.6c0,0.1,0.1,0.3,0.2,0.4c0.1,0.1,0.3,0.1,0.5,0.1c0.2,0,0.4,0,0.5-0.1
			c0.1-0.1,0.2-0.2,0.2-0.3c0-0.1,0-0.3,0-0.6v-2h0.7v1.9c0,0.4,0,0.7-0.1,0.9s-0.1,0.3-0.2,0.4c-0.1,0.1-0.2,0.2-0.4,0.3
			c-0.2,0.1-0.4,0.1-0.7,0.1c-0.3,0-0.6,0-0.8-0.1c-0.2-0.1-0.3-0.2-0.4-0.3c-0.1-0.1-0.2-0.3-0.2-0.4c0-0.2-0.1-0.5-0.1-0.9V76.7z"
			/>
		<path class="st7" d="M290.3,80.3v-3.6h1.1l0.6,2.4l0.6-2.4h1.1v3.6H293v-2.8l-0.7,2.8h-0.7l-0.7-2.8v2.8H290.3z"/>
		<path class="st7" d="M294.4,76.7h1.4c0.3,0,0.5,0,0.6,0c0.1,0,0.3,0.1,0.4,0.1c0.1,0.1,0.2,0.2,0.3,0.3s0.1,0.3,0.1,0.4
			c0,0.2,0,0.3-0.1,0.5c-0.1,0.1-0.2,0.2-0.4,0.3c0.2,0.1,0.4,0.2,0.5,0.3s0.2,0.3,0.2,0.5c0,0.2,0,0.3-0.1,0.5
			c-0.1,0.2-0.2,0.3-0.3,0.4c-0.1,0.1-0.3,0.1-0.5,0.2c-0.1,0-0.4,0-0.9,0h-1.2V76.7z M295.2,77.3v0.8h0.5c0.3,0,0.5,0,0.5,0
			c0.1,0,0.2-0.1,0.3-0.1c0.1-0.1,0.1-0.2,0.1-0.3c0-0.1,0-0.2-0.1-0.3c-0.1-0.1-0.2-0.1-0.3-0.1c-0.1,0-0.3,0-0.6,0H295.2z
			 M295.2,78.7v1h0.7c0.3,0,0.4,0,0.5,0c0.1,0,0.2-0.1,0.3-0.1s0.1-0.2,0.1-0.3c0-0.1,0-0.2-0.1-0.3s-0.1-0.1-0.2-0.2
			s-0.3-0.1-0.6-0.1H295.2z"/>
		<path class="st7" d="M298,80.3v-3.6h2.7v0.6h-1.9v0.8h1.8v0.6h-1.8v1h2v0.6H298z"/>
		<path class="st7" d="M301.4,80.3v-3.6h1.5c0.4,0,0.7,0,0.8,0.1c0.2,0.1,0.3,0.2,0.4,0.3c0.1,0.2,0.2,0.4,0.2,0.6
			c0,0.3-0.1,0.5-0.2,0.7c-0.2,0.2-0.4,0.3-0.7,0.3c0.2,0.1,0.3,0.2,0.4,0.3s0.2,0.3,0.4,0.6l0.4,0.7h-0.9l-0.5-0.8
			c-0.2-0.3-0.3-0.5-0.4-0.5c-0.1-0.1-0.1-0.1-0.2-0.1c-0.1,0-0.2,0-0.4,0h-0.1v1.5H301.4z M302.1,78.2h0.5c0.3,0,0.6,0,0.6,0
			c0.1,0,0.2-0.1,0.2-0.2s0.1-0.2,0.1-0.3c0-0.1,0-0.2-0.1-0.3c-0.1-0.1-0.2-0.1-0.3-0.1c-0.1,0-0.2,0-0.5,0h-0.6V78.2z"/>
	</g>
	<g>
		<path class="st8" d="M308.1,68.4c0-0.2,0.1-0.3,0.2-0.3s0.3-0.1,0.5-0.1c0.2,0,0.4,0,0.5,0.1s0.2,0.2,0.2,0.3v2.9
			c0,0.2-0.1,0.3-0.2,0.3s-0.3,0.1-0.5,0.1c-0.2,0-0.4,0-0.5-0.1s-0.2-0.2-0.2-0.3V68.4z M311.3,68.9c-0.2,0-0.4,0-0.4-0.1
			c-0.1-0.1-0.1-0.2-0.1-0.3v-1c0-0.2,0-0.3,0.1-0.3c0.1-0.1,0.2-0.1,0.4-0.1h0.6c0.1,0,0.2,0,0.3,0c0.1,0,0.1,0,0.2,0.1
			s0.1,0.1,0.1,0.1s0,0.1,0,0.2v1c0,0.1,0,0.1,0,0.2s0,0.1-0.1,0.1s-0.1,0.1-0.2,0.1c-0.1,0-0.2,0-0.3,0H311.3z M311.3,72.7
			c-0.2,0-0.4,0-0.4-0.1c-0.1-0.1-0.1-0.2-0.1-0.3v-1c0-0.2,0-0.3,0.1-0.3c0.1-0.1,0.2-0.1,0.4-0.1h0.6c0.1,0,0.2,0,0.3,0
			c0.1,0,0.1,0,0.2,0.1s0.1,0.1,0.1,0.1s0,0.1,0,0.2v1c0,0.1,0,0.1,0,0.2s0,0.1-0.1,0.1s-0.1,0.1-0.2,0.1c-0.1,0-0.2,0-0.3,0H311.3z
			"/>
	</g>
	<g>
		<path class="st8" d="M250.6,68.4c0-0.2,0.1-0.3,0.2-0.3s0.3-0.1,0.5-0.1c0.2,0,0.4,0,0.5,0.1s0.2,0.2,0.2,0.3v2.9
			c0,0.2-0.1,0.3-0.2,0.3s-0.3,0.1-0.5,0.1c-0.2,0-0.4,0-0.5-0.1s-0.2-0.2-0.2-0.3V68.4z M253.8,68.9c-0.2,0-0.4,0-0.4-0.1
			c-0.1-0.1-0.1-0.2-0.1-0.3v-1c0-0.2,0-0.3,0.1-0.3c0.1-0.1,0.2-0.1,0.4-0.1h0.6c0.1,0,0.2,0,0.3,0c0.1,0,0.1,0,0.2,0.1
			s0.1,0.1,0.1,0.1s0,0.1,0,0.2v1c0,0.1,0,0.1,0,0.2s0,0.1-0.1,0.1s-0.1,0.1-0.2,0.1c-0.1,0-0.2,0-0.3,0H253.8z M253.8,72.7
			c-0.2,0-0.4,0-0.4-0.1c-0.1-0.1-0.1-0.2-0.1-0.3v-1c0-0.2,0-0.3,0.1-0.3c0.1-0.1,0.2-0.1,0.4-0.1h0.6c0.1,0,0.2,0,0.3,0
			c0.1,0,0.1,0,0.2,0.1s0.1,0.1,0.1,0.1s0,0.1,0,0.2v1c0,0.1,0,0.1,0,0.2s0,0.1-0.1,0.1s-0.1,0.1-0.2,0.1c-0.1,0-0.2,0-0.3,0H253.8z
			"/>
	</g>
	<path class="st9" d="M368.2,72.8v-8c0-0.2,0-0.4,0.1-0.6c0.1-0.2,0.2-0.3,0.3-0.5c0.1-0.1,0.3-0.2,0.5-0.3c0.2-0.1,0.4-0.1,0.6-0.1
		h45.5c0.2,0,0.4,0,0.6,0.1c0.2,0.1,0.3,0.2,0.5,0.3c0.1,0.1,0.2,0.3,0.3,0.5c0.1,0.2,0.1,0.4,0.1,0.6v8c0,0.2,0,0.4-0.1,0.6
		c-0.1,0.2-0.2,0.3-0.3,0.5c-0.1,0.1-0.3,0.2-0.5,0.3c-0.2,0.1-0.4,0.1-0.6,0.1h-45.5c-0.2,0-0.4,0-0.6-0.1
		c-0.2-0.1-0.3-0.2-0.5-0.3c-0.1-0.1-0.2-0.3-0.3-0.5C368.2,73.1,368.2,72.9,368.2,72.8z"/>
	<g>
		<path class="st9" d="M371.9,80.8h-0.8l-0.3-0.8h-1.4l-0.3,0.8h-0.8l1.4-3.6h0.8L371.9,80.8z M370.5,79.3L370,78l-0.5,1.3H370.5z"
			/>
		<path class="st9" d="M374.5,79.4l0.7,0.2c-0.1,0.4-0.3,0.7-0.5,0.9c-0.3,0.2-0.6,0.3-1,0.3c-0.5,0-0.9-0.2-1.2-0.5
			c-0.3-0.3-0.5-0.8-0.5-1.3c0-0.6,0.2-1.1,0.5-1.4s0.7-0.5,1.2-0.5c0.4,0,0.8,0.1,1.1,0.4c0.2,0.2,0.3,0.4,0.4,0.7l-0.7,0.2
			c0-0.2-0.1-0.3-0.3-0.4c-0.1-0.1-0.3-0.2-0.5-0.2c-0.3,0-0.5,0.1-0.6,0.3s-0.2,0.5-0.2,0.9c0,0.5,0.1,0.8,0.2,1s0.4,0.3,0.6,0.3
			c0.2,0,0.4-0.1,0.5-0.2C374.4,79.9,374.5,79.7,374.5,79.4z"/>
		<path class="st9" d="M378.1,79.4l0.7,0.2c-0.1,0.4-0.3,0.7-0.5,0.9c-0.3,0.2-0.6,0.3-1,0.3c-0.5,0-0.9-0.2-1.2-0.5
			c-0.3-0.3-0.5-0.8-0.5-1.3c0-0.6,0.2-1.1,0.5-1.4s0.7-0.5,1.2-0.5c0.4,0,0.8,0.1,1.1,0.4c0.2,0.2,0.3,0.4,0.4,0.7l-0.7,0.2
			c0-0.2-0.1-0.3-0.3-0.4c-0.1-0.1-0.3-0.2-0.5-0.2c-0.3,0-0.5,0.1-0.6,0.3s-0.2,0.5-0.2,0.9c0,0.5,0.1,0.8,0.2,1s0.4,0.3,0.6,0.3
			c0.2,0,0.4-0.1,0.5-0.2C378,79.9,378.1,79.7,378.1,79.4z"/>
		<path class="st9" d="M379.3,79c0-0.4,0.1-0.7,0.2-0.9c0.1-0.2,0.2-0.3,0.3-0.5s0.3-0.3,0.5-0.3c0.2-0.1,0.5-0.1,0.8-0.1
			c0.5,0,0.9,0.2,1.3,0.5s0.5,0.8,0.5,1.4c0,0.6-0.2,1-0.5,1.4c-0.3,0.3-0.7,0.5-1.3,0.5c-0.5,0-1-0.2-1.3-0.5S379.3,79.6,379.3,79z
			 M380.1,79c0,0.4,0.1,0.7,0.3,0.9c0.2,0.2,0.4,0.3,0.7,0.3s0.5-0.1,0.7-0.3s0.3-0.5,0.3-0.9c0-0.4-0.1-0.7-0.3-0.9
			s-0.4-0.3-0.7-0.3s-0.5,0.1-0.7,0.3C380.1,78.2,380.1,78.5,380.1,79z"/>
		<path class="st9" d="M383.3,77.2h0.7v1.9c0,0.3,0,0.5,0,0.6c0,0.1,0.1,0.3,0.2,0.4c0.1,0.1,0.3,0.1,0.5,0.1c0.2,0,0.4,0,0.5-0.1
			c0.1-0.1,0.2-0.2,0.2-0.3c0-0.1,0-0.3,0-0.6v-2h0.7v1.9c0,0.4,0,0.7-0.1,0.9s-0.1,0.3-0.2,0.4c-0.1,0.1-0.2,0.2-0.4,0.3
			c-0.2,0.1-0.4,0.1-0.7,0.1c-0.3,0-0.6,0-0.8-0.1c-0.2-0.1-0.3-0.2-0.4-0.3c-0.1-0.1-0.2-0.3-0.2-0.4c0-0.2-0.1-0.5-0.1-0.9V77.2z"
			/>
		<path class="st9" d="M387,80.8v-3.6h0.7l1.5,2.4v-2.4h0.7v3.6h-0.7l-1.4-2.3v2.3H387z"/>
		<path class="st9" d="M391.4,80.8v-3h-1.1v-0.6h2.8v0.6h-1.1v3H391.4z"/>
		<path class="st9" d="M395,80.8v-3.6h0.7l1.5,2.4v-2.4h0.7v3.6h-0.7l-1.4-2.3v2.3H395z"/>
		<path class="st9" d="M398.6,77.2h0.7v1.9c0,0.3,0,0.5,0,0.6c0,0.1,0.1,0.3,0.2,0.4c0.1,0.1,0.3,0.1,0.5,0.1c0.2,0,0.4,0,0.5-0.1
			c0.1-0.1,0.2-0.2,0.2-0.3c0-0.1,0-0.3,0-0.6v-2h0.7v1.9c0,0.4,0,0.7-0.1,0.9s-0.1,0.3-0.2,0.4c-0.1,0.1-0.2,0.2-0.4,0.3
			c-0.2,0.1-0.4,0.1-0.7,0.1c-0.3,0-0.6,0-0.8-0.1c-0.2-0.1-0.3-0.2-0.4-0.3c-0.1-0.1-0.2-0.3-0.2-0.4c0-0.2-0.1-0.5-0.1-0.9V77.2z"
			/>
		<path class="st9" d="M402.2,80.8v-3.6h1.1l0.6,2.4l0.6-2.4h1.1v3.6H405v-2.8l-0.7,2.8h-0.7l-0.7-2.8v2.8H402.2z"/>
		<path class="st9" d="M406.4,77.2h1.4c0.3,0,0.5,0,0.6,0c0.1,0,0.3,0.1,0.4,0.1c0.1,0.1,0.2,0.2,0.3,0.3s0.1,0.3,0.1,0.4
			c0,0.2,0,0.3-0.1,0.5c-0.1,0.1-0.2,0.2-0.4,0.3c0.2,0.1,0.4,0.2,0.5,0.3s0.2,0.3,0.2,0.5c0,0.2,0,0.3-0.1,0.5
			c-0.1,0.2-0.2,0.3-0.3,0.4c-0.1,0.1-0.3,0.1-0.5,0.2c-0.1,0-0.4,0-0.9,0h-1.2V77.2z M407.1,77.8v0.8h0.5c0.3,0,0.5,0,0.5,0
			c0.1,0,0.2-0.1,0.3-0.1c0.1-0.1,0.1-0.2,0.1-0.3c0-0.1,0-0.2-0.1-0.3c-0.1-0.1-0.2-0.1-0.3-0.1c-0.1,0-0.3,0-0.6,0H407.1z
			 M407.1,79.2v1h0.7c0.3,0,0.4,0,0.5,0c0.1,0,0.2-0.1,0.3-0.1s0.1-0.2,0.1-0.3c0-0.1,0-0.2-0.1-0.3s-0.1-0.1-0.2-0.2
			s-0.3-0.1-0.6-0.1H407.1z"/>
		<path class="st9" d="M410,80.8v-3.6h2.7v0.6h-1.9v0.8h1.8v0.6h-1.8v1h2v0.6H410z"/>
		<path class="st9" d="M413.3,80.8v-3.6h1.5c0.4,0,0.7,0,0.8,0.1c0.2,0.1,0.3,0.2,0.4,0.3c0.1,0.2,0.2,0.4,0.2,0.6
			c0,0.3-0.1,0.5-0.2,0.7c-0.2,0.2-0.4,0.3-0.7,0.3c0.2,0.1,0.3,0.2,0.4,0.3s0.2,0.3,0.4,0.6l0.4,0.7h-0.9l-0.5-0.8
			c-0.2-0.3-0.3-0.5-0.4-0.5c-0.1-0.1-0.1-0.1-0.2-0.1c-0.1,0-0.2,0-0.4,0h-0.1v1.5H413.3z M414.1,78.7h0.5c0.3,0,0.6,0,0.6,0
			c0.1,0,0.2-0.1,0.2-0.2s0.1-0.2,0.1-0.3c0-0.1,0-0.2-0.1-0.3c-0.1-0.1-0.2-0.1-0.3-0.1c-0.1,0-0.2,0-0.5,0h-0.6V78.7z"/>
	</g>
	<path class="st6" d="M317.7,72.3v-7.5c0-0.2,0-0.4,0.1-0.6c0.1-0.2,0.2-0.3,0.3-0.5c0.1-0.1,0.3-0.2,0.5-0.3
		c0.2-0.1,0.4-0.1,0.6-0.1h34c0.2,0,0.4,0,0.6,0.1c0.2,0.1,0.3,0.2,0.5,0.3c0.1,0.1,0.2,0.3,0.3,0.5c0.1,0.2,0.1,0.4,0.1,0.6v7.5
		c0,0.2,0,0.4-0.1,0.6c-0.1,0.2-0.2,0.3-0.3,0.5c-0.1,0.1-0.3,0.2-0.5,0.3c-0.2,0.1-0.4,0.1-0.6,0.1h-34c-0.2,0-0.4,0-0.6-0.1
		c-0.2-0.1-0.3-0.2-0.5-0.3c-0.1-0.1-0.2-0.3-0.3-0.5C317.7,72.6,317.7,72.4,317.7,72.3z"/>
	<g>
		<path class="st6" d="M316.7,78.9l0.7,0.2c-0.1,0.4-0.3,0.7-0.5,0.9c-0.3,0.2-0.6,0.3-1,0.3c-0.5,0-0.9-0.2-1.2-0.5
			c-0.3-0.3-0.5-0.8-0.5-1.3c0-0.6,0.2-1.1,0.5-1.4s0.7-0.5,1.2-0.5c0.4,0,0.8,0.1,1.1,0.4c0.2,0.2,0.3,0.4,0.4,0.7l-0.7,0.2
			c0-0.2-0.1-0.3-0.3-0.4c-0.1-0.1-0.3-0.2-0.5-0.2c-0.3,0-0.5,0.1-0.6,0.3S315,78,315,78.4c0,0.5,0.1,0.8,0.2,1s0.4,0.3,0.6,0.3
			c0.2,0,0.4-0.1,0.5-0.2C316.6,79.4,316.7,79.2,316.7,78.9z"/>
		<path class="st6" d="M318,80.3v-3.6h0.7v1.4h1.4v-1.4h0.7v3.6h-0.7v-1.6h-1.4v1.6H318z"/>
		<path class="st6" d="M321.7,80.3v-3.6h2.7v0.6h-1.9v0.8h1.8v0.6h-1.8v1h2v0.6H321.7z"/>
		<path class="st6" d="M327.9,79.8c0.2,0.1,0.4,0.2,0.6,0.3l-0.3,0.5c-0.1,0-0.2-0.1-0.3-0.1c0,0-0.2-0.1-0.5-0.3
			c-0.2,0.1-0.5,0.2-0.8,0.2c-0.5,0-1-0.2-1.3-0.5s-0.5-0.8-0.5-1.4c0-0.6,0.2-1,0.5-1.4s0.7-0.5,1.3-0.5c0.5,0,1,0.2,1.3,0.5
			c0.3,0.3,0.5,0.8,0.5,1.4c0,0.3,0,0.6-0.1,0.8C328.1,79.5,328,79.6,327.9,79.8z M327.3,79.4c0.1-0.1,0.2-0.2,0.2-0.4
			c0-0.2,0.1-0.3,0.1-0.5c0-0.4-0.1-0.7-0.3-0.9c-0.2-0.2-0.4-0.3-0.7-0.3s-0.5,0.1-0.7,0.3c-0.2,0.2-0.3,0.5-0.3,0.9
			c0,0.4,0.1,0.7,0.3,0.9c0.2,0.2,0.4,0.3,0.7,0.3c0.1,0,0.2,0,0.3-0.1c-0.1-0.1-0.3-0.2-0.4-0.2l0.2-0.4
			C326.8,79.1,327.1,79.2,327.3,79.4z"/>
		<path class="st6" d="M328.9,76.7h0.7v1.9c0,0.3,0,0.5,0,0.6c0,0.1,0.1,0.3,0.2,0.4c0.1,0.1,0.3,0.1,0.5,0.1c0.2,0,0.4,0,0.5-0.1
			c0.1-0.1,0.2-0.2,0.2-0.3c0-0.1,0-0.3,0-0.6v-2h0.7v1.9c0,0.4,0,0.7-0.1,0.9s-0.1,0.3-0.2,0.4c-0.1,0.1-0.2,0.2-0.4,0.3
			c-0.2,0.1-0.4,0.1-0.7,0.1c-0.3,0-0.6,0-0.8-0.1c-0.2-0.1-0.3-0.2-0.4-0.3c-0.1-0.1-0.2-0.3-0.2-0.4c0-0.2-0.1-0.5-0.1-0.9V76.7z"
			/>
		<path class="st6" d="M332.5,80.3v-3.6h2.7v0.6h-1.9v0.8h1.8v0.6h-1.8v1h2v0.6H332.5z"/>
		<path class="st6" d="M337.2,80.3v-3.6h0.7l1.5,2.4v-2.4h0.7v3.6h-0.7l-1.4-2.3v2.3H337.2z"/>
		<path class="st6" d="M340.8,76.7h0.7v1.9c0,0.3,0,0.5,0,0.6c0,0.1,0.1,0.3,0.2,0.4c0.1,0.1,0.3,0.1,0.5,0.1c0.2,0,0.4,0,0.5-0.1
			c0.1-0.1,0.2-0.2,0.2-0.3c0-0.1,0-0.3,0-0.6v-2h0.7v1.9c0,0.4,0,0.7-0.1,0.9s-0.1,0.3-0.2,0.4c-0.1,0.1-0.2,0.2-0.4,0.3
			c-0.2,0.1-0.4,0.1-0.7,0.1c-0.3,0-0.6,0-0.8-0.1c-0.2-0.1-0.3-0.2-0.4-0.3c-0.1-0.1-0.2-0.3-0.2-0.4c0-0.2-0.1-0.5-0.1-0.9V76.7z"
			/>
		<path class="st6" d="M344.4,80.3v-3.6h1.1l0.6,2.4l0.6-2.4h1.1v3.6h-0.7v-2.8l-0.7,2.8h-0.7l-0.7-2.8v2.8H344.4z"/>
		<path class="st6" d="M348.6,76.7h1.4c0.3,0,0.5,0,0.6,0c0.1,0,0.3,0.1,0.4,0.1c0.1,0.1,0.2,0.2,0.3,0.3s0.1,0.3,0.1,0.4
			c0,0.2,0,0.3-0.1,0.5c-0.1,0.1-0.2,0.2-0.4,0.3c0.2,0.1,0.4,0.2,0.5,0.3s0.2,0.3,0.2,0.5c0,0.2,0,0.3-0.1,0.5
			c-0.1,0.2-0.2,0.3-0.3,0.4c-0.1,0.1-0.3,0.1-0.5,0.2c-0.1,0-0.4,0-0.9,0h-1.2V76.7z M349.3,77.3v0.8h0.5c0.3,0,0.5,0,0.5,0
			c0.1,0,0.2-0.1,0.3-0.1c0.1-0.1,0.1-0.2,0.1-0.3c0-0.1,0-0.2-0.1-0.3c-0.1-0.1-0.2-0.1-0.3-0.1c-0.1,0-0.3,0-0.6,0H349.3z
			 M349.3,78.7v1h0.7c0.3,0,0.4,0,0.5,0c0.1,0,0.2-0.1,0.3-0.1s0.1-0.2,0.1-0.3c0-0.1,0-0.2-0.1-0.3s-0.1-0.1-0.2-0.2
			s-0.3-0.1-0.6-0.1H349.3z"/>
		<path class="st6" d="M352.2,80.3v-3.6h2.7v0.6h-1.9v0.8h1.8v0.6h-1.8v1h2v0.6H352.2z"/>
		<path class="st6" d="M355.5,80.3v-3.6h1.5c0.4,0,0.7,0,0.8,0.1c0.2,0.1,0.3,0.2,0.4,0.3c0.1,0.2,0.2,0.4,0.2,0.6
			c0,0.3-0.1,0.5-0.2,0.7c-0.2,0.2-0.4,0.3-0.7,0.3c0.2,0.1,0.3,0.2,0.4,0.3s0.2,0.3,0.4,0.6l0.4,0.7h-0.9l-0.5-0.8
			c-0.2-0.3-0.3-0.5-0.4-0.5c-0.1-0.1-0.1-0.1-0.2-0.1c-0.1,0-0.2,0-0.4,0h-0.1v1.5H355.5z M356.3,78.2h0.5c0.3,0,0.6,0,0.6,0
			c0.1,0,0.2-0.1,0.2-0.2s0.1-0.2,0.1-0.3c0-0.1,0-0.2-0.1-0.3c-0.1-0.1-0.2-0.1-0.3-0.1c-0.1,0-0.2,0-0.5,0h-0.6V78.2z"/>
	</g>
	<g>
		<path class="st8" d="M357.7,68.1c0-0.2,0-0.3,0.1-0.3c0.1-0.1,0.1-0.1,0.3-0.1c0.1,0,0.2,0,0.3,0.1c0.1,0.1,0.1,0.2,0.1,0.3v3
			c0,0.1,0,0.1,0,0.2c0,0.1,0,0.1-0.1,0.1c0,0-0.1,0-0.1,0.1s-0.1,0-0.2,0c-0.1,0-0.1,0-0.1,0s-0.1,0-0.1-0.1c0,0,0-0.1-0.1-0.1
			c0-0.1,0-0.1,0-0.2V68.1z M358.9,68.2c0-0.2,0-0.3,0.1-0.3c0.1-0.1,0.1-0.1,0.3-0.1c0.1,0,0.2,0,0.3,0.1c0.1,0.1,0.1,0.2,0.1,0.3
			v3c0,0.1,0,0.1,0,0.2c0,0.1,0,0.1-0.1,0.1c0,0-0.1,0-0.1,0.1s-0.1,0-0.2,0c-0.1,0-0.1,0-0.2,0s-0.1,0-0.1-0.1c0,0,0-0.1-0.1-0.1
			c0-0.1,0-0.1,0-0.2V68.2z M360.7,69.5c-0.2,0-0.4,0-0.4-0.1c-0.1-0.1-0.1-0.2-0.1-0.3v-1.7c0-0.2,0-0.3,0.1-0.3
			c0.1-0.1,0.2-0.1,0.4-0.1h0.6c0.1,0,0.2,0,0.3,0c0.1,0,0.1,0,0.2,0.1s0.1,0.1,0.1,0.1c0,0.1,0,0.1,0,0.2v1.7c0,0.1,0,0.1,0,0.2
			c0,0.1,0,0.1-0.1,0.1c0,0-0.1,0.1-0.2,0.1c-0.1,0-0.2,0-0.3,0H360.7z"/>
	</g>
</g>
<g>
	<defs>
		<rect id="SVGID_7_" x="8.5" y="60.6" width="144.5" height="1"/>
	</defs>
	<clipPath id="SVGID_8_">
		<use xlink:href="#SVGID_7_"  style="overflow:visible;"/>
	</clipPath>
	<line class="st10" x1="8.5" y1="60.9" x2="152.5" y2="60.9"/>
</g>
<g>
	<defs>
		<rect id="SVGID_9_" x="38.5" y="45.1" width="153" height="1"/>
	</defs>
	<clipPath id="SVGID_10_">
		<use xlink:href="#SVGID_9_"  style="overflow:visible;"/>
	</clipPath>
	<line class="st11" x1="38.5" y1="45.4" x2="191" y2="45.4"/>
</g>
<g>
	<g>
		<path class="st2" d="M8.9,37.6v-3.9h1.5c0.3,0,0.5,0,0.6,0c0.2,0,0.4,0.1,0.5,0.2s0.2,0.2,0.3,0.4c0.1,0.2,0.1,0.3,0.1,0.5
			c0,0.3-0.1,0.6-0.3,0.9C11.4,35.9,11,36,10.4,36h-1v1.6H8.9z M9.4,35.6h1c0.3,0,0.6-0.1,0.7-0.2c0.1-0.1,0.2-0.3,0.2-0.5
			c0-0.2,0-0.3-0.1-0.4s-0.2-0.2-0.3-0.2c-0.1,0-0.3,0-0.5,0h-1V35.6z"/>
	</g>
	<g>
		<path class="st2" d="M11.7,37.6l1.5-3.9h0.6l1.6,3.9h-0.6l-0.5-1.2h-1.6l-0.4,1.2H11.7z M12.9,36h1.3l-0.4-1.1
			c-0.1-0.3-0.2-0.6-0.3-0.8c0,0.3-0.1,0.5-0.2,0.8L12.9,36z"/>
	</g>
	<g>
		<path class="st2" d="M16.5,37.6V36L15,33.7h0.6l0.8,1.2c0.1,0.2,0.3,0.4,0.4,0.7c0.1-0.2,0.3-0.4,0.4-0.7l0.8-1.2h0.6L17,36v1.7
			H16.5z"/>
	</g>
	<g>
	</g>
	<g>
		<path class="st2" d="M21.4,37.6v-3.5h-1.3v-0.5h3.1v0.5h-1.3v3.5H21.4z"/>
	</g>
	<g>
		<path class="st2" d="M23.5,35.7c0-0.7,0.2-1.2,0.5-1.5c0.4-0.4,0.8-0.6,1.4-0.6c0.4,0,0.7,0.1,1,0.3c0.3,0.2,0.5,0.4,0.7,0.7
			c0.2,0.3,0.2,0.7,0.2,1.1c0,0.4-0.1,0.8-0.2,1.1s-0.4,0.6-0.7,0.7c-0.3,0.2-0.6,0.2-1,0.2c-0.4,0-0.7-0.1-1-0.3
			c-0.3-0.2-0.5-0.4-0.7-0.7S23.5,36.1,23.5,35.7z M24,35.7c0,0.5,0.1,0.8,0.4,1.1s0.6,0.4,1,0.4c0.4,0,0.7-0.1,1-0.4
			c0.3-0.3,0.4-0.7,0.4-1.2c0-0.3-0.1-0.6-0.2-0.8c-0.1-0.2-0.3-0.4-0.5-0.6c-0.2-0.1-0.4-0.2-0.7-0.2c-0.4,0-0.7,0.1-1,0.4
			C24.2,34.7,24,35.1,24,35.7z"/>
	</g>
	<g>
		<path class="st2" d="M30.4,37.6v-3.5h-1.3v-0.5h3.1v0.5h-1.3v3.5H30.4z"/>
		<path class="st2" d="M32.7,37.6v-3.9h0.5v1.6h2v-1.6h0.5v3.9h-0.5v-1.9h-2v1.9H32.7z"/>
		<path class="st2" d="M36.7,37.6v-3.9h2.8v0.5h-2.3v1.2h2.2v0.5h-2.2v1.3h2.4v0.5H36.7z"/>
	</g>
	<g>
		<path class="st2" d="M8.7,41.7c0-0.7,0.2-1.2,0.5-1.5c0.4-0.4,0.8-0.6,1.4-0.6c0.4,0,0.7,0.1,1,0.3c0.3,0.2,0.5,0.4,0.7,0.7
			c0.2,0.3,0.2,0.7,0.2,1.1c0,0.4-0.1,0.8-0.2,1.1s-0.4,0.6-0.7,0.7c-0.3,0.2-0.6,0.2-1,0.2c-0.4,0-0.7-0.1-1-0.3
			C9.3,43.3,9.1,43,9,42.7S8.7,42.1,8.7,41.7z M9.3,41.7c0,0.5,0.1,0.8,0.4,1.1s0.6,0.4,1,0.4c0.4,0,0.7-0.1,1-0.4
			c0.3-0.3,0.4-0.7,0.4-1.2c0-0.3-0.1-0.6-0.2-0.8c-0.1-0.2-0.3-0.4-0.5-0.6c-0.2-0.1-0.4-0.2-0.7-0.2c-0.4,0-0.7,0.1-1,0.4
			C9.4,40.7,9.3,41.1,9.3,41.7z"/>
		<path class="st2" d="M13.2,43.6v-3.9h1.7c0.4,0,0.6,0,0.8,0.1s0.3,0.2,0.4,0.4c0.1,0.2,0.2,0.4,0.2,0.6c0,0.3-0.1,0.5-0.3,0.7
			c-0.2,0.2-0.5,0.3-0.8,0.4c0.1,0.1,0.2,0.1,0.3,0.2c0.2,0.1,0.3,0.3,0.4,0.5l0.7,1.1H16l-0.5-0.8c-0.2-0.2-0.3-0.4-0.4-0.5
			c-0.1-0.1-0.2-0.2-0.3-0.3c-0.1-0.1-0.2-0.1-0.2-0.1c-0.1,0-0.2,0-0.3,0h-0.6v1.7H13.2z M13.7,41.4h1.1c0.2,0,0.4,0,0.6-0.1
			c0.1,0,0.2-0.1,0.3-0.2c0.1-0.1,0.1-0.2,0.1-0.4c0-0.2-0.1-0.3-0.2-0.5c-0.1-0.1-0.3-0.2-0.6-0.2h-1.2V41.4z"/>
		<path class="st2" d="M17.1,43.6v-3.9h1.4c0.3,0,0.5,0,0.7,0.1c0.2,0.1,0.4,0.1,0.6,0.3c0.2,0.2,0.4,0.4,0.5,0.7
			c0.1,0.3,0.2,0.6,0.2,0.9c0,0.3,0,0.6-0.1,0.8c-0.1,0.2-0.2,0.4-0.3,0.6s-0.2,0.3-0.4,0.4s-0.3,0.2-0.5,0.2
			c-0.2,0-0.4,0.1-0.6,0.1H17.1z M17.7,43.2h0.8c0.3,0,0.5,0,0.6-0.1c0.1,0,0.3-0.1,0.4-0.2c0.1-0.1,0.2-0.3,0.3-0.5
			c0.1-0.2,0.1-0.5,0.1-0.8c0-0.4-0.1-0.7-0.2-0.9c-0.1-0.2-0.3-0.4-0.5-0.4c-0.1-0.1-0.4-0.1-0.7-0.1h-0.8V43.2z"/>
		<path class="st2" d="M21.1,43.6v-3.9H24v0.5h-2.3v1.2h2.2v0.5h-2.2v1.3h2.4v0.5H21.1z"/>
		<path class="st2" d="M24.8,43.6v-3.9h1.7c0.4,0,0.6,0,0.8,0.1s0.3,0.2,0.4,0.4c0.1,0.2,0.2,0.4,0.2,0.6c0,0.3-0.1,0.5-0.3,0.7
			c-0.2,0.2-0.5,0.3-0.8,0.4c0.1,0.1,0.2,0.1,0.3,0.2c0.2,0.1,0.3,0.3,0.4,0.5l0.7,1.1h-0.7l-0.5-0.8c-0.2-0.2-0.3-0.4-0.4-0.5
			c-0.1-0.1-0.2-0.2-0.3-0.3c-0.1-0.1-0.2-0.1-0.2-0.1c-0.1,0-0.2,0-0.3,0h-0.6v1.7H24.8z M25.3,41.4h1.1c0.2,0,0.4,0,0.6-0.1
			c0.1,0,0.2-0.1,0.3-0.2c0.1-0.1,0.1-0.2,0.1-0.4c0-0.2-0.1-0.3-0.2-0.5c-0.1-0.1-0.3-0.2-0.6-0.2h-1.2V41.4z"/>
		<path class="st2" d="M30.1,41.7c0-0.7,0.2-1.2,0.5-1.5c0.4-0.4,0.8-0.6,1.4-0.6c0.4,0,0.7,0.1,1,0.3c0.3,0.2,0.5,0.4,0.7,0.7
			c0.2,0.3,0.2,0.7,0.2,1.1c0,0.4-0.1,0.8-0.2,1.1s-0.4,0.6-0.7,0.7c-0.3,0.2-0.6,0.2-1,0.2c-0.4,0-0.7-0.1-1-0.3
			c-0.3-0.2-0.5-0.4-0.7-0.7S30.1,42.1,30.1,41.7z M30.7,41.7c0,0.5,0.1,0.8,0.4,1.1s0.6,0.4,1,0.4c0.4,0,0.7-0.1,1-0.4
			c0.3-0.3,0.4-0.7,0.4-1.2c0-0.3-0.1-0.6-0.2-0.8c-0.1-0.2-0.3-0.4-0.5-0.6c-0.2-0.1-0.4-0.2-0.7-0.2c-0.4,0-0.7,0.1-1,0.4
			C30.8,40.7,30.7,41.1,30.7,41.7z"/>
		<path class="st2" d="M34.6,43.6v-3.9h2.7v0.5h-2.1v1.2H37v0.5h-1.8v1.8H34.6z"/>
	</g>
</g>
<g>
	<defs>
		<rect id="SVGID_11_" x="137" y="13.1" width="54.5" height="1"/>
	</defs>
	<clipPath id="SVGID_12_">
		<use xlink:href="#SVGID_11_"  style="overflow:visible;"/>
	</clipPath>
	<line class="st12" x1="137" y1="13.4" x2="191" y2="13.4"/>
</g>
<g>
	<g>
		<path class="st2" d="M121,12.6V8.7h1.4c0.3,0,0.5,0,0.7,0.1c0.2,0.1,0.4,0.1,0.6,0.3c0.2,0.2,0.4,0.4,0.5,0.7
			c0.1,0.3,0.2,0.6,0.2,0.9c0,0.3,0,0.6-0.1,0.8c-0.1,0.2-0.2,0.4-0.3,0.6s-0.2,0.3-0.4,0.4s-0.3,0.2-0.5,0.2
			c-0.2,0-0.4,0.1-0.6,0.1H121z M121.5,12.2h0.8c0.3,0,0.5,0,0.6-0.1c0.1,0,0.3-0.1,0.4-0.2c0.1-0.1,0.2-0.3,0.3-0.5
			c0.1-0.2,0.1-0.5,0.1-0.8c0-0.4-0.1-0.7-0.2-0.9c-0.1-0.2-0.3-0.4-0.5-0.4c-0.1-0.1-0.4-0.1-0.7-0.1h-0.8V12.2z"/>
		<path class="st2" d="M124.5,12.6l1.5-3.9h0.6l1.6,3.9h-0.6l-0.5-1.2h-1.6l-0.4,1.2H124.5z M125.7,11h1.3l-0.4-1.1
			c-0.1-0.3-0.2-0.6-0.3-0.8c0,0.3-0.1,0.5-0.2,0.8L125.7,11z"/>
	</g>
	<g>
		<path class="st2" d="M129.2,12.6V9.2h-1.3V8.7h3.1v0.5h-1.3v3.5H129.2z"/>
		<path class="st2" d="M131.6,12.6V8.7h2.8v0.5h-2.3v1.2h2.2v0.5h-2.2v1.3h2.4v0.5H131.6z"/>
	</g>
	<rect x="8.5" y="7.6" class="st6" width="53.5" height="5.5"/>
	<rect x="8.5" y="14.6" class="st6" width="50.5" height="4.5"/>
	<rect x="8.5" y="20.6" class="st6" width="45" height="4.5"/>
	<path class="st6" d="M20.5,77.6v-8c0-0.2,0-0.4,0.1-0.6c0.1-0.2,0.2-0.3,0.3-0.5s0.3-0.2,0.5-0.3c0.2-0.1,0.4-0.1,0.6-0.1h23.5
		c0.2,0,0.4,0,0.6,0.1c0.2,0.1,0.3,0.2,0.5,0.3c0.1,0.1,0.2,0.3,0.3,0.5c0.1,0.2,0.1,0.4,0.1,0.6v8c0,0.2,0,0.4-0.1,0.6
		s-0.2,0.3-0.3,0.5c-0.1,0.1-0.3,0.2-0.5,0.3c-0.2,0.1-0.4,0.1-0.6,0.1H22c-0.2,0-0.4,0-0.6-0.1c-0.2-0.1-0.3-0.2-0.5-0.3
		c-0.1-0.1-0.2-0.3-0.3-0.5C20.5,78,20.5,77.8,20.5,77.6z"/>
	<g>
		<path class="st6" d="M23.6,84.3l0.7,0.2c-0.1,0.4-0.3,0.7-0.5,0.9c-0.3,0.2-0.6,0.3-1,0.3c-0.5,0-0.9-0.2-1.2-0.5
			c-0.3-0.3-0.5-0.8-0.5-1.3c0-0.6,0.2-1.1,0.5-1.4s0.7-0.5,1.2-0.5c0.4,0,0.8,0.1,1.1,0.4c0.2,0.2,0.3,0.4,0.4,0.7l-0.7,0.2
			c0-0.2-0.1-0.3-0.3-0.4c-0.1-0.1-0.3-0.2-0.5-0.2c-0.3,0-0.5,0.1-0.6,0.3s-0.2,0.5-0.2,0.9c0,0.5,0.1,0.8,0.2,1s0.4,0.3,0.6,0.3
			c0.2,0,0.4-0.1,0.5-0.2C23.4,84.8,23.5,84.6,23.6,84.3z"/>
		<path class="st6" d="M24.9,85.6v-3.6h0.7v1.4H27v-1.4h0.7v3.6H27v-1.6h-1.4v1.6H24.9z"/>
		<path class="st6" d="M28.5,85.6v-3.6h2.7v0.6h-1.9v0.8H31v0.6h-1.8v1h2v0.6H28.5z"/>
		<path class="st6" d="M34.7,85.2c0.2,0.1,0.4,0.2,0.6,0.3L35,86c-0.1,0-0.2-0.1-0.3-0.1c0,0-0.2-0.1-0.5-0.3
			c-0.2,0.1-0.5,0.2-0.8,0.2c-0.5,0-1-0.2-1.3-0.5s-0.5-0.8-0.5-1.4c0-0.6,0.2-1,0.5-1.4s0.7-0.5,1.3-0.5c0.5,0,1,0.2,1.3,0.5
			c0.3,0.3,0.5,0.8,0.5,1.4c0,0.3,0,0.6-0.1,0.8C35,84.8,34.9,85,34.7,85.2z M34.2,84.8c0.1-0.1,0.2-0.2,0.2-0.4
			c0-0.2,0.1-0.3,0.1-0.5c0-0.4-0.1-0.7-0.3-0.9c-0.2-0.2-0.4-0.3-0.7-0.3s-0.5,0.1-0.7,0.3c-0.2,0.2-0.3,0.5-0.3,0.9
			c0,0.4,0.1,0.7,0.3,0.9c0.2,0.2,0.4,0.3,0.7,0.3c0.1,0,0.2,0,0.3-0.1c-0.1-0.1-0.3-0.2-0.4-0.2l0.2-0.4
			C33.7,84.5,33.9,84.6,34.2,84.8z"/>
		<path class="st6" d="M35.7,82.1h0.7V84c0,0.3,0,0.5,0,0.6c0,0.1,0.1,0.3,0.2,0.4c0.1,0.1,0.3,0.1,0.5,0.1c0.2,0,0.4,0,0.5-0.1
			c0.1-0.1,0.2-0.2,0.2-0.3c0-0.1,0-0.3,0-0.6v-2h0.7v1.9c0,0.4,0,0.7-0.1,0.9s-0.1,0.3-0.2,0.4c-0.1,0.1-0.2,0.2-0.4,0.3
			c-0.2,0.1-0.4,0.1-0.7,0.1c-0.3,0-0.6,0-0.8-0.1c-0.2-0.1-0.3-0.2-0.4-0.3c-0.1-0.1-0.2-0.3-0.2-0.4c0-0.2-0.1-0.5-0.1-0.9V82.1z"
			/>
		<path class="st6" d="M39.4,85.6v-3.6H42v0.6h-1.9v0.8h1.8v0.6h-1.8v1h2v0.6H39.4z"/>
		<path class="st6" d="M44.1,84.7h-0.3v-0.5h0.4l0.1-0.7h-0.6V83h0.7l0.2-1h0.5L45,83h0.5l0.2-1h0.6l-0.2,1h0.3v0.5H46l-0.1,0.7h0.6
			v0.5h-0.7l-0.2,1H45l0.2-1h-0.5l-0.2,1h-0.6L44.1,84.7z M44.9,83.5l-0.1,0.7h0.5l0.1-0.7H44.9z"/>
	</g>
	<g>
		<path class="st8" d="M12.9,73.5c0-0.2,0-0.3,0.1-0.3c0.1-0.1,0.1-0.1,0.3-0.1c0.1,0,0.2,0,0.3,0.1c0.1,0.1,0.1,0.2,0.1,0.3v3
			c0,0.1,0,0.1,0,0.2c0,0.1,0,0.1-0.1,0.1c0,0-0.1,0-0.1,0.1s-0.1,0-0.2,0c-0.1,0-0.1,0-0.1,0s-0.1,0-0.1-0.1c0,0,0-0.1-0.1-0.1
			c0-0.1,0-0.1,0-0.2V73.5z M14.2,73.5c0-0.2,0-0.3,0.1-0.3c0.1-0.1,0.1-0.1,0.3-0.1c0.1,0,0.2,0,0.3,0.1c0.1,0.1,0.1,0.2,0.1,0.3v3
			c0,0.1,0,0.1,0,0.2c0,0.1,0,0.1-0.1,0.1c0,0-0.1,0-0.1,0.1s-0.1,0-0.2,0c-0.1,0-0.1,0-0.2,0s-0.1,0-0.1-0.1c0,0,0-0.1-0.1-0.1
			c0-0.1,0-0.1,0-0.2V73.5z M16,74.9c-0.2,0-0.4,0-0.4-0.1c-0.1-0.1-0.1-0.2-0.1-0.3v-1.7c0-0.2,0-0.3,0.1-0.3
			c0.1-0.1,0.2-0.1,0.4-0.1h0.6c0.1,0,0.2,0,0.3,0c0.1,0,0.1,0,0.2,0.1s0.1,0.1,0.1,0.1c0,0.1,0,0.1,0,0.2v1.7c0,0.1,0,0.1,0,0.2
			c0,0.1,0,0.1-0.1,0.1c0,0-0.1,0.1-0.2,0.1c-0.1,0-0.2,0-0.3,0H16z"/>
	</g>
	<g>
		<path class="st8" d="M49.9,73.5c0-0.2,0-0.3,0.1-0.3c0.1-0.1,0.1-0.1,0.3-0.1c0.1,0,0.2,0,0.3,0.1c0.1,0.1,0.1,0.2,0.1,0.3v3
			c0,0.1,0,0.1,0,0.2c0,0.1,0,0.1-0.1,0.1c0,0-0.1,0-0.1,0.1s-0.1,0-0.2,0c-0.1,0-0.1,0-0.1,0s-0.1,0-0.1-0.1c0,0,0-0.1-0.1-0.1
			c0-0.1,0-0.1,0-0.2V73.5z M51.2,73.5c0-0.2,0-0.3,0.1-0.3c0.1-0.1,0.1-0.1,0.3-0.1c0.1,0,0.2,0,0.3,0.1c0.1,0.1,0.1,0.2,0.1,0.3v3
			c0,0.1,0,0.1,0,0.2c0,0.1,0,0.1-0.1,0.1c0,0-0.1,0-0.1,0.1s-0.1,0-0.2,0c-0.1,0-0.1,0-0.2,0s-0.1,0-0.1-0.1c0,0,0-0.1-0.1-0.1
			c0-0.1,0-0.1,0-0.2V73.5z M53,74.9c-0.2,0-0.4,0-0.4-0.1c-0.1-0.1-0.1-0.2-0.1-0.3v-1.7c0-0.2,0-0.3,0.1-0.3
			c0.1-0.1,0.2-0.1,0.4-0.1h0.6c0.1,0,0.2,0,0.3,0c0.1,0,0.1,0,0.2,0.1s0.1,0.1,0.1,0.1c0,0.1,0,0.1,0,0.2v1.7c0,0.1,0,0.1,0,0.2
			c0,0.1,0,0.1-0.1,0.1c0,0-0.1,0.1-0.2,0.1c-0.1,0-0.2,0-0.3,0H53z"/>
	</g>
	<path class="st7" d="M66,77.6v-8c0-0.2,0-0.4,0.1-0.6c0.1-0.2,0.2-0.3,0.3-0.5c0.1-0.1,0.3-0.2,0.5-0.3c0.2-0.1,0.4-0.1,0.6-0.1H91
		c0.2,0,0.4,0,0.6,0.1c0.2,0.1,0.3,0.2,0.5,0.3c0.1,0.1,0.2,0.3,0.3,0.5c0.1,0.2,0.1,0.4,0.1,0.6v8c0,0.2,0,0.4-0.1,0.6
		c-0.1,0.2-0.2,0.3-0.3,0.5c-0.1,0.1-0.3,0.2-0.5,0.3c-0.2,0.1-0.4,0.1-0.6,0.1H67.5c-0.2,0-0.4,0-0.6-0.1c-0.2-0.1-0.3-0.2-0.5-0.3
		c-0.1-0.1-0.2-0.3-0.3-0.5C66,78,66,77.8,66,77.6z"/>
	<g>
		<path class="st7" d="M66.7,82.1h1.4c0.3,0,0.5,0,0.6,0c0.1,0,0.3,0.1,0.4,0.1c0.1,0.1,0.2,0.2,0.3,0.3s0.1,0.3,0.1,0.4
			c0,0.2,0,0.3-0.1,0.5c-0.1,0.1-0.2,0.2-0.4,0.3c0.2,0.1,0.4,0.2,0.5,0.3s0.2,0.3,0.2,0.5c0,0.2,0,0.3-0.1,0.5
			c-0.1,0.2-0.2,0.3-0.3,0.4c-0.1,0.1-0.3,0.1-0.5,0.2c-0.1,0-0.4,0-0.9,0h-1.2V82.1z M67.4,82.7v0.8h0.5c0.3,0,0.5,0,0.5,0
			c0.1,0,0.2-0.1,0.3-0.1c0.1-0.1,0.1-0.2,0.1-0.3c0-0.1,0-0.2-0.1-0.3c-0.1-0.1-0.2-0.1-0.3-0.1c-0.1,0-0.3,0-0.6,0H67.4z
			 M67.4,84.1v1h0.7c0.3,0,0.4,0,0.5,0c0.1,0,0.2-0.1,0.3-0.1s0.1-0.2,0.1-0.3c0-0.1,0-0.2-0.1-0.3s-0.1-0.1-0.2-0.2
			s-0.3-0.1-0.6-0.1H67.4z"/>
		<path class="st7" d="M70.3,85.6v-3.6h1.5c0.4,0,0.7,0,0.8,0.1c0.2,0.1,0.3,0.2,0.4,0.3c0.1,0.2,0.2,0.4,0.2,0.6
			c0,0.3-0.1,0.5-0.2,0.7c-0.2,0.2-0.4,0.3-0.7,0.3c0.2,0.1,0.3,0.2,0.4,0.3s0.2,0.3,0.4,0.6l0.4,0.7h-0.9l-0.5-0.8
			c-0.2-0.3-0.3-0.5-0.4-0.5c-0.1-0.1-0.1-0.1-0.2-0.1c-0.1,0-0.2,0-0.4,0H71v1.5H70.3z M71,83.6h0.5c0.3,0,0.6,0,0.6,0
			c0.1,0,0.2-0.1,0.2-0.2s0.1-0.2,0.1-0.3c0-0.1,0-0.2-0.1-0.3c-0.1-0.1-0.2-0.1-0.3-0.1c-0.1,0-0.2,0-0.5,0H71V83.6z"/>
		<path class="st7" d="M77.1,85.6h-0.8L76,84.8h-1.4l-0.3,0.8h-0.8l1.4-3.6h0.8L77.1,85.6z M75.8,84.2l-0.5-1.3l-0.5,1.3H75.8z"/>
		<path class="st7" d="M77.5,85.6v-3.6h0.7l1.5,2.4v-2.4h0.7v3.6h-0.7l-1.4-2.3v2.3H77.5z"/>
		<path class="st7" d="M83.4,84.3l0.7,0.2c-0.1,0.4-0.3,0.7-0.5,0.9c-0.3,0.2-0.6,0.3-1,0.3c-0.5,0-0.9-0.2-1.2-0.5
			c-0.3-0.3-0.5-0.8-0.5-1.3c0-0.6,0.2-1.1,0.5-1.4s0.7-0.5,1.2-0.5c0.4,0,0.8,0.1,1.1,0.4c0.2,0.2,0.3,0.4,0.4,0.7l-0.7,0.2
			c0-0.2-0.1-0.3-0.3-0.4c-0.1-0.1-0.3-0.2-0.5-0.2c-0.3,0-0.5,0.1-0.6,0.3s-0.2,0.5-0.2,0.9c0,0.5,0.1,0.8,0.2,1s0.4,0.3,0.6,0.3
			c0.2,0,0.4-0.1,0.5-0.2C83.2,84.8,83.3,84.6,83.4,84.3z"/>
		<path class="st7" d="M84.7,85.6v-3.6h0.7v1.4h1.4v-1.4h0.7v3.6h-0.7v-1.6h-1.4v1.6H84.7z"/>
		<path class="st7" d="M89.7,84.7h-0.3v-0.5h0.4l0.1-0.7h-0.6V83h0.7l0.2-1h0.5l-0.2,1h0.5l0.2-1h0.6l-0.2,1h0.3v0.5h-0.4l-0.1,0.7
			h0.6v0.5h-0.7l-0.2,1h-0.5l0.2-1h-0.5l-0.2,1h-0.6L89.7,84.7z M90.5,83.5l-0.1,0.7h0.5l0.1-0.7H90.5z"/>
	</g>
	<g>
		<path class="st8" d="M58.4,73.3c0-0.2,0.1-0.3,0.2-0.3s0.3-0.1,0.5-0.1c0.2,0,0.4,0,0.5,0.1s0.2,0.2,0.2,0.3v2.9
			c0,0.2-0.1,0.3-0.2,0.3s-0.3,0.1-0.5,0.1c-0.2,0-0.4,0-0.5-0.1s-0.2-0.2-0.2-0.3V73.3z M61.5,73.8c-0.2,0-0.4,0-0.4-0.1
			C61,73.7,61,73.6,61,73.4v-1c0-0.2,0-0.3,0.1-0.3c0.1-0.1,0.2-0.1,0.4-0.1h0.6c0.1,0,0.2,0,0.3,0c0.1,0,0.1,0,0.2,0.1
			s0.1,0.1,0.1,0.1s0,0.1,0,0.2v1c0,0.1,0,0.1,0,0.2s0,0.1-0.1,0.1s-0.1,0.1-0.2,0.1c-0.1,0-0.2,0-0.3,0H61.5z M61.5,77.6
			c-0.2,0-0.4,0-0.4-0.1C61,77.4,61,77.3,61,77.1v-1c0-0.2,0-0.3,0.1-0.3c0.1-0.1,0.2-0.1,0.4-0.1h0.6c0.1,0,0.2,0,0.3,0
			c0.1,0,0.1,0,0.2,0.1s0.1,0.1,0.1,0.1s0,0.1,0,0.2v1c0,0.1,0,0.1,0,0.2s0,0.1-0.1,0.1s-0.1,0.1-0.2,0.1c-0.1,0-0.2,0-0.3,0H61.5z"
			/>
	</g>
	<g>
		<path class="st8" d="M95.4,73.9c0-0.2,0.1-0.3,0.2-0.3s0.3-0.1,0.5-0.1c0.2,0,0.4,0,0.5,0.1c0.1,0.1,0.2,0.2,0.2,0.3v1.7
			c0,0.2-0.1,0.3-0.2,0.3C96.4,76,96.3,76,96,76c-0.2,0-0.4,0-0.5-0.1s-0.2-0.2-0.2-0.3V73.9z M97.2,73.9c0-0.2,0.1-0.3,0.2-0.3
			c0.1-0.1,0.3-0.1,0.5-0.1c0.2,0,0.4,0,0.5,0.1c0.1,0.1,0.2,0.2,0.2,0.3v1.7c0,0.2-0.1,0.3-0.2,0.3C98.3,76,98.1,76,97.9,76
			c-0.2,0-0.4,0-0.5-0.1c-0.1-0.1-0.2-0.2-0.2-0.3V73.9z M99.1,73.9c0-0.2,0-0.3,0.1-0.3c0.1,0,0.1-0.1,0.3-0.1c0.1,0,0.2,0,0.3,0.1
			c0.1,0,0.1,0.2,0.1,0.3v1.7c0,0.1,0,0.1,0,0.2c0,0.1,0,0.1-0.1,0.1c0,0-0.1,0-0.1,0.1s-0.1,0-0.2,0c-0.1,0-0.1,0-0.2,0
			s-0.1,0-0.1-0.1c0,0,0-0.1-0.1-0.1c0-0.1,0-0.1,0-0.2V73.9z"/>
	</g>
	<path class="st13" d="M103.5,77.6v-8c0-0.2,0-0.4,0.1-0.6c0.1-0.2,0.2-0.3,0.3-0.5c0.1-0.1,0.3-0.2,0.5-0.3s0.4-0.1,0.6-0.1h34.5
		c0.2,0,0.4,0,0.6,0.1c0.2,0.1,0.3,0.2,0.5,0.3s0.2,0.3,0.3,0.5c0.1,0.2,0.1,0.4,0.1,0.6v8c0,0.2,0,0.4-0.1,0.6
		c-0.1,0.2-0.2,0.3-0.3,0.5c-0.1,0.1-0.3,0.2-0.5,0.3c-0.2,0.1-0.4,0.1-0.6,0.1H105c-0.2,0-0.4,0-0.6-0.1c-0.2-0.1-0.3-0.2-0.5-0.3
		c-0.1-0.1-0.2-0.3-0.3-0.5S103.5,77.8,103.5,77.6z"/>
	<g>
		<path class="st13" d="M104.8,85.6v-3.6h0.7v3.6H104.8z"/>
		<path class="st13" d="M106.2,85.6v-3.6h0.7l1.5,2.4v-2.4h0.7v3.6h-0.7l-1.4-2.3v2.3H106.2z"/>
		<path class="st13" d="M109.6,84.5l0.7-0.1c0,0.2,0.1,0.4,0.3,0.5c0.1,0.1,0.3,0.2,0.5,0.2c0.2,0,0.4,0,0.5-0.1
			c0.1-0.1,0.2-0.2,0.2-0.3c0-0.1,0-0.2-0.1-0.2c0-0.1-0.1-0.1-0.3-0.2c-0.1,0-0.3-0.1-0.6-0.2c-0.4-0.1-0.7-0.2-0.8-0.4
			c-0.2-0.2-0.3-0.4-0.3-0.7c0-0.2,0.1-0.4,0.2-0.5s0.3-0.3,0.4-0.4s0.4-0.1,0.7-0.1c0.4,0,0.8,0.1,1,0.3c0.2,0.2,0.3,0.5,0.4,0.8
			l-0.7,0c0-0.2-0.1-0.3-0.2-0.4s-0.3-0.1-0.5-0.1c-0.2,0-0.4,0-0.5,0.1c-0.1,0.1-0.1,0.1-0.1,0.2c0,0.1,0,0.2,0.1,0.2
			c0.1,0.1,0.3,0.2,0.7,0.2s0.6,0.2,0.8,0.3c0.2,0.1,0.3,0.2,0.4,0.4c0.1,0.2,0.1,0.3,0.1,0.6c0,0.2-0.1,0.4-0.2,0.6
			s-0.3,0.3-0.5,0.4c-0.2,0.1-0.5,0.1-0.8,0.1c-0.5,0-0.8-0.1-1-0.3C109.8,85.2,109.7,84.9,109.6,84.5z"/>
		<path class="st13" d="M113.9,85.6v-3h-1.1v-0.6h2.8v0.6h-1.1v3H113.9z"/>
		<path class="st13" d="M116.2,85.6v-3.6h0.7v3.6H116.2z"/>
		<path class="st13" d="M118.4,85.6v-3h-1.1v-0.6h2.8v0.6h-1.1v3H118.4z"/>
		<path class="st13" d="M120.6,82.1h0.7V84c0,0.3,0,0.5,0,0.6c0,0.1,0.1,0.3,0.2,0.4c0.1,0.1,0.3,0.1,0.5,0.1c0.2,0,0.4,0,0.5-0.1
			c0.1-0.1,0.2-0.2,0.2-0.3c0-0.1,0-0.3,0-0.6v-2h0.7v1.9c0,0.4,0,0.7-0.1,0.9s-0.1,0.3-0.2,0.4c-0.1,0.1-0.2,0.2-0.4,0.3
			c-0.2,0.1-0.4,0.1-0.7,0.1c-0.3,0-0.6,0-0.8-0.1c-0.2-0.1-0.3-0.2-0.4-0.3c-0.1-0.1-0.2-0.3-0.2-0.4c0-0.2-0.1-0.5-0.1-0.9V82.1z"
			/>
		<path class="st13" d="M125,85.6v-3H124v-0.6h2.8v0.6h-1.1v3H125z"/>
		<path class="st13" d="M127.3,85.6v-3.6h0.7v3.6H127.3z"/>
		<path class="st13" d="M128.5,83.9c0-0.4,0.1-0.7,0.2-0.9c0.1-0.2,0.2-0.3,0.3-0.5s0.3-0.3,0.5-0.3c0.2-0.1,0.5-0.1,0.8-0.1
			c0.5,0,0.9,0.2,1.3,0.5s0.5,0.8,0.5,1.4c0,0.6-0.2,1-0.5,1.4c-0.3,0.3-0.7,0.5-1.3,0.5c-0.5,0-1-0.2-1.3-0.5
			S128.5,84.4,128.5,83.9z M129.3,83.8c0,0.4,0.1,0.7,0.3,0.9c0.2,0.2,0.4,0.3,0.7,0.3s0.5-0.1,0.7-0.3s0.3-0.5,0.3-0.9
			c0-0.4-0.1-0.7-0.3-0.9s-0.4-0.3-0.7-0.3s-0.5,0.1-0.7,0.3C129.4,83.1,129.3,83.4,129.3,83.8z"/>
		<path class="st13" d="M132.6,85.6v-3.6h0.7l1.5,2.4v-2.4h0.7v3.6h-0.7l-1.4-2.3v2.3H132.6z"/>
		<path class="st13" d="M137.6,84.7h-0.3v-0.5h0.4l0.1-0.7h-0.6V83h0.7l0.2-1h0.5l-0.2,1h0.5l0.2-1h0.6l-0.2,1h0.3v0.5h-0.4
			l-0.1,0.7h0.6v0.5h-0.7l-0.2,1h-0.5l0.2-1h-0.5l-0.2,1h-0.6L137.6,84.7z M138.4,83.5l-0.1,0.7h0.5l0.1-0.7H138.4z"/>
	</g>
	<g>
		<path class="st8" d="M143.9,73.3c0-0.2,0.1-0.3,0.2-0.3s0.3-0.1,0.5-0.1c0.2,0,0.4,0,0.5,0.1s0.2,0.2,0.2,0.3v2.9
			c0,0.2-0.1,0.3-0.2,0.3s-0.3,0.1-0.5,0.1c-0.2,0-0.4,0-0.5-0.1s-0.2-0.2-0.2-0.3V73.3z M147,73.8c-0.2,0-0.4,0-0.4-0.1
			c-0.1-0.1-0.1-0.2-0.1-0.3v-1c0-0.2,0-0.3,0.1-0.3c0.1-0.1,0.2-0.1,0.4-0.1h0.6c0.1,0,0.2,0,0.3,0c0.1,0,0.1,0,0.2,0.1
			s0.1,0.1,0.1,0.1s0,0.1,0,0.2v1c0,0.1,0,0.1,0,0.2s0,0.1-0.1,0.1s-0.1,0.1-0.2,0.1c-0.1,0-0.2,0-0.3,0H147z M147,77.6
			c-0.2,0-0.4,0-0.4-0.1c-0.1-0.1-0.1-0.2-0.1-0.3v-1c0-0.2,0-0.3,0.1-0.3c0.1-0.1,0.2-0.1,0.4-0.1h0.6c0.1,0,0.2,0,0.3,0
			c0.1,0,0.1,0,0.2,0.1s0.1,0.1,0.1,0.1s0,0.1,0,0.2v1c0,0.1,0,0.1,0,0.2s0,0.1-0.1,0.1s-0.1,0.1-0.2,0.1c-0.1,0-0.2,0-0.3,0H147z"
			/>
	</g>
	<path class="st9" d="M152,77.6v-8c0-0.2,0-0.4,0.1-0.6c0.1-0.2,0.2-0.3,0.3-0.5c0.1-0.1,0.3-0.2,0.5-0.3s0.4-0.1,0.6-0.1H179
		c0.2,0,0.4,0,0.6,0.1c0.2,0.1,0.3,0.2,0.5,0.3c0.1,0.1,0.2,0.3,0.3,0.5c0.1,0.2,0.1,0.4,0.1,0.6v8c0,0.2,0,0.4-0.1,0.6
		c-0.1,0.2-0.2,0.3-0.3,0.5c-0.1,0.1-0.3,0.2-0.5,0.3c-0.2,0.1-0.4,0.1-0.6,0.1h-25.5c-0.2,0-0.4,0-0.6-0.1
		c-0.2-0.1-0.3-0.2-0.5-0.3c-0.1-0.1-0.2-0.3-0.3-0.5S152,77.8,152,77.6z"/>
	<g>
		<path class="st9" d="M155.3,85.6h-0.8l-0.3-0.8h-1.4l-0.3,0.8h-0.8l1.4-3.6h0.8L155.3,85.6z M154,84.2l-0.5-1.3l-0.5,1.3H154z"/>
		<path class="st9" d="M158,84.3l0.7,0.2c-0.1,0.4-0.3,0.7-0.5,0.9c-0.3,0.2-0.6,0.3-1,0.3c-0.5,0-0.9-0.2-1.2-0.5
			c-0.3-0.3-0.5-0.8-0.5-1.3c0-0.6,0.2-1.1,0.5-1.4s0.7-0.5,1.2-0.5c0.4,0,0.8,0.1,1.1,0.4c0.2,0.2,0.3,0.4,0.4,0.7l-0.7,0.2
			c0-0.2-0.1-0.3-0.3-0.4c-0.1-0.1-0.3-0.2-0.5-0.2c-0.3,0-0.5,0.1-0.6,0.3s-0.2,0.5-0.2,0.9c0,0.5,0.1,0.8,0.2,1s0.4,0.3,0.6,0.3
			c0.2,0,0.4-0.1,0.5-0.2C157.9,84.8,158,84.6,158,84.3z"/>
		<path class="st9" d="M161.6,84.3l0.7,0.2c-0.1,0.4-0.3,0.7-0.5,0.9c-0.3,0.2-0.6,0.3-1,0.3c-0.5,0-0.9-0.2-1.2-0.5
			c-0.3-0.3-0.5-0.8-0.5-1.3c0-0.6,0.2-1.1,0.5-1.4s0.7-0.5,1.2-0.5c0.4,0,0.8,0.1,1.1,0.4c0.2,0.2,0.3,0.4,0.4,0.7l-0.7,0.2
			c0-0.2-0.1-0.3-0.3-0.4c-0.1-0.1-0.3-0.2-0.5-0.2c-0.3,0-0.5,0.1-0.6,0.3s-0.2,0.5-0.2,0.9c0,0.5,0.1,0.8,0.2,1s0.4,0.3,0.6,0.3
			c0.2,0,0.4-0.1,0.5-0.2C161.5,84.8,161.6,84.6,161.6,84.3z"/>
		<path class="st9" d="M162.8,83.9c0-0.4,0.1-0.7,0.2-0.9c0.1-0.2,0.2-0.3,0.3-0.5s0.3-0.3,0.5-0.3c0.2-0.1,0.5-0.1,0.8-0.1
			c0.5,0,0.9,0.2,1.3,0.5s0.5,0.8,0.5,1.4c0,0.6-0.2,1-0.5,1.4c-0.3,0.3-0.7,0.5-1.3,0.5c-0.5,0-1-0.2-1.3-0.5
			S162.8,84.4,162.8,83.9z M163.5,83.8c0,0.4,0.1,0.7,0.3,0.9c0.2,0.2,0.4,0.3,0.7,0.3s0.5-0.1,0.7-0.3s0.3-0.5,0.3-0.9
			c0-0.4-0.1-0.7-0.3-0.9s-0.4-0.3-0.7-0.3s-0.5,0.1-0.7,0.3C163.6,83.1,163.5,83.4,163.5,83.8z"/>
		<path class="st9" d="M166.8,82.1h0.7V84c0,0.3,0,0.5,0,0.6c0,0.1,0.1,0.3,0.2,0.4c0.1,0.1,0.3,0.1,0.5,0.1c0.2,0,0.4,0,0.5-0.1
			c0.1-0.1,0.2-0.2,0.2-0.3c0-0.1,0-0.3,0-0.6v-2h0.7v1.9c0,0.4,0,0.7-0.1,0.9s-0.1,0.3-0.2,0.4c-0.1,0.1-0.2,0.2-0.4,0.3
			c-0.2,0.1-0.4,0.1-0.7,0.1c-0.3,0-0.6,0-0.8-0.1c-0.2-0.1-0.3-0.2-0.4-0.3c-0.1-0.1-0.2-0.3-0.2-0.4c0-0.2-0.1-0.5-0.1-0.9V82.1z"
			/>
		<path class="st9" d="M170.5,85.6v-3.6h0.7l1.5,2.4v-2.4h0.7v3.6h-0.7l-1.4-2.3v2.3H170.5z"/>
		<path class="st9" d="M174.9,85.6v-3h-1.1v-0.6h2.8v0.6h-1.1v3H174.9z"/>
	</g>
	<g>
		<path class="st9" d="M177.6,84.7h-0.3v-0.5h0.4l0.1-0.7h-0.6V83h0.7l0.2-1h0.5l-0.2,1h0.5l0.2-1h0.6l-0.2,1h0.3v0.5h-0.4l-0.1,0.7
			h0.6v0.5h-0.7l-0.2,1h-0.5l0.2-1h-0.5l-0.2,1h-0.6L177.6,84.7z M178.4,83.5l-0.1,0.7h0.5l0.1-0.7H178.4z"/>
	</g>
	<g>
		<path class="st8" d="M183.9,73.5c0-0.2,0-0.3,0.1-0.3c0.1-0.1,0.1-0.1,0.3-0.1c0.1,0,0.2,0,0.3,0.1c0.1,0.1,0.1,0.2,0.1,0.3v3
			c0,0.1,0,0.1,0,0.2c0,0.1,0,0.1-0.1,0.1c0,0-0.1,0-0.1,0.1s-0.1,0-0.2,0c-0.1,0-0.1,0-0.1,0s-0.1,0-0.1-0.1c0,0,0-0.1-0.1-0.1
			c0-0.1,0-0.1,0-0.2V73.5z M185.2,73.5c0-0.2,0-0.3,0.1-0.3c0.1-0.1,0.1-0.1,0.3-0.1c0.1,0,0.2,0,0.3,0.1c0.1,0.1,0.1,0.2,0.1,0.3
			v3c0,0.1,0,0.1,0,0.2c0,0.1,0,0.1-0.1,0.1c0,0-0.1,0-0.1,0.1s-0.1,0-0.2,0c-0.1,0-0.1,0-0.2,0s-0.1,0-0.1-0.1c0,0,0-0.1-0.1-0.1
			c0-0.1,0-0.1,0-0.2V73.5z M187,74.9c-0.2,0-0.4,0-0.4-0.1c-0.1-0.1-0.1-0.2-0.1-0.3v-1.7c0-0.2,0-0.3,0.1-0.3
			c0.1-0.1,0.2-0.1,0.4-0.1h0.6c0.1,0,0.2,0,0.3,0c0.1,0,0.1,0,0.2,0.1s0.1,0.1,0.1,0.1c0,0.1,0,0.1,0,0.2v1.7c0,0.1,0,0.1,0,0.2
			c0,0.1,0,0.1-0.1,0.1c0,0-0.1,0.1-0.2,0.1c-0.1,0-0.2,0-0.3,0H187z"/>
	</g>
</g>
<path class="st1" d="M0.9,92.6v-91c0-0.2,0.1-0.4,0.2-0.5s0.3-0.2,0.5-0.2h196c0.2,0,0.4,0.1,0.5,0.2s0.2,0.3,0.2,0.5v91
	c0,0.2-0.1,0.4-0.2,0.5c-0.1,0.1-0.3,0.2-0.5,0.2H1.6c-0.2,0-0.4-0.1-0.5-0.2C1,93,0.9,92.8,0.9,92.6z"/>
</svg>
